<?xml version="1.0" standalone="no"?>
<!DOCTYPE svg PUBLIC "-//W3C//DTD SVG 1.1//EN" "http://www.w3.org/Graphics/SVG/1.1/DTD/svg11.dtd" >
<svg>
<metadata>
Created by FontForge 20090914 at Wed Oct 13 19:21:04 2021
 By www-data
</metadata>
<defs>
<font id="StyreneAWeb-Regular" horiz-adv-x="600" >
  <font-face 
    font-family="Styrene A Web"
    font-weight="400"
    font-stretch="normal"
    units-per-em="1000"
    panose-1="0 0 0 0 0 0 0 0 0 0"
    ascent="800"
    descent="-200"
    x-height="494"
    cap-height="710"
    bbox="-115 -325.001 1197 1201"
    underline-thickness="76"
    underline-position="-152"
    unicode-range="U+0020-U+2013"
  />
<missing-glyph horiz-adv-x="265" 
 />
    <glyph glyph-name=".notdef" horiz-adv-x="265" 
 />
    <glyph glyph-name="uni0020" unicode=" " horiz-adv-x="265" 
 />
    <glyph glyph-name="uni0021" unicode="!" horiz-adv-x="336" 
d="M123 232v478h90v-478h-90zM110 0v142h116v-142h-116z" />
    <glyph glyph-name="uni002C" unicode="," horiz-adv-x="292" 
d="M140 -214l-73.999 0.00195312c49.333 83.333 74.666 154.666 75.999 213.999h-54v142h116v-134c0 -54.667 -13.667 -114.334 -41 -179.001c-1.33301 -2.66699 -9 -17 -23 -43z" />
    <glyph glyph-name="uni002D" unicode="-" horiz-adv-x="496" 
d="M84 252v86h328v-86h-328z" />
    <glyph glyph-name="uni002E" unicode="." horiz-adv-x="292" 
d="M88 0v142h116v-142h-116z" />
    <glyph glyph-name="uni0030" unicode="0" horiz-adv-x="692" 
d="M346 722c79.333 0 140.5 -23.667 183.5 -71s64.5 -110 64.5 -188v-216c0 -80.667 -21.833 -144 -65.5 -190s-104.5 -69 -182.5 -69c-79.333 0 -140.5 23.667 -183.5 71s-64.5 110 -64.5 188v216c0 79.333 22 142.333 66 189s104.667 70 182 70zM346 76
c50 0 87.833 16.167 113.5 48.5s38.5 73.5 38.5 123.5v214c0 51.333 -13 92.833 -39 124.5s-63.667 47.5 -113 47.5c-50 0 -87.833 -16.167 -113.5 -48.5s-38.5 -73.5 -38.5 -123.5v-214c0 -51.333 13.167 -92.833 39.5 -124.5s63.833 -47.5 112.5 -47.5z" />
    <glyph glyph-name="uni0031" unicode="1" horiz-adv-x="445" 
d="M323 713v-713h-97v600l-176 -102v92l201 123h72z" />
    <glyph glyph-name="uni0032" unicode="2" horiz-adv-x="618" 
d="M574 88l0.00195312 -87.999h-499v60l240 237c41.333 41.333 71.333 75.666 90 102.999c20.667 33.333 31 67.666 31 102.999c0 40.667 -11.833 72.667 -35.5 96s-55.834 35 -96.501 35s-72.834 -12.833 -96.501 -38.5s-35.5 -59.167 -35.5 -100.5v-46h-95v47
c0 68.667 21 123.5 63 164.5s96.667 61.5 164 61.5s122.333 -20 165 -60s64 -93 64 -159c0 -51.333 -13.5 -97.166 -40.5 -137.499s-65.167 -83.833 -114.5 -130.5l-150 -147h346z" />
    <glyph glyph-name="uni0033" unicode="3" horiz-adv-x="642" 
d="M570 194c0 -68.667 -24.5 -120.168 -73.5 -154.501s-108.833 -51.5 -179.5 -51.5c-66.667 0 -124 17.5 -172 52.5s-74.667 84.167 -80 147.5h97c7.33301 -36.667 25.333 -64.5 54 -83.5s62.334 -28.5 101.001 -28.5c44 0 80.833 10.333 110.5 31s44.5 51.667 44.5 93
c0 42.667 -13.167 73.834 -39.5 93.501s-61.5 29.5 -105.5 29.5h-125v88h128c37.333 0 66.833 9.5 88.5 28.5s32.5 46.833 32.5 83.5c0 37.333 -13 65.333 -39 84s-58.333 28 -97 28c-36.667 0 -66.834 -9 -90.501 -27s-38.5 -44.667 -44.5 -80h-96
c2 40 14.833 75.667 38.5 107s54.167 54.666 91.5 69.999c28.667 11.333 62 17 100 17c66.667 0 122.167 -16.667 166.5 -50s66.5 -81.666 66.5 -144.999c0 -72 -33 -123.333 -99 -154c13.333 -4 27.333 -10 42 -18c53.333 -34 80 -87.667 80 -161z" />
    <glyph glyph-name="uni0034" unicode="4" horiz-adv-x="688" 
d="M650 219h-151v-219h-94v219h-360v53l348 438h106v-407h151v-84zM173 303h232v295z" />
    <glyph glyph-name="uni0035" unicode="5" horiz-adv-x="651" 
d="M114 314v396.002h436v-88h-344v-206c34.667 34.667 82.667 52 144 52c68.667 0 123.667 -22 165 -66s62 -100 62 -168v-11c0 -71.333 -23.667 -128.333 -71 -171s-106.666 -64 -177.999 -64c-68 0 -125.333 18.5 -172 55.5s-72.334 87.833 -77.001 152.5h95
c2 -12 6 -25 12 -39c9.33301 -26.667 27.5 -46.834 54.5 -60.501s56.167 -20.5 87.5 -20.5c44 0 80.5 13.667 109.5 41s43.5 62.666 43.5 105.999v10c0 46 -14 82 -42 108s-65 39 -111 39c-56 0 -100.667 -22 -134 -66h-80z" />
    <glyph glyph-name="uni0036" unicode="6" horiz-adv-x="654" 
d="M582 230c0 -74 -24.333 -132.833 -73 -176.5s-109.667 -65.5 -183 -65.5c-76 0 -137.333 21.833 -184 65.5s-70 102.5 -70 176.5c0 34.667 6 68.5 18 101.5s24.5 59.333 37.5 79s32.833 47.167 59.5 82.5l166 217h115l-207 -263c24.667 14 56 21 94 21
c70 0 125.333 -22.333 166 -67s61 -101.667 61 -171zM485 230c0 48.667 -14.5 86.832 -43.5 114.499s-67.5 41.5 -115.5 41.5c-46.667 0 -84.5 -14.667 -113.5 -44s-43.5 -66.666 -43.5 -111.999c0 -46 14.667 -83.167 44 -111.5s67 -42.5 113 -42.5c48 0 86.5 14 115.5 42
s43.5 65.333 43.5 112z" />
    <glyph glyph-name="uni0037" unicode="7" horiz-adv-x="618" 
d="M563 637l-352 -637h-106l348 622h-388v88h498v-73z" />
    <glyph glyph-name="uni0038" unicode="8" horiz-adv-x="670" 
d="M590 192c0 -66 -23.668 -116.5 -71.001 -151.5s-105 -52.5 -173 -52.5h-27c-68 0 -124.833 17.833 -170.5 53.5s-68.5 85.834 -68.5 150.501c0 39.333 11.833 75.5 35.5 108.5s54.167 54.833 91.5 65.5c-34.667 10.667 -62.167 30.667 -82.5 60
s-30.5 62.666 -30.5 99.999c0 63.333 21.833 111.833 65.5 145.5s97.834 50.5 162.501 50.5h26c66 0 120.5 -17 163.5 -51s64.5 -82.333 64.5 -145c0 -38 -10 -71.5 -30 -100.5s-47.667 -48.833 -83 -59.5c38 -10.667 68.667 -32.5 92 -65.5s35 -69.167 35 -108.5z
M347.999 636h-26c-38 0 -69.5 -9.83301 -94.5 -29.5s-37.5 -47.834 -37.5 -84.501s12.5 -64.834 37.5 -84.501s56.5 -29.5 94.5 -29.5h26c38 0 69.5 9.83301 94.5 29.5s37.5 47.834 37.5 84.501s-12.5 64.834 -37.5 84.501s-56.5 29.5 -94.5 29.5zM349.999 322h-30
c-40.667 0 -74.5 -10.667 -101.5 -32s-40.5 -52 -40.5 -92c0 -39.333 13.667 -69.833 41 -91.5s61 -32.5 101 -32.5h30c40.667 0 74.5 10.667 101.5 32s40.5 52 40.5 92s-13.333 70.667 -40 92s-60.667 32 -102 32z" />
    <glyph glyph-name="uni0039" unicode="9" horiz-adv-x="654" 
d="M467 217l-166 -217h-115l207 263c-24 -14 -55.333 -21 -94 -21c-70 0 -125.333 22.333 -166 67s-61 101.667 -61 171c0 74 24.333 132.833 73 176.5s109.667 65.5 183 65.5c76.667 0 138.167 -21.667 184.5 -65s69.5 -102.333 69.5 -177c0 -48.667 -9.5 -92 -28.5 -130
s-47.833 -82.333 -86.5 -133zM169 480c0 -48 14.667 -85.999 44 -113.999s67.666 -42 114.999 -42c46.667 0 84.5 14.667 113.5 44s43.5 66.666 43.5 111.999c0 66 -30 113.333 -90 142c-20 8 -42.333 12 -67 12c-47.333 0 -85.666 -14.167 -114.999 -42.5
s-44 -65.5 -44 -111.5z" />
    <glyph glyph-name="uni003A" unicode=":" horiz-adv-x="302" 
d="M93 0v142h116v-142h-116zM93 343v142h116v-142h-116z" />
    <glyph glyph-name="uni003B" unicode=";" horiz-adv-x="302" 
d="M93 343v142h116v-142h-116zM145 -214l-73.999 0.00195312c49.333 83.333 74.666 154.666 75.999 213.999h-54v142h116v-134c0 -54.667 -13.667 -114.334 -41 -179.001c-1.33301 -2.66699 -9 -17 -23 -43z" />
    <glyph glyph-name="uni003F" unicode="?" horiz-adv-x="544" 
d="M257 232h-92v8c0 32.667 5.33301 57 16 73s30.667 34 60 54l72 50c52.667 35.333 79 75.333 79 120c0 33.333 -10.333 58.833 -31 76.5s-47.667 26.5 -81 26.5c-35.333 0 -63 -10.833 -83 -32.5s-30 -50.167 -30 -85.5v-32h-89v35c0 61.333 18.167 109.5 54.5 144.5
s85.5 52.5 147.5 52.5c61.333 0 110.833 -15.833 148.5 -47.5s56.5 -77.5 56.5 -137.5c0 -42 -10.333 -77.5 -31 -106.5s-51 -56.833 -91 -83.5l-72 -49c-22.667 -16 -34 -38 -34 -66zM153 0v142h116v-142h-116z" />
    <glyph glyph-name="uni0041" unicode="A" horiz-adv-x="800" 
d="M665 0l-79 171h-378l-79 -171h-96l328 714h77l329 -714h-102zM248 259h298l-149 324z" />
    <glyph glyph-name="uni0042" unicode="B" horiz-adv-x="784" 
d="M110 0v710.001h348c70.667 0 128 -15.333 172 -46s66 -79.334 66 -146.001c0 -33.333 -10.833 -63.5 -32.5 -90.5s-48.834 -45.167 -81.501 -54.5c18 -5.33301 34.667 -12.333 50 -21c16 -10.667 29.667 -22.667 41 -36c25.333 -35.333 38 -72.666 38 -111.999
c0 -70.667 -22.667 -122.334 -68 -155.001s-104.666 -49 -177.999 -49h-355zM456 621.001h-250v-210h250c93.333 0 140 35 140 105s-46.667 105 -140 105zM463 322.001h-257v-233h257c100 0 150 39 150 117c0 77.333 -50 116 -150 116z" />
    <glyph glyph-name="uni0043" unicode="C" horiz-adv-x="809" 
d="M420 -12c-101.333 0 -185.168 35.833 -251.501 107.5s-99.5 158.167 -99.5 259.5c0 103.333 33.333 190.333 100 261s150.334 106 251.001 106c75.333 0 143.666 -19.333 204.999 -58s102 -92.667 122 -162h-101c-18.667 40.667 -49.167 72.334 -91.5 95.001
s-87.166 34 -134.499 34c-75.333 0 -135.833 -27 -181.5 -81s-68.5 -119 -68.5 -195c0 -76.667 23 -141.834 69 -195.501s106.333 -80.5 181 -80.5c104.667 0 180.667 43.333 228 130h99c-11.333 -44.667 -34 -84.167 -68 -118.5s-73.667 -60.5 -119 -78.5
c-39.333 -16 -86 -24 -140 -24z" />
    <glyph glyph-name="uni0044" unicode="D" horiz-adv-x="832" 
d="M110 0l-0.00195312 710h280c112.667 0 202.834 -31.833 270.501 -95.5s101.5 -150.167 101.5 -259.5c0 -110.667 -34.667 -197.5 -104 -260.5s-158.666 -94.5 -267.999 -94.5h-280zM389.998 621h-183v-532h183c83.333 0 149.5 24 198.5 72s73.5 112.667 73.5 194
c0 84.667 -24.5 150.167 -73.5 196.5s-115.167 69.5 -198.5 69.5z" />
    <glyph glyph-name="uni0045" unicode="E" horiz-adv-x="749" 
d="M110 0v710h556v-90h-460v-198h275v-90h-275v-242h500v-90h-596z" />
    <glyph glyph-name="uni0046" unicode="F" horiz-adv-x="724" 
d="M110 0v710h576v-91h-479v-197h279v-91h-279v-331h-97z" />
    <glyph glyph-name="uni0047" unicode="G" horiz-adv-x="847" 
d="M758 398l-0.000976562 -299.999c-37.333 -37.333 -83.5 -65 -138.5 -83s-112.167 -27 -171.5 -27c-111.333 0 -202.333 34 -273 102s-106 156.667 -106 266c0 105.333 34 192.666 102 261.999s154 104 258 104c71.333 0 134.833 -15.167 190.5 -45.5
s95.5 -76.166 119.5 -137.499h-101c-46 62 -115.667 93 -209 93c-79.333 0 -142.5 -26.333 -189.5 -79s-70.5 -118.334 -70.5 -197.001c0 -84 26 -151.333 78 -202s119 -76 201 -76c92.667 0 165.334 19.333 218.001 58v175h-280v87h372z" />
    <glyph glyph-name="uni0048" unicode="H" horiz-adv-x="850" 
d="M643 0v313h-436v-313h-97v710h97v-307h436v307h97v-710h-97z" />
    <glyph glyph-name="uni0049" unicode="I" horiz-adv-x="319" 
d="M111 0v710h97v-710h-97z" />
    <glyph glyph-name="uni004A" unicode="J" horiz-adv-x="663" 
d="M556 710v-487c0 -74 -21 -131.5 -63 -172.5s-99.333 -61.5 -172 -61.5c-73.333 0 -130.333 21 -171 63s-61 99 -61 171v189h96v-189c0 -43.333 12 -77.833 36 -103.5s57.333 -38.5 100 -38.5c44 0 78 12.667 102 38s36 60 36 104v487h97z" />
    <glyph glyph-name="uni004B" unicode="K" horiz-adv-x="780" 
d="M632 0l-425 330v-330h-97v710h97v-328l409 328h137l-435 -348l453 -362h-139z" />
    <glyph glyph-name="uni004C" unicode="L" horiz-adv-x="704" 
d="M666 91v-91h-556v710h97v-619h459z" />
    <glyph glyph-name="uni004D" unicode="M" horiz-adv-x="1009" 
d="M260 710l247 -576l247 576h145v-710h-92v626l-271 -630h-67l-269 626v-622h-90v710h150z" />
    <glyph glyph-name="uni004E" unicode="N" horiz-adv-x="860" 
d="M750 710v-715h-69l-478 601v-596h-93v710h118l429 -544v544h93z" />
    <glyph glyph-name="uni004F" unicode="O" horiz-adv-x="872" 
d="M436 -12c-106 0 -193.667 35 -263 105s-104 157.333 -104 262c0 105.333 35.167 192.833 105.5 262.5s157.5 104.5 261.5 104.5c105.333 0 192.833 -35.167 262.5 -105.5s104.5 -157.5 104.5 -261.5c0 -104.667 -35.333 -192 -106 -262s-157.667 -105 -261 -105zM436 78
c78 0 142.003 26.833 192.003 80.5s75 119.167 75 196.5c0 78.667 -25.333 144.5 -76 197.5s-114.334 79.5 -191.001 79.5c-78.667 0 -142.834 -26.667 -192.501 -80s-74.5 -119 -74.5 -197c0 -79.333 25.167 -145.333 75.5 -198s114.166 -79 191.499 -79z" />
    <glyph glyph-name="uni0050" unicode="P" horiz-adv-x="778" 
d="M110 0v710h369c73.333 0 131.5 -16.5 174.5 -49.5s64.5 -84.833 64.5 -155.5c0 -69.333 -22 -121.5 -66 -156.5s-101.667 -52.5 -173 -52.5h-272v-296h-97zM482 620l-275 0.000976562v-234h275c40.667 0 73.5 9.66699 98.5 29s37.5 48.666 37.5 87.999
c0 78 -45.333 117 -136 117z" />
    <glyph glyph-name="uni0051" unicode="Q" horiz-adv-x="872" 
d="M803 355c0 -76 -19.833 -144.333 -59.5 -205s-94.167 -105.667 -163.5 -135l184 -167h-132l-160 142c-2 0 -5 -0.333008 -9 -1s-7 -1 -9 -1c-83.333 0 -155.833 18.5 -217.5 55.5s-108.167 92.5 -139.5 166.5c-18.667 44 -28 92.333 -28 145
c0 105.333 35.167 192.833 105.5 262.5s157.5 104.5 261.5 104.5c105.333 0 192.833 -35.167 262.5 -105.5s104.5 -157.5 104.5 -261.5zM436 78c78 0 142.003 26.833 192.003 80.5s75 119.167 75 196.5c0 78.667 -25.333 144.5 -76 197.5s-114.334 79.5 -191.001 79.5
c-78.667 0 -142.834 -26.667 -192.501 -80s-74.5 -119 -74.5 -197c0 -79.333 25.167 -145.333 75.5 -198s114.166 -79 191.499 -79z" />
    <glyph glyph-name="uni0052" unicode="R" horiz-adv-x="803" 
d="M110 0v710h377c156 0 234 -67 234 -201c0 -97.333 -48.333 -158.333 -145 -183l172 -326h-103l-170 316h-268v-316h-97zM484 620l-277 0.000976562v-215h277c91.333 0 137 34.667 137 104c0 41.333 -12 70.166 -36 86.499s-57.667 24.5 -101 24.5z" />
    <glyph glyph-name="uni0053" unicode="S" horiz-adv-x="752" 
d="M346 633c-20 0 -38.8311 -1.33105 -56.498 -3.99805s-35.834 -7.5 -54.501 -14.5s-33.5 -17.833 -44.5 -32.5s-16.5 -32.667 -16.5 -54c0 -57.333 45.333 -91.333 136 -102l139 -16c70.667 -7.33301 127.167 -28 169.5 -62s63.5 -83.667 63.5 -149
c0 -38 -8.66699 -71.333 -26 -100s-40.5 -50.834 -69.5 -66.501s-59.667 -27.167 -92 -34.5s-66.166 -11 -101.499 -11c-84 0 -156.167 17.5 -216.5 52.5s-101.833 89.5 -124.5 163.5h104c38.667 -84.667 117.667 -127 237 -127c20.667 0 41.167 1.83301 61.5 5.5
s40.833 9.5 61.5 17.5s37.334 20.167 50.001 36.5s19 35.833 19 58.5s-3.66699 41.5 -11 56.5s-18.833 26.667 -34.5 35s-30.334 14.333 -44.001 18s-31.834 7.16699 -54.501 10.5l-140 15c-64.667 6 -118.167 25.667 -160.5 59s-63.5 80 -63.5 140
c0 45.333 14.5 83.166 43.5 113.499s62.833 51.333 101.5 63s80 17.5 124 17.5c78 0 146 -15.167 204 -45.5s96.333 -79.5 115 -147.5h-101c-34.667 69.333 -107.334 104 -218.001 104z" />
    <glyph glyph-name="uni0054" unicode="T" horiz-adv-x="767" 
d="M40 620v90h687v-90h-295v-620h-97v620h-295z" />
    <glyph glyph-name="uni0055" unicode="U" horiz-adv-x="841" 
d="M421 81c68 0 121.167 21.001 159.5 63.001s57.5 96.667 57.5 164v402h96v-410c0 -94.667 -28.833 -170.334 -86.5 -227.001s-133.167 -85 -226.5 -85c-98 0 -174.833 28 -230.5 84s-83.5 132 -83.5 228v410h97v-402c0 -69.333 19.333 -124.5 58 -165.5
s91.667 -61.5 159 -61.5z" />
    <glyph glyph-name="uni0056" unicode="V" horiz-adv-x="797" 
d="M759 710l-312 -713h-91l-318 713h110l256 -587l256 587h99z" />
    <glyph glyph-name="uni0057" unicode="W" horiz-adv-x="1129" 
d="M765 -4l-199 562l-200 -562h-79l-244 714h105l184 -557l196 561h81l197 -566l186 562h94l-237 -714h-84z" />
    <glyph glyph-name="uni0058" unicode="X" horiz-adv-x="813" 
d="M657 0l-254 292l-253 -292h-116l310 360l-304 350h128l239 -278l240 278h119l-300 -346l313 -364h-122z" />
    <glyph glyph-name="uni0059" unicode="Y" horiz-adv-x="765" 
d="M434 302v-302h-97v300l-322 410h123l250 -321l249 321h113z" />
    <glyph glyph-name="uni005A" unicode="Z" horiz-adv-x="782" 
d="M737 90v-90h-682v57l482 563h-472v90h622v-57l-486 -563h536z" />
    <glyph glyph-name="uni0061" unicode="a" horiz-adv-x="659" 
d="M474 0l-0.000976562 85c-16 -31.333 -39.833 -55.333 -71.5 -72s-66.167 -25 -103.5 -25c-72.667 0 -131 25 -175 75s-66 111.333 -66 184c0 73.333 22.333 134.833 67 184.5s102.667 74.5 174 74.5c68.667 0 121.334 -22.667 158.001 -68c9.33301 -13.333 15 -22 17 -26
v82h91v-494h-91zM475.999 247c0 50 -14.667 91.667 -44 125s-68 50 -116 50c-49.333 0 -89 -16.833 -119 -50.5s-45 -75.167 -45 -124.5c0 -52.667 15 -94 45 -124c30 -34 69.667 -51 119 -51c48 0 86.667 17 116 51s44 75.333 44 124z" />
    <glyph glyph-name="uni0062" unicode="b" horiz-adv-x="665" 
d="M184 80v-80.001h-90v736h90v-326c15.333 30.667 40 54.334 74 71.001s69.333 25 106 25c74 0 133 -24.667 177 -74s66 -111 66 -185s-22.333 -135.667 -67 -185s-103.334 -74 -176.001 -74c-30 0 -60.167 6 -90.5 18s-54.166 28.667 -71.499 50
c-9.33301 10 -15.333 18 -18 24zM182 246.999c0 -52 15.333 -93.333 46 -124c30 -34 70 -51 120 -51c49.333 0 89.333 16.833 120 50.5s46 75.167 46 124.5c0 51.333 -15.333 93.333 -46 126s-70.667 49 -120 49c-50 0 -90.167 -16.667 -120.5 -50s-45.5 -75 -45.5 -125z
" />
    <glyph glyph-name="uni0063" unicode="c" horiz-adv-x="594" 
d="M543 340h-91.999c-27.333 54.667 -75.333 82 -144 82c-46.667 0 -84.334 -17.333 -113.001 -52s-43 -75.667 -43 -123s14.667 -88.333 44 -123s67 -52 113 -52c68.667 0 117 27.333 145 82h90c-3.33301 -29.333 -21 -61.333 -53 -96
c-44.667 -46.667 -105.334 -70 -182.001 -70c-71.333 0 -131 25.333 -179 76s-72 111.667 -72 183c0 72 24 133.167 72 183.5s107.333 75.5 178 75.5c56.667 0 107.334 -14.5 152.001 -43.5s72.667 -69.833 84 -122.5z" />
    <glyph glyph-name="uni0064" unicode="d" horiz-adv-x="667" 
d="M482 0v84.998c-2 -3.33301 -7.66699 -11.666 -17 -24.999c-18.667 -23.333 -42.667 -41.166 -72 -53.499s-59.666 -18.5 -90.999 -18.5c-73.333 0 -132.333 24.833 -177 74.5s-67 111.167 -67 184.5c0 74.667 22.5 136.5 67.5 185.5s103.833 73.5 176.5 73.5
c31.333 0 61.666 -5.66699 90.999 -17s53 -28.333 71 -51c9.33301 -12 15.333 -20.667 18 -26v324h91v-736h-91zM484 246.998c0 50.667 -15.168 92.5 -45.501 125.5s-70.166 49.5 -119.499 49.5c-50.667 0 -91.167 -16.667 -121.5 -50s-45.5 -75 -45.5 -125
c0 -50.667 15.5 -92.5 46.5 -125.5s71.167 -49.5 120.5 -49.5c50 0 90 16.833 120 50.5s45 75.167 45 124.5z" />
    <glyph glyph-name="uni0065" unicode="e" horiz-adv-x="612" 
d="M308 506c77.333 0 138.665 -25.833 183.998 -77.5s68 -115.834 68 -192.501h-411c1.33301 -32.667 11.333 -63.167 30 -91.5s42.667 -48.166 72 -59.499c19.333 -8.66699 41.333 -13 66 -13c29.333 0 58.333 5.83301 87 17.5s48.667 28.834 60 51.501h90
c-5.33301 -30 -20.666 -56.833 -45.999 -80.5s-53.666 -41.834 -84.999 -54.501c-28.667 -12 -64 -18 -106 -18c-74.667 0 -136.667 24.667 -186 74s-74 111 -74 185s23.667 135.667 71 185s107.333 74 180 74zM307.999 428c-38.667 0 -71.5 -10 -98.5 -30
s-45.167 -48.667 -54.5 -86h304c-11.333 36.667 -30 65.167 -56 85.5s-57.667 30.5 -95 30.5z" />
    <glyph glyph-name="uni0066" unicode="f" horiz-adv-x="489" 
d="M459 412h-192v-412h-91v412h-146v82h146v78c0 109.333 58.667 164 176 164h199v-82h-189c-63.333 0 -95 -31.667 -95 -95v-65h192v-82z" />
    <glyph glyph-name="uni0067" unicode="g" horiz-adv-x="667" 
d="M482 0v84c-2 -4 -7.66699 -12.667 -17 -26c-38.667 -47.333 -93 -71 -163 -71c-73.333 0 -132.333 24.833 -177 74.5s-67 111.167 -67 184.5c0 74.667 22.5 136.667 67.5 186s103.833 74 176.5 74c70.667 0 124.667 -23 162 -69c9.33301 -12 15.333 -20.667 18 -26v83h91
v-494c0 -76.667 -24 -135.167 -72 -175.5s-110.333 -60.5 -187 -60.5c-81.333 0 -146.333 22 -195 66c-29.333 27.333 -48.333 57.333 -57 90h100c32 -48 82.667 -72 152 -72c52 0 93 12.667 123 38s45 63.333 45 114zM484 246c0 49.333 -15.001 91.333 -45.001 126
c-33.333 33.333 -73.333 50 -120 50c-50.667 0 -91.167 -16.667 -121.5 -50s-45.5 -75.333 -45.5 -126c0 -50 15.667 -91.667 47 -125s71.333 -50 120 -50s88.334 17 119.001 51s46 75.333 46 124z" />
    <glyph glyph-name="uni0068" unicode="h" horiz-adv-x="652" 
d="M185 267l0.00195312 -266.999h-91v736h91v-333c16 31.333 39.167 56.166 69.5 74.499s63.166 27.5 98.499 27.5c60.667 0 111.667 -20.667 153 -62c38.667 -43.333 58 -96.333 58 -159v-284h-92v267c0 45.333 -12.333 82.333 -37 111s-59.334 43 -104.001 43
s-80.167 -14.667 -106.5 -44s-39.5 -66 -39.5 -110z" />
    <glyph glyph-name="uni0069" unicode="i" horiz-adv-x="281" 
d="M93 589v143h95v-143h-95zM95 0v494h91v-494h-91z" />
    <glyph glyph-name="uni006A" unicode="j" horiz-adv-x="281" 
d="M93 589v143h95v-143h-95zM186 494v-547c0 -114 -56 -171 -168 -171h-133v85h118c61.333 0 92 32 92 96v537h91z" />
    <glyph glyph-name="uni006B" unicode="k" horiz-adv-x="591" 
d="M454 0l-272 228v-228h-88v736h88v-451l258 209h130l-292 -233l305 -261h-129z" />
    <glyph glyph-name="uni006C" unicode="l" horiz-adv-x="283" 
d="M96 0v736h91v-736h-91z" />
    <glyph glyph-name="uni006D" unicode="m" horiz-adv-x="1019" 
d="M185 267v-266.998h-91v494h91v-91c16 31.333 38.833 56.166 68.5 74.499s62.167 27.5 97.5 27.5c42.667 0 80.334 -10.333 113.001 -31s57.334 -50.334 74.001 -89.001c15.333 36 39.666 65 72.999 87s69.666 33 108.999 33c60.667 0 111.667 -20.667 153 -62
c38.667 -43.333 58 -96.333 58 -159v-284h-92v267c0 44.667 -11.833 81.5 -35.5 110.5s-57.5 43.5 -101.5 43.5s-79 -14.667 -105 -44s-39 -66 -39 -110v-267h-92v267c0 44.667 -11.833 81.5 -35.5 110.5s-57.5 43.5 -101.5 43.5s-79 -14.667 -105 -44s-39 -66 -39 -110z
" />
    <glyph glyph-name="uni006E" unicode="n" horiz-adv-x="652" 
d="M185 267l0.00195312 -266.999h-91v494h91v-91c16 31.333 39.167 56.166 69.5 74.499s63.166 27.5 98.499 27.5c60.667 0 111.667 -20.667 153 -62c38.667 -43.333 58 -96.333 58 -159v-284h-92v267c0 45.333 -12.333 82.333 -37 111s-59.334 43 -104.001 43
s-80.167 -14.667 -106.5 -44s-39.5 -66 -39.5 -110z" />
    <glyph glyph-name="uni006F" unicode="o" horiz-adv-x="634" 
d="M317 506c74 0 135.833 -24.833 185.5 -74.5s74.5 -111.167 74.5 -184.5s-25.167 -134.833 -75.5 -184.5s-111.833 -74.5 -184.5 -74.5c-74 0 -135.833 25 -185.5 75s-74.5 111.333 -74.5 184c0 74 25 135.667 75 185s111.667 74 185 74zM317 72
c49.333 0 89.333 17 120 51s46 75.333 46 124c0 50 -15.5 91.667 -46.5 125s-70.833 50 -119.5 50c-49.333 0 -89.333 -16.833 -120 -50.5s-46 -75.167 -46 -124.5s15.667 -90.833 47 -124.5s71 -50.5 119 -50.5z" />
    <glyph glyph-name="uni0070" unicode="p" horiz-adv-x="665" 
d="M184 80v-304h-90v718h90v-85c15.333 30.667 40 54.5 74 71.5s69.333 25.5 106 25.5c74 0 133 -24.667 177 -74s66 -111 66 -185c0 -74.667 -22.333 -136.5 -67 -185.5s-103.334 -73.5 -176.001 -73.5c-30 0 -60.167 6 -90.5 18s-54.166 28.667 -71.499 50
c-9.33301 10 -15.333 18 -18 24zM182 247c0 -52 15.332 -93.334 45.999 -124.001c30 -34 70 -51 120 -51c49.333 0 89.333 16.833 120 50.5s46 75.167 46 124.5c0 48.667 -15 90.334 -45 125.001c-33.333 33.333 -73.666 50 -120.999 50c-50 0 -90.167 -16.667 -120.5 -50
s-45.5 -75 -45.5 -125z" />
    <glyph glyph-name="uni0071" unicode="q" horiz-adv-x="667" 
d="M482 -223l-0.000976562 307.998c-2 -3.33301 -7.66699 -11.666 -17 -24.999c-18.667 -23.333 -42.667 -41.166 -72 -53.499s-59.666 -18.5 -90.999 -18.5c-73.333 0 -132.333 24.833 -177 74.5s-67 111.167 -67 184.5c0 74.667 22.5 136.5 67.5 185.5
s103.833 73.5 176.5 73.5c35.333 0 70.5 -8.33301 105.5 -25s59.833 -39.667 74.5 -69v82h91v-717h-91zM483.999 246.998c0 50 -15.333 91.667 -46 125s-70.334 50 -119.001 50c-50 0 -90.333 -16.667 -121 -50s-46 -75 -46 -125c0 -52 15.333 -93.333 46 -124
c30 -34 70.333 -51 121 -51c48.667 0 88.334 17 119.001 51s46 75.333 46 124z" />
    <glyph glyph-name="uni0072" unicode="r" horiz-adv-x="514" 
d="M185 279l-0.000976562 -279h-91v494h91v-91c2.66699 8 8.33398 18 17.001 30c14 22.667 35.5 39.167 64.5 49.5s59.167 15.5 90.5 15.5h124v-91h-126c-54.667 0 -96.667 -8.83301 -126 -26.5s-44 -51.5 -44 -101.5z" />
    <glyph glyph-name="uni0073" unicode="s" horiz-adv-x="565" 
d="M331 205l-106.003 11.999c-47.333 4.66699 -86.166 19.167 -116.499 43.5s-45.5 58.833 -45.5 103.5c0 34 11.167 62.333 33.5 85s48 38.167 77 46.5s59.833 12.5 92.5 12.5c35.333 0 68.166 -4 98.499 -12s58.5 -22.5 84.5 -43.5s44 -47.833 54 -80.5h-97
c-0.666992 0.666992 -5 5.66699 -13 15c-34 28.667 -76.333 43 -127 43c-27.333 0 -53 -4.66699 -77 -14s-36 -25.666 -36 -48.999c0 -36.667 28 -58 84 -64c18.667 -2.66699 36 -4.66699 52 -6c32 -2 59.5 -5.33301 82.5 -10s45.833 -12.5 68.5 -23.5s40 -27.167 52 -48.5
s18 -48 18 -80c0 -26.667 -6.66699 -50.167 -20 -70.5s-31.166 -36 -53.499 -47s-45.333 -19 -69 -24s-48.167 -7.5 -73.5 -7.5c-56 0 -107.667 13 -155 39s-77.666 63.667 -90.999 113h97c3.33301 -13.333 13.833 -26 31.5 -38s34.834 -20.333 51.501 -25
c18 -6 40 -9 66 -9c18 0 35.5 1.5 52.5 4.5s33.333 10 49 21s23.5 25.5 23.5 43.5c0 24 -7.83301 40.833 -23.5 50.5s-37.167 16.167 -64.5 19.5z" />
    <glyph glyph-name="uni0074" unicode="t" horiz-adv-x="516" 
d="M466 84l0.000976562 -84.001h-117c-115.333 0 -173 55 -173 165v247h-146v82h146v216h91v-216h199v-82h-199v-226c0 -37.333 7.66699 -63.666 23 -78.999s41.666 -23 78.999 -23h97z" />
    <glyph glyph-name="uni0075" unicode="u" horiz-adv-x="639" 
d="M320 -11c-67.333 0 -122.832 20.167 -166.499 60.5s-65.5 93.5 -65.5 159.5v285h91v-268c0 -45.333 12.167 -82 36.5 -110s58.833 -42 103.5 -42c45.333 0 80 13.833 104 41.5s36 64.5 36 110.5v268h92v-285c0 -67.333 -21.833 -120.833 -65.5 -160.5
s-98.834 -59.5 -165.501 -59.5z" />
    <glyph glyph-name="uni0076" unicode="v" horiz-adv-x="581" 
d="M558 494l-229 -503h-73l-233 503h102l170 -381l169 381h94z" />
    <glyph glyph-name="uni0077" unicode="w" horiz-adv-x="869" 
d="M582 -4l-146 373l-146 -373h-73l-189 498h98l134 -365l142 369h76l141 -365l132 361h90l-187 -498h-72z" />
    <glyph glyph-name="uni0078" unicode="x" horiz-adv-x="602" 
d="M467 0l-166 185l-167 -185h-110l222 246l-223 248h118l162 -183l165 183h111l-221 -245l221 -249h-112z" />
    <glyph glyph-name="uni0079" unicode="y" horiz-adv-x="581" 
d="M558 494l-324 -718h-93l106 235l-224 483h103l169 -376l169 376h94z" />
    <glyph glyph-name="uni007A" unicode="z" horiz-adv-x="606" 
d="M562 81v-81h-506v53l329 360h-321v81h462v-51l-334 -362h370z" />
    <glyph glyph-name="uni00A0" unicode="&#xa0;" horiz-adv-x="265" 
 />
    <glyph glyph-name="uni00C0" unicode="&#xc0;" horiz-adv-x="800" 
d="M665 0l-79 171h-378l-79 -171h-96l328 714h77l329 -714h-102zM248 259h298l-149 324zM450 778h-102l-120 150h110z" />
    <glyph glyph-name="uni00C1" unicode="&#xc1;" horiz-adv-x="800" 
d="M665 0l-79 171h-378l-79 -171h-96l328 714h77l329 -714h-102zM248 259h298l-149 324zM349 778l112 150h110l-120 -150h-102z" />
    <glyph glyph-name="uni00C2" unicode="&#xc2;" horiz-adv-x="800" 
d="M665 0l-79 171h-378l-79 -171h-96l328 714h77l329 -714h-102zM248 259h298l-149 324zM480 775l-80 89l-81 -89h-98l139 156h78l136 -156h-94z" />
    <glyph glyph-name="uni00C3" unicode="&#xc3;" horiz-adv-x="800" 
d="M665 0l-79 171h-378l-79 -171h-96l328 714h77l329 -714h-102zM248 259h298l-149 324zM395 816l-37.999 22c-9.33301 5.33301 -16 9 -20 11c-6 2.66699 -12 4 -18 4c-11.333 0 -17 -8 -17 -24v-56h-73v66c0 62.667 25.667 94 77 94c16.667 0 33 -3.66699 49 -11
c15.333 -8 31.333 -17 48 -27l38 -22c16 -10 28.333 -15 37 -15c12 0 18 8 18 24v56h73v-66c0 -28 -6.33301 -50.667 -19 -68s-32.334 -26 -59.001 -26c-18 0 -34 4 -48 12c-12 6 -28 14.667 -48 26z" />
    <glyph glyph-name="uni00C4" unicode="&#xc4;" horiz-adv-x="800" 
d="M665 0l-79 171h-378l-79 -171h-96l328 714h77l329 -714h-102zM248 259h298l-149 324zM251 778v139h92v-139h-92zM455 778v139h92v-139h-92z" />
    <glyph glyph-name="uni00C5" unicode="&#xc5;" horiz-adv-x="800" 
d="M665 0l-79 171h-378l-79 -171h-96l328 714h77l329 -714h-102zM248 259h298l-149 324zM399 768c-36 0 -66.833 12.167 -92.5 36.5s-38.5 54.5 -38.5 90.5c0 36.667 12.833 67 38.5 91s56.5 36 92.5 36c36.667 0 67.667 -12.167 93 -36.5s38 -54.5 38 -90.5
c0 -36.667 -12.833 -67 -38.5 -91s-56.5 -36 -92.5 -36zM399 830c18.667 0 34 6 46 18s18 27.667 18 47c0 18 -5.66699 33.667 -17 47c-12 12 -27.667 18 -47 18c-18.667 0 -34 -6 -46 -18s-18 -27.667 -18 -47c0 -18.667 6 -34.167 18 -46.5s27.333 -18.5 46 -18.5z" />
    <glyph glyph-name="uni00C6" unicode="&#xc6;" horiz-adv-x="1160" 
d="M1117 90v-90h-575v183h-305l-127 -183h-110l497 710h580v-90h-439v-198h254v-90h-254v-242h479zM297 269h245v354z" />
    <glyph glyph-name="uni00C7" unicode="&#xc7;" horiz-adv-x="809" 
d="M475 -156c0 22.667 -13.668 34.001 -41.001 34.001h-86v117c-84 17.333 -151.5 60 -202.5 128s-76.5 145.333 -76.5 232c0 103.333 33.333 190.333 100 261s150.334 106 251.001 106c75.333 0 143.666 -19.333 204.999 -58s102 -92.667 122 -162h-101
c-18.667 40.667 -49.167 72.334 -91.5 95.001s-87.166 34 -134.499 34c-75.333 0 -135.833 -27 -181.5 -81s-68.5 -119 -68.5 -195c0 -76.667 23 -141.834 69 -195.501s106.333 -80.5 181 -80.5c104.667 0 180.667 43.333 228 130h99
c-17.333 -68.667 -56.333 -122.334 -117 -161.001s-128 -58.667 -202 -60v-43h14c80 0 120 -33.667 120 -101c0 -35.333 -10.5 -62.333 -31.5 -81s-49.5 -28 -85.5 -28h-137v74h126c27.333 0 41 11.667 41 35z" />
    <glyph glyph-name="uni00C8" unicode="&#xc8;" horiz-adv-x="749" 
d="M110 0v710h556v-90h-460v-198h275v-90h-275v-242h500v-90h-596zM450 778h-102l-120 150h110z" />
    <glyph glyph-name="uni00C9" unicode="&#xc9;" horiz-adv-x="749" 
d="M110 0v710h556v-90h-460v-198h275v-90h-275v-242h500v-90h-596zM337 778l112 150h110l-120 -150h-102z" />
    <glyph glyph-name="uni00CA" unicode="&#xca;" horiz-adv-x="749" 
d="M110 0v710h556v-90h-460v-198h275v-90h-275v-242h500v-90h-596zM480 775l-80 89l-81 -89h-98l139 156h78l136 -156h-94z" />
    <glyph glyph-name="uni00CB" unicode="&#xcb;" horiz-adv-x="749" 
d="M110 0v710h556v-90h-460v-198h275v-90h-275v-242h500v-90h-596zM251 778v139h92v-139h-92zM455 778v139h92v-139h-92z" />
    <glyph glyph-name="uni00CC" unicode="&#xcc;" horiz-adv-x="319" 
d="M111 0v710h97v-710h-97zM210 778h-102l-120 150h110z" />
    <glyph glyph-name="uni00CD" unicode="&#xcd;" horiz-adv-x="319" 
d="M111 0v710h97v-710h-97zM109 778l112 150h110l-120 -150h-102z" />
    <glyph glyph-name="uni00CE" unicode="&#xce;" horiz-adv-x="319" 
d="M111 0v710h97v-710h-97zM240 775l-80 89l-81 -89h-98l139 156h78l136 -156h-94z" />
    <glyph glyph-name="uni00CF" unicode="&#xcf;" horiz-adv-x="319" 
d="M111 0v710h97v-710h-97zM11 778v139h92v-139h-92zM215 778v139h92v-139h-92z" />
    <glyph glyph-name="uni00D1" unicode="&#xd1;" horiz-adv-x="860" 
d="M750 710v-715h-69l-478 601v-596h-93v710h118l429 -544v544h93zM438 816l-37.999 22c-9.33301 5.33301 -16 9 -20 11c-6 2.66699 -12 4 -18 4c-11.333 0 -17 -8 -17 -24v-56h-73v66c0 62.667 25.667 94 77 94c16.667 0 33 -3.66699 49 -11l48 -27l38 -22
c16 -10 28.333 -15 37 -15c12 0 18 8 18 24v56h73v-66c0 -28 -6.33301 -50.667 -19 -68s-32.334 -26 -59.001 -26c-18 0 -34 4 -48 12c-12 6 -28 14.667 -48 26z" />
    <glyph glyph-name="uni00D2" unicode="&#xd2;" horiz-adv-x="872" 
d="M436 -12c-106 0 -193.667 35 -263 105s-104 157.333 -104 262c0 105.333 35.167 192.833 105.5 262.5s157.5 104.5 261.5 104.5c105.333 0 192.833 -35.167 262.5 -105.5s104.5 -157.5 104.5 -261.5c0 -104.667 -35.333 -192 -106 -262s-157.667 -105 -261 -105zM436 78
c78 0 142.003 26.833 192.003 80.5s75 119.167 75 196.5c0 78.667 -25.333 144.5 -76 197.5s-114.334 79.5 -191.001 79.5c-78.667 0 -142.834 -26.667 -192.501 -80s-74.5 -119 -74.5 -197c0 -79.333 25.167 -145.333 75.5 -198s114.166 -79 191.499 -79zM487.003 778h-102
l-120 150h110z" />
    <glyph glyph-name="uni00D3" unicode="&#xd3;" horiz-adv-x="872" 
d="M436 -12c-106 0 -193.667 35 -263 105s-104 157.333 -104 262c0 105.333 35.167 192.833 105.5 262.5s157.5 104.5 261.5 104.5c105.333 0 192.833 -35.167 262.5 -105.5s104.5 -157.5 104.5 -261.5c0 -104.667 -35.333 -192 -106 -262s-157.667 -105 -261 -105zM436 78
c78 0 142.003 26.833 192.003 80.5s75 119.167 75 196.5c0 78.667 -25.333 144.5 -76 197.5s-114.334 79.5 -191.001 79.5c-78.667 0 -142.834 -26.667 -192.501 -80s-74.5 -119 -74.5 -197c0 -79.333 25.167 -145.333 75.5 -198s114.166 -79 191.499 -79zM386.003 778
l112 150h110l-120 -150h-102z" />
    <glyph glyph-name="uni00D4" unicode="&#xd4;" horiz-adv-x="872" 
d="M436 -12c-106 0 -193.667 35 -263 105s-104 157.333 -104 262c0 105.333 35.167 192.833 105.5 262.5s157.5 104.5 261.5 104.5c105.333 0 192.833 -35.167 262.5 -105.5s104.5 -157.5 104.5 -261.5c0 -104.667 -35.333 -192 -106 -262s-157.667 -105 -261 -105zM436 78
c78 0 142.003 26.833 192.003 80.5s75 119.167 75 196.5c0 78.667 -25.333 144.5 -76 197.5s-114.334 79.5 -191.001 79.5c-78.667 0 -142.834 -26.667 -192.501 -80s-74.5 -119 -74.5 -197c0 -79.333 25.167 -145.333 75.5 -198s114.166 -79 191.499 -79zM517.003 775
l-80 89l-81 -89h-98l139 156h78l136 -156h-94z" />
    <glyph glyph-name="uni00D5" unicode="&#xd5;" horiz-adv-x="872" 
d="M436 -12c-106 0 -193.667 35 -263 105s-104 157.333 -104 262c0 105.333 35.167 192.833 105.5 262.5s157.5 104.5 261.5 104.5c105.333 0 192.833 -35.167 262.5 -105.5s104.5 -157.5 104.5 -261.5c0 -104.667 -35.333 -192 -106 -262s-157.667 -105 -261 -105zM436 78
c78 0 142.003 26.833 192.003 80.5s75 119.167 75 196.5c0 78.667 -25.333 144.5 -76 197.5s-114.334 79.5 -191.001 79.5c-78.667 0 -142.834 -26.667 -192.501 -80s-74.5 -119 -74.5 -197c0 -79.333 25.167 -145.333 75.5 -198s114.166 -79 191.499 -79zM432.003 816
l-37.999 22c-9.33301 5.33301 -16 9 -20 11c-6 2.66699 -12 4 -18 4c-11.333 0 -17 -8 -17 -24v-56h-73v66c0 62.667 25.667 94 77 94c16.667 0 33 -3.66699 49 -11l48 -27l38 -22c16 -10 28.333 -15 37 -15c12 0 18 8 18 24v56h73v-66c0 -28 -6.33301 -50.667 -19 -68
s-32.334 -26 -59.001 -26c-18 0 -34 4 -48 12c-12 6 -28 14.667 -48 26z" />
    <glyph glyph-name="uni00D6" unicode="&#xd6;" horiz-adv-x="872" 
d="M436 -12c-106 0 -193.667 35 -263 105s-104 157.333 -104 262c0 105.333 35.167 192.833 105.5 262.5s157.5 104.5 261.5 104.5c105.333 0 192.833 -35.167 262.5 -105.5s104.5 -157.5 104.5 -261.5c0 -104.667 -35.333 -192 -106 -262s-157.667 -105 -261 -105zM436 78
c78 0 142.003 26.833 192.003 80.5s75 119.167 75 196.5c0 78.667 -25.333 144.5 -76 197.5s-114.334 79.5 -191.001 79.5c-78.667 0 -142.834 -26.667 -192.501 -80s-74.5 -119 -74.5 -197c0 -79.333 25.167 -145.333 75.5 -198s114.166 -79 191.499 -79zM288.003 778v139
h92v-139h-92zM492.003 778v139h92v-139h-92z" />
    <glyph glyph-name="uni00D9" unicode="&#xd9;" horiz-adv-x="841" 
d="M421 81c68 0 121.167 21.001 159.5 63.001s57.5 96.667 57.5 164v402h96v-410c0 -94.667 -28.833 -170.334 -86.5 -227.001s-133.167 -85 -226.5 -85c-98 0 -174.833 28 -230.5 84s-83.5 132 -83.5 228v410h97v-402c0 -69.333 19.333 -124.5 58 -165.5
s91.667 -61.5 159 -61.5zM486 778.001h-102l-120 150h110z" />
    <glyph glyph-name="uni00DA" unicode="&#xda;" horiz-adv-x="841" 
d="M421 81c68 0 121.167 21.001 159.5 63.001s57.5 96.667 57.5 164v402h96v-410c0 -94.667 -28.833 -170.334 -86.5 -227.001s-133.167 -85 -226.5 -85c-98 0 -174.833 28 -230.5 84s-83.5 132 -83.5 228v410h97v-402c0 -69.333 19.333 -124.5 58 -165.5
s91.667 -61.5 159 -61.5zM356 778.001l112 150h110l-120 -150h-102z" />
    <glyph glyph-name="uni00DB" unicode="&#xdb;" horiz-adv-x="841" 
d="M421 81c68 0 121.167 21.001 159.5 63.001s57.5 96.667 57.5 164v402h96v-410c0 -94.667 -28.833 -170.334 -86.5 -227.001s-133.167 -85 -226.5 -85c-98 0 -174.833 28 -230.5 84s-83.5 132 -83.5 228v410h97v-402c0 -69.333 19.333 -124.5 58 -165.5
s91.667 -61.5 159 -61.5zM502 775.001l-80 89l-81 -89h-98l139 156h78l136 -156h-94z" />
    <glyph glyph-name="uni00DC" unicode="&#xdc;" horiz-adv-x="841" 
d="M421 81c68 0 121.167 21.001 159.5 63.001s57.5 96.667 57.5 164v402h96v-410c0 -94.667 -28.833 -170.334 -86.5 -227.001s-133.167 -85 -226.5 -85c-98 0 -174.833 28 -230.5 84s-83.5 132 -83.5 228v410h97v-402c0 -69.333 19.333 -124.5 58 -165.5
s91.667 -61.5 159 -61.5zM273 778.001v139h92v-139h-92zM477 778.001v139h92v-139h-92z" />
    <glyph glyph-name="uni00DD" unicode="&#xdd;" horiz-adv-x="765" 
d="M434 302v-302h-97v300l-322 410h123l250 -321l249 321h113zM329 778l112 150h110l-120 -150h-102z" />
    <glyph glyph-name="uni00DF" unicode="&#xdf;" horiz-adv-x="648" 
d="M186 528l-0.00195312 -527.999h-92v534c0 70 19.833 123.167 59.5 159.5s94.834 54.5 165.501 54.5c66.667 0 121.167 -16.667 163.5 -50s63.5 -81.666 63.5 -144.999c0 -61.333 -20 -104.666 -60 -129.999c-11.333 -8 -22.666 -13.667 -33.999 -17
c43.333 -11.333 77.333 -34 102 -68s37 -73.667 37 -119c0 -70.667 -21.167 -124.834 -63.5 -162.501s-98.5 -56.5 -168.5 -56.5h-81v83h64c46.667 0 84.167 11.333 112.5 34s42.5 56.667 42.5 102c0 46 -14 80.167 -42 102.5s-65.667 33.5 -113 33.5h-64v81h49
c38 0 68.333 9.66699 91 29s34 47.666 34 84.999s-12.5 65.666 -37.5 84.999s-56.833 29 -95.5 29c-43.333 0 -76.333 -11.833 -99 -35.5s-34 -57.167 -34 -100.5z" />
    <glyph glyph-name="uni00E0" unicode="&#xe0;" horiz-adv-x="659" 
d="M474 0l-0.000976562 85c-16 -31.333 -39.833 -55.333 -71.5 -72s-66.167 -25 -103.5 -25c-72.667 0 -131 25 -175 75s-66 111.333 -66 184c0 73.333 22.333 134.833 67 184.5s102.667 74.5 174 74.5c68.667 0 121.334 -22.667 158.001 -68c9.33301 -13.333 15 -22 17 -26
v82h91v-494h-91zM475.999 247c0 50 -14.667 91.667 -44 125s-68 50 -116 50c-49.333 0 -89 -16.833 -119 -50.5s-45 -75.167 -45 -124.5c0 -52.667 15 -94 45 -124c30 -34 69.667 -51 119 -51c48 0 86.667 17 116 51s44 75.333 44 124zM360.999 579h-93l-115 183h100z" />
    <glyph glyph-name="uni00E1" unicode="&#xe1;" horiz-adv-x="659" 
d="M474 0l-0.000976562 85c-16 -31.333 -39.833 -55.333 -71.5 -72s-66.167 -25 -103.5 -25c-72.667 0 -131 25 -175 75s-66 111.333 -66 184c0 73.333 22.333 134.833 67 184.5s102.667 74.5 174 74.5c68.667 0 121.334 -22.667 158.001 -68c9.33301 -13.333 15 -22 17 -26
v82h91v-494h-91zM475.999 247c0 50 -14.667 91.667 -44 125s-68 50 -116 50c-49.333 0 -89 -16.833 -119 -50.5s-45 -75.167 -45 -124.5c0 -52.667 15 -94 45 -124c30 -34 69.667 -51 119 -51c48 0 86.667 17 116 51s44 75.333 44 124zM259.999 579l108 183h100l-115 -183
h-93z" />
    <glyph glyph-name="uni00E2" unicode="&#xe2;" horiz-adv-x="659" 
d="M474 0l-0.000976562 85c-16 -31.333 -39.833 -55.333 -71.5 -72s-66.167 -25 -103.5 -25c-72.667 0 -131 25 -175 75s-66 111.333 -66 184c0 73.333 22.333 134.833 67 184.5s102.667 74.5 174 74.5c68.667 0 121.334 -22.667 158.001 -68c9.33301 -13.333 15 -22 17 -26
v82h91v-494h-91zM475.999 247c0 50 -14.667 91.667 -44 125s-68 50 -116 50c-49.333 0 -89 -16.833 -119 -50.5s-45 -75.167 -45 -124.5c0 -52.667 15 -94 45 -124c30 -34 69.667 -51 119 -51c48 0 86.667 17 116 51s44 75.333 44 124zM389.999 576l-74 114l-74 -114h-90
l126 193h76l123 -193h-87z" />
    <glyph glyph-name="uni00E3" unicode="&#xe3;" horiz-adv-x="659" 
d="M474 0l-0.000976562 85c-16 -31.333 -39.833 -55.333 -71.5 -72s-66.167 -25 -103.5 -25c-72.667 0 -131 25 -175 75s-66 111.333 -66 184c0 73.333 22.333 134.833 67 184.5s102.667 74.5 174 74.5c68.667 0 121.334 -22.667 158.001 -68c9.33301 -13.333 15 -22 17 -26
v82h91v-494h-91zM475.999 247c0 50 -14.667 91.667 -44 125s-68 50 -116 50c-49.333 0 -89 -16.833 -119 -50.5s-45 -75.167 -45 -124.5c0 -52.667 15 -94 45 -124c30 -34 69.667 -51 119 -51c48 0 86.667 17 116 51s44 75.333 44 124zM226.999 575h-71.999v76
c0 62.667 26.333 94 79 94c19.333 0 35.666 -3.66699 48.999 -11c12 -7.33301 26 -18 42 -32l29 -24c1.33301 -0.666992 4.16602 -2.66699 8.49902 -6s7.5 -5.66602 9.5 -6.99902c5.33301 -3.33301 10.666 -5 15.999 -5c11.333 0 17 7.66699 17 23v67h72v-76
c0 -62.667 -26.333 -94 -79 -94c-18.667 0 -34.667 4 -48 12c-12.667 6.66699 -27 17 -43 31l-29 24c-1.33301 0.666992 -4.16602 2.66699 -8.49902 6s-7.5 5.66602 -9.5 6.99902c-5.33301 3.33301 -10.666 5 -15.999 5c-11.333 0 -17 -7.66699 -17 -23v-67z" />
    <glyph glyph-name="uni00E4" unicode="&#xe4;" horiz-adv-x="659" 
d="M474 0l-0.000976562 85c-16 -31.333 -39.833 -55.333 -71.5 -72s-66.167 -25 -103.5 -25c-72.667 0 -131 25 -175 75s-66 111.333 -66 184c0 73.333 22.333 134.833 67 184.5s102.667 74.5 174 74.5c68.667 0 121.334 -22.667 158.001 -68c9.33301 -13.333 15 -22 17 -26
v82h91v-494h-91zM475.999 247c0 50 -14.667 91.667 -44 125s-68 50 -116 50c-49.333 0 -89 -16.833 -119 -50.5s-45 -75.167 -45 -124.5c0 -52.667 15 -94 45 -124c30 -34 69.667 -51 119 -51c48 0 86.667 17 116 51s44 75.333 44 124zM175.999 589v139h92v-139h-92z
M363.999 589v139h92v-139h-92z" />
    <glyph glyph-name="uni00E5" unicode="&#xe5;" horiz-adv-x="659" 
d="M474 0l-0.000976562 85c-16 -31.333 -39.833 -55.333 -71.5 -72s-66.167 -25 -103.5 -25c-72.667 0 -131 25 -175 75s-66 111.333 -66 184c0 73.333 22.333 134.833 67 184.5s102.667 74.5 174 74.5c68.667 0 121.334 -22.667 158.001 -68c9.33301 -13.333 15 -22 17 -26
v82h91v-494h-91zM475.999 247c0 50 -14.667 91.667 -44 125s-68 50 -116 50c-49.333 0 -89 -16.833 -119 -50.5s-45 -75.167 -45 -124.5c0 -52.667 15 -94 45 -124c30 -34 69.667 -51 119 -51c48 0 86.667 17 116 51s44 75.333 44 124zM315.999 567
c-36 0 -66.833 12.167 -92.5 36.5s-38.5 54.5 -38.5 90.5c0 36.667 12.833 67 38.5 91s56.5 36 92.5 36c36.667 0 67.667 -12.167 93 -36.5s38 -54.5 38 -90.5c0 -36.667 -12.833 -67 -38.5 -91s-56.5 -36 -92.5 -36zM315.999 629c18.667 0 34 6 46 18s18 27.667 18 47
c0 18 -5.66699 33.667 -17 47c-12 12 -27.667 18 -47 18c-18.667 0 -34 -6 -46 -18s-18 -27.667 -18 -47c0 -18.667 6 -34.167 18 -46.5s27.333 -18.5 46 -18.5z" />
    <glyph glyph-name="uni00E6" unicode="&#xe6;" horiz-adv-x="961" 
d="M57 156c0 54 18.835 93.167 56.502 117.5s85.167 36.5 142.5 36.5h161c0 38.667 -12.5 67.834 -37.5 87.501s-57.5 29.5 -97.5 29.5c-24.667 0 -48.667 -5.33301 -72 -16s-39 -26 -47 -46h-92c8.66699 44 34 78.667 76 104s87 38 135 38
c91.333 0 153.666 -30.667 186.999 -92c20 30 47.333 52.833 82 68.5s71 23.5 109 23.5c55.333 0 102.833 -13.833 142.5 -41.5s69.5 -66.834 89.5 -117.501c12 -34.667 17.667 -72 17 -112l-91 1h-316c2 -46.667 18.667 -85.834 50 -117.501s70 -47.5 116 -47.5
c25.333 0 46.333 3 63 9c17.333 5.33301 31.666 12 42.999 20c18.667 12 31.667 25.333 39 40h90c-5.33301 -29.333 -20.5 -56 -45.5 -80s-53.167 -42.333 -84.5 -55c-28.667 -12 -63.667 -18 -105 -18c-43.333 0 -85.333 10.333 -126 31s-71.334 49.334 -92.001 86.001
c-35.333 -77.333 -95.666 -116 -180.999 -116c-57.333 0 -107 14.333 -149 43s-63 70 -63 124zM659.002 428c-38 0 -70.333 -10.333 -97 -31s-44.667 -49.667 -54 -87h301c-10.667 37.333 -28.667 66.333 -54 87s-57.333 31 -96 31zM148.002 156
c0 -30.667 12.167 -53.499 36.5 -68.499s52.5 -22.5 84.5 -22.5c40 0 74.667 10.833 104 32.5s44 51.5 44 89.5v50h-157c-31.333 0 -57.833 -6.33301 -79.5 -19s-32.5 -33.334 -32.5 -62.001z" />
    <glyph glyph-name="uni00E7" unicode="&#xe7;" horiz-adv-x="594" 
d="M543 340l-92.001 -0.000976562c-27.333 54.667 -75.333 82 -144 82c-46.667 0 -84.334 -17.333 -113.001 -52s-43 -75.667 -43 -123s14.667 -88.333 44 -123s67 -52 113 -52c68.667 0 117 27.333 145 82h90c-3.33301 -29.333 -21 -61.333 -53 -96
c-41.333 -44 -99.666 -67.333 -174.999 -70v-43h14c80 0 120 -33.667 120 -101c0 -35.333 -10.5 -62.333 -31.5 -81s-49.5 -28 -85.5 -28h-137v74h126c27.333 0 41 11.667 41 35c0 22.667 -13.667 34 -41 34h-86v121c-51.333 11.333 -93.833 41.833 -127.5 91.5
s-50.5 101.834 -50.5 156.501c0 72 24 133.167 72 183.5s107.333 75.5 178 75.5c56.667 0 107.334 -14.5 152.001 -43.5s72.667 -69.833 84 -122.5z" />
    <glyph glyph-name="uni00E8" unicode="&#xe8;" horiz-adv-x="612" 
d="M308 506c77.333 0 138.665 -25.833 183.998 -77.5s68 -115.834 68 -192.501h-411c1.33301 -32.667 11.333 -63.167 30 -91.5s42.667 -48.166 72 -59.499c19.333 -8.66699 41.333 -13 66 -13c29.333 0 58.333 5.83301 87 17.5s48.667 28.834 60 51.501h90
c-5.33301 -30 -20.666 -56.833 -45.999 -80.5s-53.666 -41.834 -84.999 -54.501c-28.667 -12 -64 -18 -106 -18c-74.667 0 -136.667 24.667 -186 74s-74 111 -74 185s23.667 135.667 71 185s107.333 74 180 74zM307.999 428c-38.667 0 -71.5 -10 -98.5 -30
s-45.167 -48.667 -54.5 -86h304c-11.333 36.667 -30 65.167 -56 85.5s-57.667 30.5 -95 30.5zM352.999 579h-93l-115 183h100z" />
    <glyph glyph-name="uni00E9" unicode="&#xe9;" horiz-adv-x="612" 
d="M308 506c77.333 0 138.665 -25.833 183.998 -77.5s68 -115.834 68 -192.501h-411c1.33301 -32.667 11.333 -63.167 30 -91.5s42.667 -48.166 72 -59.499c19.333 -8.66699 41.333 -13 66 -13c29.333 0 58.333 5.83301 87 17.5s48.667 28.834 60 51.501h90
c-5.33301 -30 -20.666 -56.833 -45.999 -80.5s-53.666 -41.834 -84.999 -54.501c-28.667 -12 -64 -18 -106 -18c-74.667 0 -136.667 24.667 -186 74s-74 111 -74 185s23.667 135.667 71 185s107.333 74 180 74zM307.999 428c-38.667 0 -71.5 -10 -98.5 -30
s-45.167 -48.667 -54.5 -86h304c-11.333 36.667 -30 65.167 -56 85.5s-57.667 30.5 -95 30.5zM251.999 579l108 183h100l-115 -183h-93z" />
    <glyph glyph-name="uni00EA" unicode="&#xea;" horiz-adv-x="612" 
d="M308 506c77.333 0 138.665 -25.833 183.998 -77.5s68 -115.834 68 -192.501h-411c1.33301 -32.667 11.333 -63.167 30 -91.5s42.667 -48.166 72 -59.499c19.333 -8.66699 41.333 -13 66 -13c29.333 0 58.333 5.83301 87 17.5s48.667 28.834 60 51.501h90
c-5.33301 -30 -20.666 -56.833 -45.999 -80.5s-53.666 -41.834 -84.999 -54.501c-28.667 -12 -64 -18 -106 -18c-74.667 0 -136.667 24.667 -186 74s-74 111 -74 185s23.667 135.667 71 185s107.333 74 180 74zM307.999 428c-38.667 0 -71.5 -10 -98.5 -30
s-45.167 -48.667 -54.5 -86h304c-11.333 36.667 -30 65.167 -56 85.5s-57.667 30.5 -95 30.5zM381.999 576l-74 114l-74 -114h-90l126 193h76l123 -193h-87z" />
    <glyph glyph-name="uni00EB" unicode="&#xeb;" horiz-adv-x="612" 
d="M308 506c77.333 0 138.665 -25.833 183.998 -77.5s68 -115.834 68 -192.501h-411c1.33301 -32.667 11.333 -63.167 30 -91.5s42.667 -48.166 72 -59.499c19.333 -8.66699 41.333 -13 66 -13c29.333 0 58.333 5.83301 87 17.5s48.667 28.834 60 51.501h90
c-5.33301 -30 -20.666 -56.833 -45.999 -80.5s-53.666 -41.834 -84.999 -54.501c-28.667 -12 -64 -18 -106 -18c-74.667 0 -136.667 24.667 -186 74s-74 111 -74 185s23.667 135.667 71 185s107.333 74 180 74zM307.999 428c-38.667 0 -71.5 -10 -98.5 -30
s-45.167 -48.667 -54.5 -86h304c-11.333 36.667 -30 65.167 -56 85.5s-57.667 30.5 -95 30.5zM167.999 589v139h92v-139h-92zM355.999 589v139h92v-139h-92z" />
    <glyph glyph-name="uni00EC" unicode="&#xec;" horiz-adv-x="281" 
d="M95 0v494h91v-494h-91zM185 579h-93l-115 183h100z" />
    <glyph glyph-name="uni00ED" unicode="&#xed;" horiz-adv-x="281" 
d="M95 0v494h91v-494h-91zM94 579l108 183h100l-115 -183h-93z" />
    <glyph glyph-name="uni00EE" unicode="&#xee;" horiz-adv-x="281" 
d="M212 576l-72 115l-72 -115h-88l122 193h76l119 -193h-85zM95 0v494h91v-494h-91z" />
    <glyph glyph-name="uni00EF" unicode="&#xef;" horiz-adv-x="281" 
d="M1 589v139h92v-139h-92zM187 589v139h92v-139h-92zM95 0v494h91v-494h-91z" />
    <glyph glyph-name="uni00F1" unicode="&#xf1;" horiz-adv-x="652" 
d="M185 267l0.00195312 -266.999h-91v494h91v-91c16 31.333 39.167 56.166 69.5 74.499s63.166 27.5 98.499 27.5c60.667 0 111.667 -20.667 153 -62c38.667 -43.333 58 -96.333 58 -159v-284h-92v267c0 45.333 -12.333 82.333 -37 111s-59.334 43 -104.001 43
s-80.167 -14.667 -106.5 -44s-39.5 -66 -39.5 -110zM240.002 575.001h-71.999v76c0 62.667 26.333 94 79 94c19.333 0 35.666 -3.66699 48.999 -11c12 -7.33301 26 -18 42 -32l29 -24c1.33301 -0.666992 4.16602 -2.66699 8.49902 -6s7.5 -5.66602 9.5 -6.99902
c5.33301 -3.33301 10.666 -5 15.999 -5c11.333 0 17 7.66699 17 23v67h72v-76c0 -62.667 -26.333 -94 -79 -94c-19.333 0 -35.333 4 -48 12c-12.667 6.66699 -27 17 -43 31l-29 24c-1.33301 0.666992 -4.16602 2.66699 -8.49902 6s-7.5 5.66602 -9.5 6.99902
c-5.33301 3.33301 -10.666 5 -15.999 5c-11.333 0 -17 -7.66699 -17 -23v-67z" />
    <glyph glyph-name="uni00F2" unicode="&#xf2;" horiz-adv-x="634" 
d="M317 506c74 0 135.833 -24.833 185.5 -74.5s74.5 -111.167 74.5 -184.5s-25.167 -134.833 -75.5 -184.5s-111.833 -74.5 -184.5 -74.5c-74 0 -135.833 25 -185.5 75s-74.5 111.333 -74.5 184c0 74 25 135.667 75 185s111.667 74 185 74zM317 72
c49.333 0 89.333 17 120 51s46 75.333 46 124c0 50 -15.5 91.667 -46.5 125s-70.833 50 -119.5 50c-49.333 0 -89.333 -16.833 -120 -50.5s-46 -75.167 -46 -124.5s15.667 -90.833 47 -124.5s71 -50.5 119 -50.5zM362 579h-93l-115 183h100z" />
    <glyph glyph-name="uni00F3" unicode="&#xf3;" horiz-adv-x="634" 
d="M317 506c74 0 135.833 -24.833 185.5 -74.5s74.5 -111.167 74.5 -184.5s-25.167 -134.833 -75.5 -184.5s-111.833 -74.5 -184.5 -74.5c-74 0 -135.833 25 -185.5 75s-74.5 111.333 -74.5 184c0 74 25 135.667 75 185s111.667 74 185 74zM317 72
c49.333 0 89.333 17 120 51s46 75.333 46 124c0 50 -15.5 91.667 -46.5 125s-70.833 50 -119.5 50c-49.333 0 -89.333 -16.833 -120 -50.5s-46 -75.167 -46 -124.5s15.667 -90.833 47 -124.5s71 -50.5 119 -50.5zM261 579l108 183h100l-115 -183h-93z" />
    <glyph glyph-name="uni00F4" unicode="&#xf4;" horiz-adv-x="634" 
d="M317 506c74 0 135.833 -24.833 185.5 -74.5s74.5 -111.167 74.5 -184.5s-25.167 -134.833 -75.5 -184.5s-111.833 -74.5 -184.5 -74.5c-74 0 -135.833 25 -185.5 75s-74.5 111.333 -74.5 184c0 74 25 135.667 75 185s111.667 74 185 74zM317 72
c49.333 0 89.333 17 120 51s46 75.333 46 124c0 50 -15.5 91.667 -46.5 125s-70.833 50 -119.5 50c-49.333 0 -89.333 -16.833 -120 -50.5s-46 -75.167 -46 -124.5s15.667 -90.833 47 -124.5s71 -50.5 119 -50.5zM391 576l-74 114l-74 -114h-90l126 193h76l123 -193h-87z
" />
    <glyph glyph-name="uni00F5" unicode="&#xf5;" horiz-adv-x="634" 
d="M317 506c74 0 135.833 -24.833 185.5 -74.5s74.5 -111.167 74.5 -184.5s-25.167 -134.833 -75.5 -184.5s-111.833 -74.5 -184.5 -74.5c-74 0 -135.833 25 -185.5 75s-74.5 111.333 -74.5 184c0 74 25 135.667 75 185s111.667 74 185 74zM317 72
c49.333 0 89.333 17 120 51s46 75.333 46 124c0 50 -15.5 91.667 -46.5 125s-70.833 50 -119.5 50c-49.333 0 -89.333 -16.833 -120 -50.5s-46 -75.167 -46 -124.5s15.667 -90.833 47 -124.5s71 -50.5 119 -50.5zM228 575h-71.999v76c0 62.667 26.333 94 79 94
c19.333 0 35.666 -3.66699 48.999 -11c12 -7.33301 26 -18 42 -32l29 -24c1.33301 -0.666992 4.16602 -2.66699 8.49902 -6s7.5 -5.66602 9.5 -6.99902c5.33301 -3.33301 10.666 -5 15.999 -5c11.333 0 17 7.66699 17 23v67h72v-76c0 -62.667 -26.333 -94 -79 -94
c-19.333 0 -35.333 4 -48 12c-12.667 6.66699 -27 17 -43 31l-29 24c-1.33301 0.666992 -4.16602 2.66699 -8.49902 6s-7.5 5.66602 -9.5 6.99902c-5.33301 3.33301 -10.666 5 -15.999 5c-11.333 0 -17 -7.66699 -17 -23v-67z" />
    <glyph glyph-name="uni00F6" unicode="&#xf6;" horiz-adv-x="634" 
d="M317 506c74 0 135.833 -24.833 185.5 -74.5s74.5 -111.167 74.5 -184.5s-25.167 -134.833 -75.5 -184.5s-111.833 -74.5 -184.5 -74.5c-74 0 -135.833 25 -185.5 75s-74.5 111.333 -74.5 184c0 74 25 135.667 75 185s111.667 74 185 74zM317 72
c49.333 0 89.333 17 120 51s46 75.333 46 124c0 50 -15.5 91.667 -46.5 125s-70.833 50 -119.5 50c-49.333 0 -89.333 -16.833 -120 -50.5s-46 -75.167 -46 -124.5s15.667 -90.833 47 -124.5s71 -50.5 119 -50.5zM177 589v139h92v-139h-92zM365 589v139h92v-139h-92z" />
    <glyph glyph-name="uni00F9" unicode="&#xf9;" horiz-adv-x="637" 
d="M320 -11c-67.333 0 -122.832 20.167 -166.499 60.5s-65.5 93.5 -65.5 159.5v285h91v-268c0 -45.333 12.167 -82 36.5 -110s58.833 -42 103.5 -42c45.333 0 80 13.833 104 41.5s36 64.5 36 110.5v268h92v-285c0 -67.333 -21.833 -120.833 -65.5 -160.5
s-98.834 -59.5 -165.501 -59.5zM363.001 579h-93l-115 183h100z" />
    <glyph glyph-name="uni00FA" unicode="&#xfa;" horiz-adv-x="637" 
d="M320 -11c-67.333 0 -122.832 20.167 -166.499 60.5s-65.5 93.5 -65.5 159.5v285h91v-268c0 -45.333 12.167 -82 36.5 -110s58.833 -42 103.5 -42c45.333 0 80 13.833 104 41.5s36 64.5 36 110.5v268h92v-285c0 -67.333 -21.833 -120.833 -65.5 -160.5
s-98.834 -59.5 -165.501 -59.5zM262.001 579l108 183h100l-115 -183h-93z" />
    <glyph glyph-name="uni00FB" unicode="&#xfb;" horiz-adv-x="637" 
d="M320 -11c-67.333 0 -122.832 20.167 -166.499 60.5s-65.5 93.5 -65.5 159.5v285h91v-268c0 -45.333 12.167 -82 36.5 -110s58.833 -42 103.5 -42c45.333 0 80 13.833 104 41.5s36 64.5 36 110.5v268h92v-285c0 -67.333 -21.833 -120.833 -65.5 -160.5
s-98.834 -59.5 -165.501 -59.5zM392.001 576l-74 114l-74 -114h-90l126 193h76l123 -193h-87z" />
    <glyph glyph-name="uni00FC" unicode="&#xfc;" horiz-adv-x="637" 
d="M320 -11c-67.333 0 -122.832 20.167 -166.499 60.5s-65.5 93.5 -65.5 159.5v285h91v-268c0 -45.333 12.167 -82 36.5 -110s58.833 -42 103.5 -42c45.333 0 80 13.833 104 41.5s36 64.5 36 110.5v268h92v-285c0 -67.333 -21.833 -120.833 -65.5 -160.5
s-98.834 -59.5 -165.501 -59.5zM178.001 589v139h92v-139h-92zM366.001 589v139h92v-139h-92z" />
    <glyph glyph-name="uni00FD" unicode="&#xfd;" horiz-adv-x="581" 
d="M558 494l-324 -718h-93l106 235l-224 483h103l169 -376l169 376h94zM239 579l108 183h100l-115 -183h-93z" />
    <glyph glyph-name="uni00FF" unicode="&#xff;" horiz-adv-x="581" 
d="M558 494l-324 -718h-93l106 235l-224 483h103l169 -376l169 376h94zM155 589v139h92v-139h-92zM343 589v139h92v-139h-92z" />
    <glyph glyph-name="uni0100" unicode="&#x100;" horiz-adv-x="800" 
d="M665 0l-79 171h-378l-79 -171h-96l328 714h77l329 -714h-102zM248 259h298l-149 324zM564 813h-330v78h330v-78z" />
    <glyph glyph-name="uni0101" unicode="&#x101;" horiz-adv-x="659" 
d="M474 0l-0.000976562 85c-16 -31.333 -39.833 -55.333 -71.5 -72s-66.167 -25 -103.5 -25c-72.667 0 -131 25 -175 75s-66 111.333 -66 184c0 73.333 22.333 134.833 67 184.5s102.667 74.5 174 74.5c68.667 0 121.334 -22.667 158.001 -68c9.33301 -13.333 15 -22 17 -26
v82h91v-494h-91zM475.999 247c0 50 -14.667 91.667 -44 125s-68 50 -116 50c-49.333 0 -89 -16.833 -119 -50.5s-45 -75.167 -45 -124.5c0 -52.667 15 -94 45 -124c30 -34 69.667 -51 119 -51c48 0 86.667 17 116 51s44 75.333 44 124zM468.999 621h-306v78h306v-78z" />
    <glyph glyph-name="uni0102" unicode="&#x102;" horiz-adv-x="800" 
d="M665 0l-79 171h-378l-79 -171h-96l328 714h77l329 -714h-102zM248 259h298l-149 324zM399 843c21.333 0 38.168 7 50.501 21s18.5 32 18.5 54v13h76v-15c0 -44.667 -13.167 -80 -39.5 -106s-61.5 -39 -105.5 -39c-32 0 -60 7.33301 -84 22s-41 36.667 -51 66
c-6.66699 16 -10 35 -10 57v15h76v-13c0 -22 6.16699 -40 18.5 -54s29.166 -21 50.499 -21z" />
    <glyph glyph-name="uni0103" unicode="&#x103;" horiz-adv-x="659" 
d="M474 0l-0.000976562 85c-16 -31.333 -39.833 -55.333 -71.5 -72s-66.167 -25 -103.5 -25c-72.667 0 -131 25 -175 75s-66 111.333 -66 184c0 73.333 22.333 134.833 67 184.5s102.667 74.5 174 74.5c68.667 0 121.334 -22.667 158.001 -68c9.33301 -13.333 15 -22 17 -26
v82h91v-494h-91zM475.999 247c0 50 -14.667 91.667 -44 125s-68 50 -116 50c-49.333 0 -89 -16.833 -119 -50.5s-45 -75.167 -45 -124.5c0 -52.667 15 -94 45 -124c30 -34 69.667 -51 119 -51c48 0 86.667 17 116 51s44 75.333 44 124zM315.999 645
c20.667 0 36.333 6.66895 47 20.002s16 30.666 16 51.999v17h76v-19c0 -44 -12.333 -78.667 -37 -104s-58.667 -38 -102 -38s-77.333 12.833 -102 38.5s-37 60.167 -37 103.5v19h76v-17c0 -20.667 5.5 -37.834 16.5 -51.501s26.5 -20.5 46.5 -20.5z" />
    <glyph glyph-name="uni0104" unicode="&#x104;" horiz-adv-x="800" 
d="M665 0l-78.999 171.002h-378l-79 -171h-96l328 714h77l329 -714c-35.333 -28.667 -60 -50 -74 -64c-18 -17.333 -27 -33.333 -27 -48c0 -20 12.333 -30 37 -30h86v-82h-89c-36.667 0 -67.334 7.16699 -92.001 21.5s-37 38.166 -37 71.499c0 18 5.33301 35.833 16 53.5
s21.667 31.667 33 42s26.333 22.166 45 35.499zM248.001 259.002h298l-149 324z" />
    <glyph glyph-name="uni0105" unicode="&#x105;" horiz-adv-x="659" 
d="M474 0v85.001c-16 -31.333 -39.833 -55.333 -71.5 -72s-66.167 -25 -103.5 -25c-72.667 0 -131 25 -175 75s-66 111.333 -66 184c0 73.333 22.333 134.833 67 184.5s102.667 74.5 174 74.5c68.667 0 121.334 -22.667 158.001 -68c9.33301 -13.333 15 -22 17 -26v82h91
v-494c-35.333 -28.667 -60 -50 -74 -64c-18 -17.333 -27 -33.333 -27 -48c0 -20 12.333 -30 37 -30h86v-82h-89c-36.667 0 -67.334 7.16699 -92.001 21.5s-37 38.166 -37 71.499c0 14 3 26.667 9 38c9.33301 22.667 28 43.667 56 63zM476 247.001
c0 50 -14.667 91.667 -44 125s-68 50 -116 50c-49.333 0 -89 -16.833 -119 -50.5s-45 -75.167 -45 -124.5c0 -52.667 15 -94 45 -124c30 -34 69.667 -51 119 -51c48 0 86.667 17 116 51s44 75.333 44 124z" />
    <glyph glyph-name="uni0106" unicode="&#x106;" horiz-adv-x="809" 
d="M420 -12c-101.333 0 -185.168 35.833 -251.501 107.5s-99.5 158.167 -99.5 259.5c0 103.333 33.333 190.333 100 261s150.334 106 251.001 106c75.333 0 143.666 -19.333 204.999 -58s102 -92.667 122 -162h-101c-18.667 40.667 -49.167 72.334 -91.5 95.001
s-87.166 34 -134.499 34c-75.333 0 -135.833 -27 -181.5 -81s-68.5 -119 -68.5 -195c0 -76.667 23 -141.834 69 -195.501s106.333 -80.5 181 -80.5c104.667 0 180.667 43.333 228 130h99c-11.333 -44.667 -34 -84.167 -68 -118.5s-73.667 -60.5 -119 -78.5
c-39.333 -16 -86 -24 -140 -24zM369.998 778l112 150h110l-120 -150h-102z" />
    <glyph glyph-name="uni0107" unicode="&#x107;" horiz-adv-x="594" 
d="M543 340h-91.999c-27.333 54.667 -75.333 82 -144 82c-46.667 0 -84.334 -17.333 -113.001 -52s-43 -75.667 -43 -123s14.667 -88.333 44 -123s67 -52 113 -52c68.667 0 117 27.333 145 82h90c-3.33301 -29.333 -21 -61.333 -53 -96
c-44.667 -46.667 -105.334 -70 -182.001 -70c-71.333 0 -131 25.333 -179 76s-72 111.667 -72 183c0 72 24 133.167 72 183.5s107.333 75.5 178 75.5c56.667 0 107.334 -14.5 152.001 -43.5s72.667 -69.833 84 -122.5zM251.001 579l108 183h100l-115 -183h-93z" />
    <glyph glyph-name="uni0108" unicode="&#x108;" horiz-adv-x="809" 
d="M420 -12c-101.333 0 -185.168 35.833 -251.501 107.5s-99.5 158.167 -99.5 259.5c0 103.333 33.333 190.333 100 261s150.334 106 251.001 106c75.333 0 143.666 -19.333 204.999 -58s102 -92.667 122 -162h-101c-18.667 40.667 -49.167 72.334 -91.5 95.001
s-87.166 34 -134.499 34c-75.333 0 -135.833 -27 -181.5 -81s-68.5 -119 -68.5 -195c0 -76.667 23 -141.834 69 -195.501s106.333 -80.5 181 -80.5c104.667 0 180.667 43.333 228 130h99c-11.333 -44.667 -34 -84.167 -68 -118.5s-73.667 -60.5 -119 -78.5
c-39.333 -16 -86 -24 -140 -24zM500.998 775l-80 89l-81 -89h-98l139 156h78l136 -156h-94z" />
    <glyph glyph-name="uni0109" unicode="&#x109;" horiz-adv-x="594" 
d="M543 340h-91.999c-27.333 54.667 -75.333 82 -144 82c-46.667 0 -84.334 -17.333 -113.001 -52s-43 -75.667 -43 -123s14.667 -88.333 44 -123s67 -52 113 -52c68.667 0 117 27.333 145 82h90c-3.33301 -29.333 -21 -61.333 -53 -96
c-44.667 -46.667 -105.334 -70 -182.001 -70c-71.333 0 -131 25.333 -179 76s-72 111.667 -72 183c0 72 24 133.167 72 183.5s107.333 75.5 178 75.5c56.667 0 107.334 -14.5 152.001 -43.5s72.667 -69.833 84 -122.5zM381.001 576l-74 114l-74 -114h-90l126 193h76
l123 -193h-87z" />
    <glyph glyph-name="uni010A" unicode="&#x10a;" horiz-adv-x="809" 
d="M420 -12c-101.333 0 -185.168 35.833 -251.501 107.5s-99.5 158.167 -99.5 259.5c0 103.333 33.333 190.333 100 261s150.334 106 251.001 106c75.333 0 143.666 -19.333 204.999 -58s102 -92.667 122 -162h-101c-18.667 40.667 -49.167 72.334 -91.5 95.001
s-87.166 34 -134.499 34c-75.333 0 -135.833 -27 -181.5 -81s-68.5 -119 -68.5 -195c0 -76.667 23 -141.834 69 -195.501s106.333 -80.5 181 -80.5c104.667 0 180.667 43.333 228 130h99c-11.333 -44.667 -34 -84.167 -68 -118.5s-73.667 -60.5 -119 -78.5
c-39.333 -16 -86 -24 -140 -24zM372.998 778v143h94v-143h-94z" />
    <glyph glyph-name="uni010B" unicode="&#x10b;" horiz-adv-x="594" 
d="M543 340h-91.999c-27.333 54.667 -75.333 82 -144 82c-46.667 0 -84.334 -17.333 -113.001 -52s-43 -75.667 -43 -123s14.667 -88.333 44 -123s67 -52 113 -52c68.667 0 117 27.333 145 82h90c-3.33301 -29.333 -21 -61.333 -53 -96
c-44.667 -46.667 -105.334 -70 -182.001 -70c-71.333 0 -131 25.333 -179 76s-72 111.667 -72 183c0 72 24 133.167 72 183.5s107.333 75.5 178 75.5c56.667 0 107.334 -14.5 152.001 -43.5s72.667 -69.833 84 -122.5zM260.001 589v143h94v-143h-94z" />
    <glyph glyph-name="uni010C" unicode="&#x10c;" horiz-adv-x="809" 
d="M420 -12c-101.333 0 -185.168 35.833 -251.501 107.5s-99.5 158.167 -99.5 259.5c0 103.333 33.333 190.333 100 261s150.334 106 251.001 106c75.333 0 143.666 -19.333 204.999 -58s102 -92.667 122 -162h-101c-18.667 40.667 -49.167 72.334 -91.5 95.001
s-87.166 34 -134.499 34c-75.333 0 -135.833 -27 -181.5 -81s-68.5 -119 -68.5 -195c0 -76.667 23 -141.834 69 -195.501s106.333 -80.5 181 -80.5c104.667 0 180.667 43.333 228 130h99c-11.333 -44.667 -34 -84.167 -68 -118.5s-73.667 -60.5 -119 -78.5
c-39.333 -16 -86 -24 -140 -24zM597.998 931l-139 -156h-78l-136 156h94l81 -89l80 89h98z" />
    <glyph glyph-name="uni010D" unicode="&#x10d;" horiz-adv-x="594" 
d="M543 340h-91.999c-27.333 54.667 -75.333 82 -144 82c-46.667 0 -84.334 -17.333 -113.001 -52s-43 -75.667 -43 -123s14.667 -88.333 44 -123s67 -52 113 -52c68.667 0 117 27.333 145 82h90c-3.33301 -29.333 -21 -61.333 -53 -96
c-44.667 -46.667 -105.334 -70 -182.001 -70c-71.333 0 -131 25.333 -179 76s-72 111.667 -72 183c0 72 24 133.167 72 183.5s107.333 75.5 178 75.5c56.667 0 107.334 -14.5 152.001 -43.5s72.667 -69.833 84 -122.5zM470.001 772l-126 -193h-76l-123 193h88l74 -114
l74 114h89z" />
    <glyph glyph-name="uni0112" unicode="&#x112;" horiz-adv-x="749" 
d="M110 0v710h556v-90h-460v-198h275v-90h-275v-242h500v-90h-596zM564 813h-330v78h330v-78z" />
    <glyph glyph-name="uni0113" unicode="&#x113;" horiz-adv-x="612" 
d="M308 506c77.333 0 138.665 -25.833 183.998 -77.5s68 -115.834 68 -192.501h-411c1.33301 -32.667 11.333 -63.167 30 -91.5s42.667 -48.166 72 -59.499c19.333 -8.66699 41.333 -13 66 -13c29.333 0 58.333 5.83301 87 17.5s48.667 28.834 60 51.501h90
c-5.33301 -30 -20.666 -56.833 -45.999 -80.5s-53.666 -41.834 -84.999 -54.501c-28.667 -12 -64 -18 -106 -18c-74.667 0 -136.667 24.667 -186 74s-74 111 -74 185s23.667 135.667 71 185s107.333 74 180 74zM307.999 428c-38.667 0 -71.5 -10 -98.5 -30
s-45.167 -48.667 -54.5 -86h304c-11.333 36.667 -30 65.167 -56 85.5s-57.667 30.5 -95 30.5zM460.999 621h-306v78h306v-78z" />
    <glyph glyph-name="uni0114" unicode="&#x114;" horiz-adv-x="749" 
d="M110 0v710h556v-90h-460v-198h275v-90h-275v-242h500v-90h-596zM399 843c21.333 0 38.168 7 50.501 21s18.5 32 18.5 54v13h76v-15c0 -44.667 -13.167 -80 -39.5 -106s-61.5 -39 -105.5 -39c-32 0 -60 7.33301 -84 22s-41 36.667 -51 66c-6.66699 16 -10 35 -10 57v15h76
v-13c0 -22 6.16699 -40 18.5 -54s29.166 -21 50.499 -21z" />
    <glyph glyph-name="uni0115" unicode="&#x115;" horiz-adv-x="612" 
d="M308 506c77.333 0 138.665 -25.833 183.998 -77.5s68 -115.834 68 -192.501h-411c1.33301 -32.667 11.333 -63.167 30 -91.5s42.667 -48.166 72 -59.499c19.333 -8.66699 41.333 -13 66 -13c29.333 0 58.333 5.83301 87 17.5s48.667 28.834 60 51.501h90
c-5.33301 -30 -20.666 -56.833 -45.999 -80.5s-53.666 -41.834 -84.999 -54.501c-28.667 -12 -64 -18 -106 -18c-74.667 0 -136.667 24.667 -186 74s-74 111 -74 185s23.667 135.667 71 185s107.333 74 180 74zM307.999 428c-38.667 0 -71.5 -10 -98.5 -30
s-45.167 -48.667 -54.5 -86h304c-11.333 36.667 -30 65.167 -56 85.5s-57.667 30.5 -95 30.5zM307.999 645c20.667 0 36.333 6.66895 47 20.002s16 30.666 16 51.999v17h76v-19c0 -44 -12.333 -78.667 -37 -104s-58.667 -38 -102 -38s-77.333 12.833 -102 38.5
s-37 60.167 -37 103.5v19h76v-17c0 -20.667 5.5 -37.834 16.5 -51.501s26.5 -20.5 46.5 -20.5z" />
    <glyph glyph-name="uni0116" unicode="&#x116;" horiz-adv-x="749" 
d="M110 0v710h556v-90h-460v-198h275v-90h-275v-242h500v-90h-596zM352 778v143h94v-143h-94z" />
    <glyph glyph-name="uni0117" unicode="&#x117;" horiz-adv-x="612" 
d="M308 506c77.333 0 138.665 -25.833 183.998 -77.5s68 -115.834 68 -192.501h-411c1.33301 -32.667 11.333 -63.167 30 -91.5s42.667 -48.166 72 -59.499c19.333 -8.66699 41.333 -13 66 -13c29.333 0 58.333 5.83301 87 17.5s48.667 28.834 60 51.501h90
c-5.33301 -30 -20.666 -56.833 -45.999 -80.5s-53.666 -41.834 -84.999 -54.501c-28.667 -12 -64 -18 -106 -18c-74.667 0 -136.667 24.667 -186 74s-74 111 -74 185s23.667 135.667 71 185s107.333 74 180 74zM307.999 428c-38.667 0 -71.5 -10 -98.5 -30
s-45.167 -48.667 -54.5 -86h304c-11.333 36.667 -30 65.167 -56 85.5s-57.667 30.5 -95 30.5zM260.999 589v143h94v-143h-94z" />
    <glyph glyph-name="uni0118" unicode="&#x118;" horiz-adv-x="749" 
d="M615 -142l0.000976562 -82.001h-89c-36.667 0 -67.334 7.16699 -92.001 21.5s-37 38.5 -37 72.5c0 26 10.333 49.333 31 70c10 10.667 21 20.334 33 29.001l41 31h-392v710h556v-90h-460v-198h275v-90h-275v-242h500v-90h-113c-35.333 -28.667 -60 -50 -74 -64
c-18 -17.333 -27 -33.333 -27 -48c0 -20 12.333 -30 37 -30h86z" />
    <glyph glyph-name="uni0119" unicode="&#x119;" horiz-adv-x="612" 
d="M308 506c77.333 0 138.669 -25.834 184.002 -77.501s68 -115.834 68 -192.501h-411c1.33301 -32.667 11.333 -63.167 30 -91.5s42.667 -48.166 72 -59.499c19.333 -8.66699 41.333 -13 66 -13c29.333 0 58.333 5.83301 87 17.5s48.667 28.834 60 51.501h90
c-6.66699 -38 -41.334 -83.667 -104.001 -137c-28 -24.667 -51.333 -46.667 -70 -66c-16.667 -17.333 -25 -33.666 -25 -48.999c0 -20.667 13.333 -31 40 -31h83v-82h-89c-36.667 0 -67.334 7.16699 -92.001 21.5s-37 38.166 -37 71.499c0 40.667 31.667 81 95 121
c-2 0 -5 -0.333008 -9 -1s-7 -1 -9 -1c-131.333 0 -218.333 52.667 -261 158c-12.667 30 -19 63.667 -19 101c0 74 23.667 135.667 71 185s107.333 74 180 74zM308.003 427.999c-38.667 0 -71.5 -10 -98.5 -30s-45.167 -48.667 -54.5 -86h304
c-11.333 36.667 -30 65.167 -56 85.5s-57.667 30.5 -95 30.5z" />
    <glyph glyph-name="uni011A" unicode="&#x11a;" horiz-adv-x="749" 
d="M110 0v710h556v-90h-460v-198h275v-90h-275v-242h500v-90h-596zM577 931l-139 -156h-78l-136 156h94l81 -89l80 89h98z" />
    <glyph glyph-name="uni011B" unicode="&#x11b;" horiz-adv-x="612" 
d="M308 506c77.333 0 138.665 -25.833 183.998 -77.5s68 -115.834 68 -192.501h-411c1.33301 -32.667 11.333 -63.167 30 -91.5s42.667 -48.166 72 -59.499c19.333 -8.66699 41.333 -13 66 -13c29.333 0 58.333 5.83301 87 17.5s48.667 28.834 60 51.501h90
c-5.33301 -30 -20.666 -56.833 -45.999 -80.5s-53.666 -41.834 -84.999 -54.501c-28.667 -12 -64 -18 -106 -18c-74.667 0 -136.667 24.667 -186 74s-74 111 -74 185s23.667 135.667 71 185s107.333 74 180 74zM307.999 428c-38.667 0 -71.5 -10 -98.5 -30
s-45.167 -48.667 -54.5 -86h304c-11.333 36.667 -30 65.167 -56 85.5s-57.667 30.5 -95 30.5zM470.999 772l-126 -193h-76l-123 193h88l74 -114l74 114h89z" />
    <glyph glyph-name="uni011C" unicode="&#x11c;" horiz-adv-x="847" 
d="M758 398l-0.000976562 -299.999c-37.333 -37.333 -83.5 -65 -138.5 -83s-112.167 -27 -171.5 -27c-111.333 0 -202.333 34 -273 102s-106 156.667 -106 266c0 105.333 34 192.666 102 261.999s154 104 258 104c71.333 0 134.833 -15.167 190.5 -45.5
s95.5 -76.166 119.5 -137.499h-101c-46 62 -115.667 93 -209 93c-79.333 0 -142.5 -26.333 -189.5 -79s-70.5 -118.334 -70.5 -197.001c0 -84 26 -151.333 78 -202s119 -76 201 -76c92.667 0 165.334 19.333 218.001 58v175h-280v87h372zM509.999 775.001l-80 89l-81 -89
h-98l139 156h78l136 -156h-94z" />
    <glyph glyph-name="uni011D" unicode="&#x11d;" horiz-adv-x="667" 
d="M482 0v84c-2 -4 -7.66699 -12.667 -17 -26c-38.667 -47.333 -93 -71 -163 -71c-73.333 0 -132.333 24.833 -177 74.5s-67 111.167 -67 184.5c0 74.667 22.5 136.667 67.5 186s103.833 74 176.5 74c70.667 0 124.667 -23 162 -69c9.33301 -12 15.333 -20.667 18 -26v83h91
v-494c0 -76.667 -24 -135.167 -72 -175.5s-110.333 -60.5 -187 -60.5c-81.333 0 -146.333 22 -195 66c-29.333 27.333 -48.333 57.333 -57 90h100c32 -48 82.667 -72 152 -72c52 0 93 12.667 123 38s45 63.333 45 114zM484 246c0 49.333 -15.001 91.333 -45.001 126
c-33.333 33.333 -73.333 50 -120 50c-50.667 0 -91.167 -16.667 -121.5 -50s-45.5 -75.333 -45.5 -126c0 -50 15.667 -91.667 47 -125s71.333 -50 120 -50s88.334 17 119.001 51s46 75.333 46 124zM388.999 576l-74 114l-74 -114h-90l126 193h76l123 -193h-87z" />
    <glyph glyph-name="uni011E" unicode="&#x11e;" horiz-adv-x="847" 
d="M758 398l-0.000976562 -299.999c-37.333 -37.333 -83.5 -65 -138.5 -83s-112.167 -27 -171.5 -27c-111.333 0 -202.333 34 -273 102s-106 156.667 -106 266c0 105.333 34 192.666 102 261.999s154 104 258 104c71.333 0 134.833 -15.167 190.5 -45.5
s95.5 -76.166 119.5 -137.499h-101c-46 62 -115.667 93 -209 93c-79.333 0 -142.5 -26.333 -189.5 -79s-70.5 -118.334 -70.5 -197.001c0 -84 26 -151.333 78 -202s119 -76 201 -76c92.667 0 165.334 19.333 218.001 58v175h-280v87h372zM428.999 843.001
c21.333 0 38.168 7 50.501 21s18.5 32 18.5 54v13h76v-15c0 -44.667 -13.167 -80 -39.5 -106s-61.5 -39 -105.5 -39c-32 0 -60 7.33301 -84 22s-41 36.667 -51 66c-6.66699 16 -10 35 -10 57v15h76v-13c0 -22 6.16699 -40 18.5 -54s29.166 -21 50.499 -21z" />
    <glyph glyph-name="uni011F" unicode="&#x11f;" horiz-adv-x="667" 
d="M482 0v84c-2 -4 -7.66699 -12.667 -17 -26c-38.667 -47.333 -93 -71 -163 -71c-73.333 0 -132.333 24.833 -177 74.5s-67 111.167 -67 184.5c0 74.667 22.5 136.667 67.5 186s103.833 74 176.5 74c70.667 0 124.667 -23 162 -69c9.33301 -12 15.333 -20.667 18 -26v83h91
v-494c0 -76.667 -24 -135.167 -72 -175.5s-110.333 -60.5 -187 -60.5c-81.333 0 -146.333 22 -195 66c-29.333 27.333 -48.333 57.333 -57 90h100c32 -48 82.667 -72 152 -72c52 0 93 12.667 123 38s45 63.333 45 114zM484 246c0 49.333 -15.001 91.333 -45.001 126
c-33.333 33.333 -73.333 50 -120 50c-50.667 0 -91.167 -16.667 -121.5 -50s-45.5 -75.333 -45.5 -126c0 -50 15.667 -91.667 47 -125s71.333 -50 120 -50s88.334 17 119.001 51s46 75.333 46 124zM314.999 645c20.667 0 36.333 6.66895 47 20.002s16 30.666 16 51.999v17
h76v-19c0 -44 -12.333 -78.667 -37 -104s-58.667 -38 -102 -38s-77.333 12.833 -102 38.5s-37 60.167 -37 103.5v19h76v-17c0 -20.667 5.5 -37.834 16.5 -51.501s26.5 -20.5 46.5 -20.5z" />
    <glyph glyph-name="uni0120" unicode="&#x120;" horiz-adv-x="847" 
d="M758 398l-0.000976562 -299.999c-37.333 -37.333 -83.5 -65 -138.5 -83s-112.167 -27 -171.5 -27c-111.333 0 -202.333 34 -273 102s-106 156.667 -106 266c0 105.333 34 192.666 102 261.999s154 104 258 104c71.333 0 134.833 -15.167 190.5 -45.5
s95.5 -76.166 119.5 -137.499h-101c-46 62 -115.667 93 -209 93c-79.333 0 -142.5 -26.333 -189.5 -79s-70.5 -118.334 -70.5 -197.001c0 -84 26 -151.333 78 -202s119 -76 201 -76c92.667 0 165.334 19.333 218.001 58v175h-280v87h372zM381.999 778.001v143h94v-143h-94z
" />
    <glyph glyph-name="uni0121" unicode="&#x121;" horiz-adv-x="667" 
d="M482 0v84c-2 -4 -7.66699 -12.667 -17 -26c-38.667 -47.333 -93 -71 -163 -71c-73.333 0 -132.333 24.833 -177 74.5s-67 111.167 -67 184.5c0 74.667 22.5 136.667 67.5 186s103.833 74 176.5 74c70.667 0 124.667 -23 162 -69c9.33301 -12 15.333 -20.667 18 -26v83h91
v-494c0 -76.667 -24 -135.167 -72 -175.5s-110.333 -60.5 -187 -60.5c-81.333 0 -146.333 22 -195 66c-29.333 27.333 -48.333 57.333 -57 90h100c32 -48 82.667 -72 152 -72c52 0 93 12.667 123 38s45 63.333 45 114zM484 246c0 49.333 -15.001 91.333 -45.001 126
c-33.333 33.333 -73.333 50 -120 50c-50.667 0 -91.167 -16.667 -121.5 -50s-45.5 -75.333 -45.5 -126c0 -50 15.667 -91.667 47 -125s71.333 -50 120 -50s88.334 17 119.001 51s46 75.333 46 124zM267.999 589v143h94v-143h-94z" />
    <glyph glyph-name="uni0122" unicode="&#x122;" horiz-adv-x="847" 
d="M758 398l-0.000976562 -299.999c-37.333 -37.333 -83.5 -65 -138.5 -83s-112.167 -27 -171.5 -27c-111.333 0 -202.333 34 -273 102s-106 156.667 -106 266c0 105.333 34 192.666 102 261.999s154 104 258 104c71.333 0 134.833 -15.167 190.5 -45.5
s95.5 -76.166 119.5 -137.499h-101c-46 62 -115.667 93 -209 93c-79.333 0 -142.5 -26.333 -189.5 -79s-70.5 -118.334 -70.5 -197.001c0 -84 26 -151.333 78 -202s119 -76 201 -76c92.667 0 165.334 19.333 218.001 58v175h-280v87h372zM478.999 -324.999l-67 0.000976562
c23.333 41.333 35 79.666 35 114.999h-52v115h112v-98c0 -45.333 -9.33301 -89.333 -28 -132z" />
    <glyph glyph-name="uni0123" unicode="&#x123;" horiz-adv-x="667" 
d="M482 0v84c-2 -4 -7.66699 -12.667 -17 -26c-38.667 -47.333 -93 -71 -163 -71c-73.333 0 -132.333 24.833 -177 74.5s-67 111.167 -67 184.5c0 74.667 22.5 136.667 67.5 186s103.833 74 176.5 74c70.667 0 124.667 -23 162 -69c9.33301 -12 15.333 -20.667 18 -26v83h91
v-494c0 -76.667 -24 -135.167 -72 -175.5s-110.333 -60.5 -187 -60.5c-81.333 0 -146.333 22 -195 66c-29.333 27.333 -48.333 57.333 -57 90h100c32 -48 82.667 -72 152 -72c52 0 93 12.667 123 38s45 63.333 45 114zM484 246c0 49.333 -15.001 91.333 -45.001 126
c-33.333 33.333 -73.333 50 -120 50c-50.667 0 -91.167 -16.667 -121.5 -50s-45.5 -75.333 -45.5 -126c0 -50 15.667 -91.667 47 -125s71.333 -50 120 -50s88.334 17 119.001 51s46 75.333 46 124zM285.999 819h67c-8.66699 -15.333 -16.667 -34.5 -24 -57.5
s-11 -42.167 -11 -57.5h52v-115h-112v98c0 44.667 9.33301 88.667 28 132z" />
    <glyph glyph-name="uni0124" unicode="&#x124;" horiz-adv-x="850" 
d="M643 0v313h-436v-313h-97v710h97v-307h436v307h97v-710h-97zM506 775l-80 89l-81 -89h-98l139 156h78l136 -156h-94z" />
    <glyph glyph-name="uni0125" unicode="&#x125;" horiz-adv-x="652" 
d="M185 267l0.00195312 -266.999h-91v736h91v-333c16 31.333 39.167 56.166 69.5 74.499s63.166 27.5 98.499 27.5c60.667 0 111.667 -20.667 153 -62c38.667 -43.333 58 -96.333 58 -159v-284h-92v267c0 45.333 -12.333 82.333 -37 111s-59.334 43 -104.001 43
s-80.167 -14.667 -106.5 -44s-39.5 -66 -39.5 -110zM410.002 801.001l-80 89l-81 -89h-98l139 156h78l136 -156h-94z" />
    <glyph glyph-name="uni0128" unicode="&#x128;" horiz-adv-x="319" 
d="M111 0v710h97v-710h-97zM155 816l-37.999 22c-9.33301 5.33301 -16 9 -20 11c-6 2.66699 -12 4 -18 4c-11.333 0 -17 -8 -17 -24v-56h-73v66c0 62.667 25.667 94 77 94c16.667 0 33 -3.66699 49 -11c15.333 -8 31.333 -17 48 -27l38 -22c16 -10 28.333 -15 37 -15
c12 0 18 8 18 24v56h73v-66c0 -28 -6.33301 -50.667 -19 -68s-32.334 -26 -59.001 -26c-18 0 -34 4 -48 12c-12 6 -28 14.667 -48 26z" />
    <glyph glyph-name="uni0129" unicode="&#x129;" horiz-adv-x="281" 
d="M57 575h-71.002v76c0 62.667 26 94 78 94c20 0 35.667 -4.33301 47 -13c14.667 -10.667 28.334 -21.667 41.001 -33l20 -18c6 -6 12.333 -11 19 -15c4.66699 -4 9.66699 -6 15 -6c11.333 0 17 7.66699 17 23v67h71v-76c0 -28 -6.33301 -50.667 -19 -68
s-32.334 -26 -59.001 -26c-19.333 0 -34.666 4.33301 -45.999 13c-13.333 8.66699 -27.333 19.667 -42 33l-20 18c-11.333 10 -17.666 15.333 -18.999 16c-5.33301 3.33301 -10.333 5 -15 5c-11.333 0 -17 -7.66699 -17 -23v-67zM94.998 0v494h91v-494h-91z" />
    <glyph glyph-name="uni012A" unicode="&#x12a;" horiz-adv-x="319" 
d="M111 0v710h97v-710h-97zM324 813h-330v78h330v-78z" />
    <glyph glyph-name="uni012B" unicode="&#x12b;" horiz-adv-x="281" 
d="M280 621h-279v78h279v-78zM95 0v494h91v-494h-91z" />
    <glyph glyph-name="uni012C" unicode="&#x12c;" horiz-adv-x="319" 
d="M111 0v710h97v-710h-97zM159 843c21.333 0 38.168 7 50.501 21s18.5 32 18.5 54v13h76v-15c0 -44.667 -13.167 -80 -39.5 -106s-61.5 -39 -105.5 -39c-32 0 -60 7.33301 -84 22s-41 36.667 -51 66c-6.66699 16 -10 35 -10 57v15h76v-13c0 -22 6.16699 -40 18.5 -54
s29.166 -21 50.499 -21z" />
    <glyph glyph-name="uni012D" unicode="&#x12d;" horiz-adv-x="281" 
d="M140 645c19.333 0 34.168 6.33398 44.501 19.001s15.5 29 15.5 49v21h76v-23c0 -18 -2.66699 -36 -8 -54c-19.333 -56 -62 -84 -128 -84c-30 0 -56.667 7.16699 -80 21.5s-39 35.166 -47 62.499c-6 16.667 -9 34.667 -9 54v23h76v-21c0 -20 5.16699 -36.333 15.5 -49
s25.166 -19 44.499 -19zM95.002 0.000976562v494h91v-494h-91z" />
    <glyph glyph-name="uni012E" unicode="&#x12e;" horiz-adv-x="319" 
d="M111 0l0.000976562 710h97v-710c-35.333 -28.667 -60 -50 -74 -64c-18 -17.333 -27 -33.333 -27 -48c0 -20 12.333 -30 37 -30h86v-82h-89c-36.667 0 -67.334 7.16699 -92.001 21.5s-37 38.166 -37 71.499c0 18.667 5.66699 36.834 17 54.501s23 31.5 35 41.5
s27.667 21.667 47 35z" />
    <glyph glyph-name="uni012F" unicode="&#x12f;" horiz-adv-x="281" 
d="M93 589v143h95v-143h-95zM207 -142l0.000976562 -82.001h-89c-36.667 0 -67.334 7.16699 -92.001 21.5s-37 38.5 -37 72.5c0 26 10.333 49.333 31 70c10 10.667 21 20.334 33 29.001l41 31h1v494h91v-494h-1c-35.333 -28.667 -60 -50 -74 -64
c-18 -17.333 -27 -33.333 -27 -48c0 -20 12.333 -30 37 -30h86z" />
    <glyph glyph-name="uni0130" unicode="&#x130;" horiz-adv-x="319" 
d="M111 0v710h97v-710h-97zM112 778v143h94v-143h-94z" />
    <glyph glyph-name="uni0131" unicode="&#x131;" horiz-adv-x="281" 
d="M95 0v494h91v-494h-91z" />
    <glyph glyph-name="uni0136" unicode="&#x136;" horiz-adv-x="780" 
d="M632 0l-425 330v-330h-97v710h97v-328l409 328h137l-435 -348l453 -362h-139zM438 -325l-67 0.000976562c23.333 41.333 35 79.666 35 114.999h-52v115h112v-98c0 -45.333 -9.33301 -89.333 -28 -132z" />
    <glyph glyph-name="uni0137" unicode="&#x137;" horiz-adv-x="591" 
d="M454 0l-272 228v-228h-88v736h88v-451l258 209h130l-292 -233l305 -261h-129zM338 -325l-67 0.000976562c23.333 41.333 35 79.666 35 114.999h-52v115h112v-98c0 -45.333 -9.33301 -89.333 -28 -132z" />
    <glyph glyph-name="uni0139" unicode="&#x139;" horiz-adv-x="704" 
d="M666 91v-91h-556v710h97v-619h459zM109 778l112 150h110l-120 -150h-102z" />
    <glyph glyph-name="uni013A" unicode="&#x13a;" horiz-adv-x="283" 
d="M96 0v736h91v-736h-91zM91 804l112 150h110l-120 -150h-102z" />
    <glyph glyph-name="uni013B" unicode="&#x13b;" horiz-adv-x="704" 
d="M666 91v-91h-556v710h97v-619h459zM422 -325l-67 0.000976562c23.333 41.333 35 79.666 35 114.999h-52v115h112v-98c0 -45.333 -9.33301 -89.333 -28 -132z" />
    <glyph glyph-name="uni013C" unicode="&#x13c;" horiz-adv-x="283" 
d="M96 0v736h91v-736h-91zM171 -325l-67 0.000976562c23.333 41.333 35 79.666 35 114.999h-52v115h112v-98c0 -45.333 -9.33301 -89.333 -28 -132z" />
    <glyph glyph-name="uni0143" unicode="&#x143;" horiz-adv-x="860" 
d="M750 710v-715h-69l-478 601v-596h-93v710h118l429 -544v544h93zM390 778l112 150h110l-120 -150h-102z" />
    <glyph glyph-name="uni0144" unicode="&#x144;" horiz-adv-x="652" 
d="M185 267l0.00195312 -266.999h-91v494h91v-91c16 31.333 39.167 56.166 69.5 74.499s63.166 27.5 98.499 27.5c60.667 0 111.667 -20.667 153 -62c38.667 -43.333 58 -96.333 58 -159v-284h-92v267c0 45.333 -12.333 82.333 -37 111s-59.334 43 -104.001 43
s-80.167 -14.667 -106.5 -44s-39.5 -66 -39.5 -110zM273.002 579.001l108 183h100l-115 -183h-93z" />
    <glyph glyph-name="uni0145" unicode="&#x145;" horiz-adv-x="860" 
d="M750 710v-715h-69l-478 601v-596h-93v710h118l429 -544v544h93zM464 -325l-67 0.000976562c23.333 41.333 35 79.666 35 114.999h-52v115h112v-98c0 -45.333 -9.33301 -89.333 -28 -132z" />
    <glyph glyph-name="uni0146" unicode="&#x146;" horiz-adv-x="652" 
d="M185 267l0.00195312 -266.999h-91v494h91v-91c16 31.333 39.167 56.166 69.5 74.499s63.166 27.5 98.499 27.5c60.667 0 111.667 -20.667 153 -62c38.667 -43.333 58 -96.333 58 -159v-284h-92v267c0 45.333 -12.333 82.333 -37 111s-59.334 43 -104.001 43
s-80.167 -14.667 -106.5 -44s-39.5 -66 -39.5 -110zM359.002 -324.999l-67 0.000976562c23.333 41.333 35 79.666 35 114.999h-52v115h112v-98c0 -45.333 -9.33301 -89.333 -28 -132z" />
    <glyph glyph-name="uni0147" unicode="&#x147;" horiz-adv-x="860" 
d="M750 710v-715h-69l-478 601v-596h-93v710h118l429 -544v544h93zM619 931l-139 -156h-78l-136 156h94l81 -89l80 89h98z" />
    <glyph glyph-name="uni0148" unicode="&#x148;" horiz-adv-x="652" 
d="M185 267l0.00195312 -266.999h-91v494h91v-91c16 31.333 39.167 56.166 69.5 74.499s63.166 27.5 98.499 27.5c60.667 0 111.667 -20.667 153 -62c38.667 -43.333 58 -96.333 58 -159v-284h-92v267c0 45.333 -12.333 82.333 -37 111s-59.334 43 -104.001 43
s-80.167 -14.667 -106.5 -44s-39.5 -66 -39.5 -110zM492.002 772.001l-126 -193h-76l-123 193h88l74 -114l74 114h89z" />
    <glyph glyph-name="uni014C" unicode="&#x14c;" horiz-adv-x="872" 
d="M436 -12c-106 0 -193.667 35 -263 105s-104 157.333 -104 262c0 105.333 35.167 192.833 105.5 262.5s157.5 104.5 261.5 104.5c105.333 0 192.833 -35.167 262.5 -105.5s104.5 -157.5 104.5 -261.5c0 -104.667 -35.333 -192 -106 -262s-157.667 -105 -261 -105zM436 78
c78 0 142.003 26.833 192.003 80.5s75 119.167 75 196.5c0 78.667 -25.333 144.5 -76 197.5s-114.334 79.5 -191.001 79.5c-78.667 0 -142.834 -26.667 -192.501 -80s-74.5 -119 -74.5 -197c0 -79.333 25.167 -145.333 75.5 -198s114.166 -79 191.499 -79zM601.003 813h-330
v78h330v-78z" />
    <glyph glyph-name="uni014D" unicode="&#x14d;" horiz-adv-x="634" 
d="M317 506c74 0 135.833 -24.833 185.5 -74.5s74.5 -111.167 74.5 -184.5s-25.167 -134.833 -75.5 -184.5s-111.833 -74.5 -184.5 -74.5c-74 0 -135.833 25 -185.5 75s-74.5 111.333 -74.5 184c0 74 25 135.667 75 185s111.667 74 185 74zM317 72
c49.333 0 89.333 17 120 51s46 75.333 46 124c0 50 -15.5 91.667 -46.5 125s-70.833 50 -119.5 50c-49.333 0 -89.333 -16.833 -120 -50.5s-46 -75.167 -46 -124.5s15.667 -90.833 47 -124.5s71 -50.5 119 -50.5zM470 621h-306v78h306v-78z" />
    <glyph glyph-name="uni014E" unicode="&#x14e;" horiz-adv-x="872" 
d="M436 -12c-106 0 -193.667 35 -263 105s-104 157.333 -104 262c0 105.333 35.167 192.833 105.5 262.5s157.5 104.5 261.5 104.5c105.333 0 192.833 -35.167 262.5 -105.5s104.5 -157.5 104.5 -261.5c0 -104.667 -35.333 -192 -106 -262s-157.667 -105 -261 -105zM436 78
c78 0 142.003 26.833 192.003 80.5s75 119.167 75 196.5c0 78.667 -25.333 144.5 -76 197.5s-114.334 79.5 -191.001 79.5c-78.667 0 -142.834 -26.667 -192.501 -80s-74.5 -119 -74.5 -197c0 -79.333 25.167 -145.333 75.5 -198s114.166 -79 191.499 -79zM436.003 843
c21.333 0 38.168 7 50.501 21s18.5 32 18.5 54v13h76v-15c0 -44.667 -13.167 -80 -39.5 -106s-61.5 -39 -105.5 -39c-32 0 -60 7.33301 -84 22s-41 36.667 -51 66c-6.66699 16 -10 35 -10 57v15h76v-13c0 -22 6.16699 -40 18.5 -54s29.166 -21 50.499 -21z" />
    <glyph glyph-name="uni014F" unicode="&#x14f;" horiz-adv-x="634" 
d="M317 506c74 0 135.833 -24.833 185.5 -74.5s74.5 -111.167 74.5 -184.5s-25.167 -134.833 -75.5 -184.5s-111.833 -74.5 -184.5 -74.5c-74 0 -135.833 25 -185.5 75s-74.5 111.333 -74.5 184c0 74 25 135.667 75 185s111.667 74 185 74zM317 72
c49.333 0 89.333 17 120 51s46 75.333 46 124c0 50 -15.5 91.667 -46.5 125s-70.833 50 -119.5 50c-49.333 0 -89.333 -16.833 -120 -50.5s-46 -75.167 -46 -124.5s15.667 -90.833 47 -124.5s71 -50.5 119 -50.5zM317 645c20.667 0 36.333 6.66895 47 20.002
s16 30.666 16 51.999v17h76v-19c0 -44 -12.333 -78.667 -37 -104s-58.667 -38 -102 -38s-77.333 12.833 -102 38.5s-37 60.167 -37 103.5v19h76v-17c0 -20.667 5.5 -37.834 16.5 -51.501s26.5 -20.5 46.5 -20.5z" />
    <glyph glyph-name="uni0150" unicode="&#x150;" horiz-adv-x="872" 
d="M436 -12c-106 0 -193.667 35 -263 105s-104 157.333 -104 262c0 105.333 35.167 192.833 105.5 262.5s157.5 104.5 261.5 104.5c105.333 0 192.833 -35.167 262.5 -105.5s104.5 -157.5 104.5 -261.5c0 -104.667 -35.333 -192 -106 -262s-157.667 -105 -261 -105zM436 78
c78 0 142.003 26.833 192.003 80.5s75 119.167 75 196.5c0 78.667 -25.333 144.5 -76 197.5s-114.334 79.5 -191.001 79.5c-78.667 0 -142.834 -26.667 -192.501 -80s-74.5 -119 -74.5 -197c0 -79.333 25.167 -145.333 75.5 -198s114.166 -79 191.499 -79zM478.003 778
l78 150h92l-85 -150h-85zM302.003 778l78 150h92l-85 -150h-85z" />
    <glyph glyph-name="uni0151" unicode="&#x151;" horiz-adv-x="634" 
d="M317 506c74 0 135.833 -24.833 185.5 -74.5s74.5 -111.167 74.5 -184.5s-25.167 -134.833 -75.5 -184.5s-111.833 -74.5 -184.5 -74.5c-74 0 -135.833 25 -185.5 75s-74.5 111.333 -74.5 184c0 74 25 135.667 75 185s111.667 74 185 74zM317 72
c49.333 0 89.333 17 120 51s46 75.333 46 124c0 50 -15.5 91.667 -46.5 125s-70.833 50 -119.5 50c-49.333 0 -89.333 -16.833 -120 -50.5s-46 -75.167 -46 -124.5s15.667 -90.833 47 -124.5s71 -50.5 119 -50.5zM361 579l84 183h88l-91 -183h-81zM186 579l84 183h88
l-91 -183h-81z" />
    <glyph glyph-name="uni0154" unicode="&#x154;" horiz-adv-x="803" 
d="M110 0v710h377c156 0 234 -67 234 -201c0 -97.333 -48.333 -158.333 -145 -183l172 -326h-103l-170 316h-268v-316h-97zM484 620l-277 0.000976562v-215h277c91.333 0 137 34.667 137 104c0 41.333 -12 70.166 -36 86.499s-57.667 24.5 -101 24.5zM348 778.001l112 150
h110l-120 -150h-102z" />
    <glyph glyph-name="uni0155" unicode="&#x155;" horiz-adv-x="514" 
d="M185 279l-0.000976562 -279h-91v494h91v-91c2.66699 8 8.33398 18 17.001 30c14 22.667 35.5 39.167 64.5 49.5s59.167 15.5 90.5 15.5h124v-91h-126c-54.667 0 -96.667 -8.83301 -126 -26.5s-44 -51.5 -44 -101.5zM245.999 579l108 183h100l-115 -183h-93z" />
    <glyph glyph-name="uni0156" unicode="&#x156;" horiz-adv-x="803" 
d="M110 0v710h377c156 0 234 -67 234 -201c0 -97.333 -48.333 -158.333 -145 -183l172 -326h-103l-170 316h-268v-316h-97zM484 620l-277 0.000976562v-215h277c91.333 0 137 34.667 137 104c0 41.333 -12 70.166 -36 86.499s-57.667 24.5 -101 24.5zM428 -324.999
l-67 0.000976562c23.333 41.333 35 79.666 35 114.999h-52v115h112v-98c0 -45.333 -9.33301 -89.333 -28 -132z" />
    <glyph glyph-name="uni0157" unicode="&#x157;" horiz-adv-x="514" 
d="M185 279l-0.000976562 -279h-91v494h91v-91c2.66699 8 8.33398 18 17.001 30c14 22.667 35.5 39.167 64.5 49.5s59.167 15.5 90.5 15.5h124v-91h-126c-54.667 0 -96.667 -8.83301 -126 -26.5s-44 -51.5 -44 -101.5zM168.999 -325l-67 0.000976562
c23.333 41.333 35 79.666 35 114.999h-52v115h112v-98c0 -45.333 -9.33301 -89.333 -28 -132z" />
    <glyph glyph-name="uni0158" unicode="&#x158;" horiz-adv-x="803" 
d="M110 0v710h377c156 0 234 -67 234 -201c0 -97.333 -48.333 -158.333 -145 -183l172 -326h-103l-170 316h-268v-316h-97zM484 620l-277 0.000976562v-215h277c91.333 0 137 34.667 137 104c0 41.333 -12 70.166 -36 86.499s-57.667 24.5 -101 24.5zM576 931.001l-139 -156
h-78l-136 156h94l81 -89l80 89h98z" />
    <glyph glyph-name="uni0159" unicode="&#x159;" horiz-adv-x="514" 
d="M185 279l-0.000976562 -279h-91v494h91v-91c2.66699 8 8.33398 18 17.001 30c14 22.667 35.5 39.167 64.5 49.5s59.167 15.5 90.5 15.5h124v-91h-126c-54.667 0 -96.667 -8.83301 -126 -26.5s-44 -51.5 -44 -101.5zM464.999 772l-126 -193h-76l-123 193h88l74 -114
l74 114h89z" />
    <glyph glyph-name="uni015A" unicode="&#x15a;" horiz-adv-x="752" 
d="M346 633c-20 0 -38.8311 -1.33105 -56.498 -3.99805s-35.834 -7.5 -54.501 -14.5s-33.5 -17.833 -44.5 -32.5s-16.5 -32.667 -16.5 -54c0 -57.333 45.333 -91.333 136 -102l139 -16c70.667 -7.33301 127.167 -28 169.5 -62s63.5 -83.667 63.5 -149
c0 -38 -8.66699 -71.333 -26 -100s-40.5 -50.834 -69.5 -66.501s-59.667 -27.167 -92 -34.5s-66.166 -11 -101.499 -11c-84 0 -156.167 17.5 -216.5 52.5s-101.833 89.5 -124.5 163.5h104c38.667 -84.667 117.667 -127 237 -127c20.667 0 41.167 1.83301 61.5 5.5
s40.833 9.5 61.5 17.5s37.334 20.167 50.001 36.5s19 35.833 19 58.5s-3.66699 41.5 -11 56.5s-18.833 26.667 -34.5 35s-30.334 14.333 -44.001 18s-31.834 7.16699 -54.501 10.5l-140 15c-64.667 6 -118.167 25.667 -160.5 59s-63.5 80 -63.5 140
c0 45.333 14.5 83.166 43.5 113.499s62.833 51.333 101.5 63s80 17.5 124 17.5c78 0 146 -15.167 204 -45.5s96.333 -79.5 115 -147.5h-101c-34.667 69.333 -107.334 104 -218.001 104zM317.002 778.002l112 150h110l-120 -150h-102z" />
    <glyph glyph-name="uni015B" unicode="&#x15b;" horiz-adv-x="565" 
d="M331 205l-106.003 11.999c-47.333 4.66699 -86.166 19.167 -116.499 43.5s-45.5 58.833 -45.5 103.5c0 34 11.167 62.333 33.5 85s48 38.167 77 46.5s59.833 12.5 92.5 12.5c35.333 0 68.166 -4 98.499 -12s58.5 -22.5 84.5 -43.5s44 -47.833 54 -80.5h-97
c-0.666992 0.666992 -5 5.66699 -13 15c-34 28.667 -76.333 43 -127 43c-27.333 0 -53 -4.66699 -77 -14s-36 -25.666 -36 -48.999c0 -36.667 28 -58 84 -64c18.667 -2.66699 36 -4.66699 52 -6c32 -2 59.5 -5.33301 82.5 -10s45.833 -12.5 68.5 -23.5s40 -27.167 52 -48.5
s18 -48 18 -80c0 -26.667 -6.66699 -50.167 -20 -70.5s-31.166 -36 -53.499 -47s-45.333 -19 -69 -24s-48.167 -7.5 -73.5 -7.5c-56 0 -107.667 13 -155 39s-77.666 63.667 -90.999 113h97c3.33301 -13.333 13.833 -26 31.5 -38s34.834 -20.333 51.501 -25
c18 -6 40 -9 66 -9c18 0 35.5 1.5 52.5 4.5s33.333 10 49 21s23.5 25.5 23.5 43.5c0 24 -7.83301 40.833 -23.5 50.5s-37.167 16.167 -64.5 19.5zM222.997 578.999l108 183h100l-115 -183h-93z" />
    <glyph glyph-name="uni015C" unicode="&#x15c;" horiz-adv-x="752" 
d="M346 633c-20 0 -38.8311 -1.33105 -56.498 -3.99805s-35.834 -7.5 -54.501 -14.5s-33.5 -17.833 -44.5 -32.5s-16.5 -32.667 -16.5 -54c0 -57.333 45.333 -91.333 136 -102l139 -16c70.667 -7.33301 127.167 -28 169.5 -62s63.5 -83.667 63.5 -149
c0 -38 -8.66699 -71.333 -26 -100s-40.5 -50.834 -69.5 -66.501s-59.667 -27.167 -92 -34.5s-66.166 -11 -101.499 -11c-84 0 -156.167 17.5 -216.5 52.5s-101.833 89.5 -124.5 163.5h104c38.667 -84.667 117.667 -127 237 -127c20.667 0 41.167 1.83301 61.5 5.5
s40.833 9.5 61.5 17.5s37.334 20.167 50.001 36.5s19 35.833 19 58.5s-3.66699 41.5 -11 56.5s-18.833 26.667 -34.5 35s-30.334 14.333 -44.001 18s-31.834 7.16699 -54.501 10.5l-140 15c-64.667 6 -118.167 25.667 -160.5 59s-63.5 80 -63.5 140
c0 45.333 14.5 83.166 43.5 113.499s62.833 51.333 101.5 63s80 17.5 124 17.5c78 0 146 -15.167 204 -45.5s96.333 -79.5 115 -147.5h-101c-34.667 69.333 -107.334 104 -218.001 104zM448.002 775.002l-80 89l-81 -89h-98l139 156h78l136 -156h-94z" />
    <glyph glyph-name="uni015D" unicode="&#x15d;" horiz-adv-x="565" 
d="M331 205l-106.003 11.999c-47.333 4.66699 -86.166 19.167 -116.499 43.5s-45.5 58.833 -45.5 103.5c0 34 11.167 62.333 33.5 85s48 38.167 77 46.5s59.833 12.5 92.5 12.5c35.333 0 68.166 -4 98.499 -12s58.5 -22.5 84.5 -43.5s44 -47.833 54 -80.5h-97
c-0.666992 0.666992 -5 5.66699 -13 15c-34 28.667 -76.333 43 -127 43c-27.333 0 -53 -4.66699 -77 -14s-36 -25.666 -36 -48.999c0 -36.667 28 -58 84 -64c18.667 -2.66699 36 -4.66699 52 -6c32 -2 59.5 -5.33301 82.5 -10s45.833 -12.5 68.5 -23.5s40 -27.167 52 -48.5
s18 -48 18 -80c0 -26.667 -6.66699 -50.167 -20 -70.5s-31.166 -36 -53.499 -47s-45.333 -19 -69 -24s-48.167 -7.5 -73.5 -7.5c-56 0 -107.667 13 -155 39s-77.666 63.667 -90.999 113h97c3.33301 -13.333 13.833 -26 31.5 -38s34.834 -20.333 51.501 -25
c18 -6 40 -9 66 -9c18 0 35.5 1.5 52.5 4.5s33.333 10 49 21s23.5 25.5 23.5 43.5c0 24 -7.83301 40.833 -23.5 50.5s-37.167 16.167 -64.5 19.5zM352.997 575.999l-74 114l-74 -114h-90l126 193h76l123 -193h-87z" />
    <glyph glyph-name="uni015E" unicode="&#x15e;" horiz-adv-x="752" 
d="M424 -156c0 22.667 -13.6641 34 -40.9971 34h-86v117c-128 24.667 -209.667 94 -245 208h104c38.667 -84.667 117.667 -127 237 -127c20.667 0 41.167 1.83301 61.5 5.5s40.833 9.5 61.5 17.5s37.334 20.167 50.001 36.5s19 35.833 19 58.5s-3.66699 41.5 -11 56.5
s-18.833 26.667 -34.5 35s-30.334 14.333 -44.001 18s-31.834 7.16699 -54.501 10.5l-140 15c-64.667 6 -118.167 25.667 -160.5 59s-63.5 80 -63.5 140c0 45.333 14.5 83.166 43.5 113.499s62.833 51.333 101.5 63s80 17.5 124 17.5c78 0 146 -15.167 204 -45.5
s96.333 -79.5 115 -147.5h-101c-34.667 69.333 -107.334 104 -218.001 104c-20 0 -38.833 -1.33301 -56.5 -4s-35.834 -7.5 -54.501 -14.5s-33.5 -17.833 -44.5 -32.5s-16.5 -32.667 -16.5 -54c0 -57.333 45.333 -91.333 136 -102l139 -16
c70.667 -7.33301 127.167 -28 169.5 -62s63.5 -83.667 63.5 -149c0 -32.667 -6.33301 -61.667 -19 -87s-29 -45.666 -49 -60.999s-43.667 -28 -71 -38s-54.5 -16.833 -81.5 -20.5s-55.167 -5.5 -84.5 -5.5v-42h14c80 0 120 -33.667 120 -101
c0 -35.333 -10.5 -62.333 -31.5 -81s-49.5 -28 -85.5 -28h-137v74h126c27.333 0 41 11.667 41 35z" />
    <glyph glyph-name="uni015F" unicode="&#x15f;" horiz-adv-x="565" 
d="M331 205l-106.002 12.001c-47.333 4.66699 -86.166 19.167 -116.499 43.5s-45.5 58.833 -45.5 103.5c0 34 11.167 62.333 33.5 85s48 38.167 77 46.5s59.833 12.5 92.5 12.5c35.333 0 68.166 -4 98.499 -12s58.5 -22.5 84.5 -43.5s44 -47.833 54 -80.5h-97
c-0.666992 0.666992 -5 5.66699 -13 15c-34 28.667 -76.333 43 -127 43c-27.333 0 -53 -4.66699 -77 -14s-36 -25.666 -36 -48.999c0 -36.667 28 -58 84 -64c18.667 -2.66699 36 -4.66699 52 -6c32 -2 59.5 -5.33301 82.5 -10s45.833 -12.5 68.5 -23.5s40 -27.167 52 -48.5
s18 -48 18 -80c0 -26.667 -6.66699 -50.167 -20 -70.5s-31.166 -36 -53.499 -47s-45.333 -19 -69 -24s-48.167 -7.5 -73.5 -7.5h-4v-41h14c80 0 120 -33.667 120 -101c0 -35.333 -10.5 -62.333 -31.5 -81s-49.5 -28 -85.5 -28h-137v74h126c27.333 0 41 11.667 41 35
c0 22.667 -13.667 34 -41 34h-86v117c-2.66699 1.33301 -7 2.66602 -13 3.99902s-10.667 2.66602 -14 3.99902c-73.333 29.333 -118.333 74.333 -135 135h97c3.33301 -13.333 13.833 -26 31.5 -38s34.834 -20.333 51.501 -25c18 -6 40 -9 66 -9c18 0 35.5 1.5 52.5 4.5
s33.333 10 49 21s23.5 25.5 23.5 43.5c0 24 -7.83301 40.833 -23.5 50.5s-37.167 16.167 -64.5 19.5z" />
    <glyph glyph-name="uni0160" unicode="&#x160;" horiz-adv-x="752" 
d="M346 633c-20 0 -38.8311 -1.33105 -56.498 -3.99805s-35.834 -7.5 -54.501 -14.5s-33.5 -17.833 -44.5 -32.5s-16.5 -32.667 -16.5 -54c0 -57.333 45.333 -91.333 136 -102l139 -16c70.667 -7.33301 127.167 -28 169.5 -62s63.5 -83.667 63.5 -149
c0 -38 -8.66699 -71.333 -26 -100s-40.5 -50.834 -69.5 -66.501s-59.667 -27.167 -92 -34.5s-66.166 -11 -101.499 -11c-84 0 -156.167 17.5 -216.5 52.5s-101.833 89.5 -124.5 163.5h104c38.667 -84.667 117.667 -127 237 -127c20.667 0 41.167 1.83301 61.5 5.5
s40.833 9.5 61.5 17.5s37.334 20.167 50.001 36.5s19 35.833 19 58.5s-3.66699 41.5 -11 56.5s-18.833 26.667 -34.5 35s-30.334 14.333 -44.001 18s-31.834 7.16699 -54.501 10.5l-140 15c-64.667 6 -118.167 25.667 -160.5 59s-63.5 80 -63.5 140
c0 45.333 14.5 83.166 43.5 113.499s62.833 51.333 101.5 63s80 17.5 124 17.5c78 0 146 -15.167 204 -45.5s96.333 -79.5 115 -147.5h-101c-34.667 69.333 -107.334 104 -218.001 104zM545.002 931.002l-139 -156h-78l-136 156h94l81 -89l80 89h98z" />
    <glyph glyph-name="uni0161" unicode="&#x161;" horiz-adv-x="565" 
d="M331 205l-106.003 11.999c-47.333 4.66699 -86.166 19.167 -116.499 43.5s-45.5 58.833 -45.5 103.5c0 34 11.167 62.333 33.5 85s48 38.167 77 46.5s59.833 12.5 92.5 12.5c35.333 0 68.166 -4 98.499 -12s58.5 -22.5 84.5 -43.5s44 -47.833 54 -80.5h-97
c-0.666992 0.666992 -5 5.66699 -13 15c-34 28.667 -76.333 43 -127 43c-27.333 0 -53 -4.66699 -77 -14s-36 -25.666 -36 -48.999c0 -36.667 28 -58 84 -64c18.667 -2.66699 36 -4.66699 52 -6c32 -2 59.5 -5.33301 82.5 -10s45.833 -12.5 68.5 -23.5s40 -27.167 52 -48.5
s18 -48 18 -80c0 -26.667 -6.66699 -50.167 -20 -70.5s-31.166 -36 -53.499 -47s-45.333 -19 -69 -24s-48.167 -7.5 -73.5 -7.5c-56 0 -107.667 13 -155 39s-77.666 63.667 -90.999 113h97c3.33301 -13.333 13.833 -26 31.5 -38s34.834 -20.333 51.501 -25
c18 -6 40 -9 66 -9c18 0 35.5 1.5 52.5 4.5s33.333 10 49 21s23.5 25.5 23.5 43.5c0 24 -7.83301 40.833 -23.5 50.5s-37.167 16.167 -64.5 19.5zM441.997 771.999l-126 -193h-76l-123 193h88l74 -114l74 114h89z" />
    <glyph glyph-name="uni0162" unicode="&#x162;" horiz-adv-x="767" 
d="M40 620v90h687v-90h-295v-620h-97v620h-295zM413 -325l-67 0.000976562c23.333 41.333 35 79.666 35 114.999h-52v115h112v-98c0 -45.333 -9.33301 -89.333 -28 -132z" />
    <glyph glyph-name="uni0163" unicode="&#x163;" horiz-adv-x="516" 
d="M466 84l0.000976562 -84.001h-117c-115.333 0 -173 55 -173 165v247h-146v82h146v216h91v-216h199v-82h-199v-226c0 -37.333 7.66699 -63.666 23 -78.999s41.666 -23 78.999 -23h97zM310.001 -325.001l-67 0.000976562c23.333 41.333 35 79.666 35 114.999h-52v115h112
v-98c0 -45.333 -9.33301 -89.333 -28 -132z" />
    <glyph glyph-name="uni0168" unicode="&#x168;" horiz-adv-x="841" 
d="M421 81c68 0 121.167 21.001 159.5 63.001s57.5 96.667 57.5 164v402h96v-410c0 -94.667 -28.833 -170.334 -86.5 -227.001s-133.167 -85 -226.5 -85c-98 0 -174.833 28 -230.5 84s-83.5 132 -83.5 228v410h97v-402c0 -69.333 19.333 -124.5 58 -165.5
s91.667 -61.5 159 -61.5zM417 816.001l-37.999 22c-9.33301 5.33301 -16 9 -20 11c-6 2.66699 -12 4 -18 4c-11.333 0 -17 -8 -17 -24v-56h-73v66c0 62.667 25.667 94 77 94c16.667 0 33 -3.66699 49 -11c15.333 -8 31.333 -17 48 -27l38 -22c16 -10 28.333 -15 37 -15
c12 0 18 8 18 24v56h73v-66c0 -28 -6.33301 -50.667 -19 -68s-32.334 -26 -59.001 -26c-18 0 -34 4 -48 12c-12 6 -28 14.667 -48 26z" />
    <glyph glyph-name="uni0169" unicode="&#x169;" horiz-adv-x="637" 
d="M320 -11c-67.333 0 -122.832 20.167 -166.499 60.5s-65.5 93.5 -65.5 159.5v285h91v-268c0 -45.333 12.167 -82 36.5 -110s58.833 -42 103.5 -42c45.333 0 80 13.833 104 41.5s36 64.5 36 110.5v268h92v-285c0 -67.333 -21.833 -120.833 -65.5 -160.5
s-98.834 -59.5 -165.501 -59.5zM229.001 575h-71.999v76c0 62.667 26.333 94 79 94c19.333 0 35.666 -3.66699 48.999 -11c12 -7.33301 26 -18 42 -32l29 -24c1.33301 -0.666992 4.16602 -2.66699 8.49902 -6s7.5 -5.66602 9.5 -6.99902
c5.33301 -3.33301 10.666 -5 15.999 -5c11.333 0 17 7.66699 17 23v67h72v-76c0 -62.667 -26.333 -94 -79 -94c-18.667 0 -34.667 4 -48 12c-12.667 6.66699 -27 17 -43 31l-29 24c-1.33301 0.666992 -4.16602 2.66699 -8.49902 6s-7.5 5.66602 -9.5 6.99902
c-5.33301 3.33301 -10.666 5 -15.999 5c-11.333 0 -17 -7.66699 -17 -23v-67z" />
    <glyph glyph-name="uni016A" unicode="&#x16a;" horiz-adv-x="841" 
d="M421 81c68 0 121.167 21.001 159.5 63.001s57.5 96.667 57.5 164v402h96v-410c0 -94.667 -28.833 -170.334 -86.5 -227.001s-133.167 -85 -226.5 -85c-98 0 -174.833 28 -230.5 84s-83.5 132 -83.5 228v410h97v-402c0 -69.333 19.333 -124.5 58 -165.5
s91.667 -61.5 159 -61.5zM586 813.001h-330v78h330v-78z" />
    <glyph glyph-name="uni016B" unicode="&#x16b;" horiz-adv-x="637" 
d="M320 -11c-67.333 0 -122.832 20.167 -166.499 60.5s-65.5 93.5 -65.5 159.5v285h91v-268c0 -45.333 12.167 -82 36.5 -110s58.833 -42 103.5 -42c45.333 0 80 13.833 104 41.5s36 64.5 36 110.5v268h92v-285c0 -67.333 -21.833 -120.833 -65.5 -160.5
s-98.834 -59.5 -165.501 -59.5zM471.001 621h-306v78h306v-78z" />
    <glyph glyph-name="uni016C" unicode="&#x16c;" horiz-adv-x="841" 
d="M421 81c68 0 121.167 21.001 159.5 63.001s57.5 96.667 57.5 164v402h96v-410c0 -94.667 -28.833 -170.334 -86.5 -227.001s-133.167 -85 -226.5 -85c-98 0 -174.833 28 -230.5 84s-83.5 132 -83.5 228v410h97v-402c0 -69.333 19.333 -124.5 58 -165.5
s91.667 -61.5 159 -61.5zM421 843.001c21.333 0 38.168 7 50.501 21s18.5 32 18.5 54v13h76v-15c0 -44.667 -13.167 -80 -39.5 -106s-61.5 -39 -105.5 -39c-32 0 -60 7.33301 -84 22s-41 36.667 -51 66c-6.66699 16 -10 35 -10 57v15h76v-13c0 -22 6.16699 -40 18.5 -54
s29.166 -21 50.499 -21z" />
    <glyph glyph-name="uni016D" unicode="&#x16d;" horiz-adv-x="637" 
d="M320 -11c-67.333 0 -122.832 20.167 -166.499 60.5s-65.5 93.5 -65.5 159.5v285h91v-268c0 -45.333 12.167 -82 36.5 -110s58.833 -42 103.5 -42c45.333 0 80 13.833 104 41.5s36 64.5 36 110.5v268h92v-285c0 -67.333 -21.833 -120.833 -65.5 -160.5
s-98.834 -59.5 -165.501 -59.5zM318.001 645c20.667 0 36.333 6.66895 47 20.002s16 30.666 16 51.999v17h76v-19c0 -44 -12.333 -78.667 -37 -104s-58.667 -38 -102 -38s-77.333 12.833 -102 38.5s-37 60.167 -37 103.5v19h76v-17c0 -20.667 5.5 -37.834 16.5 -51.501
s26.5 -20.5 46.5 -20.5z" />
    <glyph glyph-name="uni016E" unicode="&#x16e;" horiz-adv-x="841" 
d="M421 81c68 0 121.167 21.001 159.5 63.001s57.5 96.667 57.5 164v402h96v-410c0 -94.667 -28.833 -170.334 -86.5 -227.001s-133.167 -85 -226.5 -85c-98 0 -174.833 28 -230.5 84s-83.5 132 -83.5 228v410h97v-402c0 -69.333 19.333 -124.5 58 -165.5
s91.667 -61.5 159 -61.5zM421 768.001c-36 0 -66.833 12.167 -92.5 36.5s-38.5 54.5 -38.5 90.5c0 36.667 12.833 67 38.5 91s56.5 36 92.5 36c36.667 0 67.667 -12.167 93 -36.5s38 -54.5 38 -90.5c0 -36.667 -12.833 -67 -38.5 -91s-56.5 -36 -92.5 -36zM421 830.001
c18.667 0 34 6 46 18s18 27.667 18 47c0 18 -5.66699 33.667 -17 47c-12 12 -27.667 18 -47 18c-18.667 0 -34 -6 -46 -18s-18 -27.667 -18 -47c0 -18.667 6 -34.167 18 -46.5s27.333 -18.5 46 -18.5z" />
    <glyph glyph-name="uni016F" unicode="&#x16f;" horiz-adv-x="637" 
d="M320 -11c-67.333 0 -122.832 20.167 -166.499 60.5s-65.5 93.5 -65.5 159.5v285h91v-268c0 -45.333 12.167 -82 36.5 -110s58.833 -42 103.5 -42c45.333 0 80 13.833 104 41.5s36 64.5 36 110.5v268h92v-285c0 -67.333 -21.833 -120.833 -65.5 -160.5
s-98.834 -59.5 -165.501 -59.5zM318.001 567c-36 0 -66.833 12.167 -92.5 36.5s-38.5 54.5 -38.5 90.5c0 36.667 12.833 67 38.5 91s56.5 36 92.5 36c36.667 0 67.667 -12.167 93 -36.5s38 -54.5 38 -90.5c0 -36.667 -12.833 -67 -38.5 -91s-56.5 -36 -92.5 -36z
M318.001 629c18.667 0 34 6 46 18s18 27.667 18 47c0 18 -5.66699 33.667 -17 47c-12 12 -27.667 18 -47 18c-18.667 0 -34 -6 -46 -18s-18 -27.667 -18 -47c0 -18.667 6 -34.167 18 -46.5s27.333 -18.5 46 -18.5z" />
    <glyph glyph-name="uni0170" unicode="&#x170;" horiz-adv-x="841" 
d="M421 81c68 0 121.167 21.001 159.5 63.001s57.5 96.667 57.5 164v402h96v-410c0 -94.667 -28.833 -170.334 -86.5 -227.001s-133.167 -85 -226.5 -85c-98 0 -174.833 28 -230.5 84s-83.5 132 -83.5 228v410h97v-402c0 -69.333 19.333 -124.5 58 -165.5
s91.667 -61.5 159 -61.5zM463 778.001l78 150h92l-85 -150h-85zM287 778.001l78 150h92l-85 -150h-85z" />
    <glyph glyph-name="uni0171" unicode="&#x171;" horiz-adv-x="637" 
d="M320 -11c-67.333 0 -122.832 20.167 -166.499 60.5s-65.5 93.5 -65.5 159.5v285h91v-268c0 -45.333 12.167 -82 36.5 -110s58.833 -42 103.5 -42c45.333 0 80 13.833 104 41.5s36 64.5 36 110.5v268h92v-285c0 -67.333 -21.833 -120.833 -65.5 -160.5
s-98.834 -59.5 -165.501 -59.5zM362.001 579l84 183h88l-91 -183h-81zM187.001 579l84 183h88l-91 -183h-81z" />
    <glyph glyph-name="uni0172" unicode="&#x172;" horiz-adv-x="841" 
d="M598 -142v-81.9971h-89c-36.667 0 -67.334 7.16699 -92.001 21.5s-37 38.166 -37 71.499c0 41.333 32 82.333 96 123c-25.333 -2.66699 -43.666 -4 -54.999 -4c-98 0 -174.833 28 -230.5 84s-83.5 132 -83.5 228v410h97v-402c0 -69.333 19.333 -124.5 58 -165.5
s91.667 -61.5 159 -61.5c68 0 121.167 21 159.5 63s57.5 96.667 57.5 164v402h96v-410c0 -62.667 -12.333 -115.834 -37 -159.501s-63 -87.834 -115 -132.501l-49 -42c-28.667 -22.667 -46 -41 -52 -55c-4 -7.33301 -6 -14.333 -6 -21c0 -21.333 13 -32 39 -32h84z" />
    <glyph glyph-name="uni0173" unicode="&#x173;" horiz-adv-x="637" 
d="M477 -142l0.000976562 -81.998h-89c-36.667 0 -67.334 7.16699 -92.001 21.5s-37 38.166 -37 71.499c0 16.667 5.5 33.5 16.5 50.5s21.667 29.833 32 38.5s24.833 19.667 43.5 33c-2 -0.666992 -4.66699 -1 -8 -1s-5.66602 -0.333008 -6.99902 -1
c-118.667 0 -195.667 44 -231 132c-11.333 28 -17 57.333 -17 88v285h91v-268c0 -45.333 12.167 -82 36.5 -110s58.833 -42 103.5 -42c45.333 0 80 13.833 104 41.5s36 64.5 36 110.5v268h92v-285c0 -41.333 -8.66699 -77.833 -26 -109.5s-43 -62.834 -77 -93.501
c-21.333 -20 -35 -33 -41 -39c-26.667 -24.667 -42.334 -43 -47.001 -55c-4 -8 -6 -16 -6 -24c0 -20 12.333 -30 37 -30h86z" />
    <glyph glyph-name="uni0174" unicode="&#x174;" horiz-adv-x="1129" 
d="M765 -4l-199 562l-200 -562h-79l-244 714h105l184 -557l196 561h81l197 -566l186 562h94l-237 -714h-84zM647 775l-80 89l-81 -89h-98l139 156h78l136 -156h-94z" />
    <glyph glyph-name="uni0175" unicode="&#x175;" horiz-adv-x="869" 
d="M582 -4l-146 373l-146 -373h-73l-189 498h98l134 -365l142 369h76l141 -365l132 361h90l-187 -498h-72zM513 576l-74 114l-74 -114h-90l126 193h76l123 -193h-87z" />
    <glyph glyph-name="uni0176" unicode="&#x176;" horiz-adv-x="765" 
d="M434 302v-302h-97v300l-322 410h123l250 -321l249 321h113zM469 775l-80 89l-81 -89h-98l139 156h78l136 -156h-94z" />
    <glyph glyph-name="uni0177" unicode="&#x177;" horiz-adv-x="581" 
d="M558 494l-324 -718h-93l106 235l-224 483h103l169 -376l169 376h94zM369 576l-74 114l-74 -114h-90l126 193h76l123 -193h-87z" />
    <glyph glyph-name="uni0178" unicode="&#x178;" horiz-adv-x="765" 
d="M434 302v-302h-97v300l-322 410h123l250 -321l249 321h113zM240 778v139h92v-139h-92zM444 778v139h92v-139h-92z" />
    <glyph glyph-name="uni0179" unicode="&#x179;" horiz-adv-x="782" 
d="M737 90v-90h-682v57l482 563h-472v90h622v-57l-486 -563h536zM319 778l112 150h110l-120 -150h-102z" />
    <glyph glyph-name="uni017A" unicode="&#x17a;" horiz-adv-x="606" 
d="M562 81v-81h-506v53l329 360h-321v81h462v-51l-334 -362h370zM239 579l108 183h100l-115 -183h-93z" />
    <glyph glyph-name="uni017B" unicode="&#x17b;" horiz-adv-x="782" 
d="M737 90v-90h-682v57l482 563h-472v90h622v-57l-486 -563h536zM328 778v143h94v-143h-94z" />
    <glyph glyph-name="uni017C" unicode="&#x17c;" horiz-adv-x="606" 
d="M562 81v-81h-506v53l329 360h-321v81h462v-51l-334 -362h370zM248 589v143h94v-143h-94z" />
    <glyph glyph-name="uni017D" unicode="&#x17d;" horiz-adv-x="782" 
d="M737 90v-90h-682v57l482 563h-472v90h622v-57l-486 -563h536zM554 931l-139 -156h-78l-136 156h94l81 -89l80 89h98z" />
    <glyph glyph-name="uni017E" unicode="&#x17e;" horiz-adv-x="606" 
d="M562 81v-81h-506v53l329 360h-321v81h462v-51l-334 -362h370zM458 772l-126 -193h-76l-123 193h88l74 -114l74 114h89z" />
    <glyph glyph-name="uni01FA" unicode="&#x1fa;" horiz-adv-x="800" 
d="M665 0l-79 171h-378l-79 -171h-96l328 714h77l329 -714h-102zM248 259h298l-149 324zM352 1061l104 140h106l-112 -140h-98zM399 768c-36 0 -66.833 12.167 -92.5 36.5s-38.5 54.5 -38.5 90.5c0 36.667 12.833 67 38.5 91s56.5 36 92.5 36
c36.667 0 67.667 -12.167 93 -36.5s38 -54.5 38 -90.5c0 -36.667 -12.833 -67 -38.5 -91s-56.5 -36 -92.5 -36zM399 830c18.667 0 34 6 46 18s18 27.667 18 47c0 18 -5.66699 33.667 -17 47c-12 12 -27.667 18 -47 18c-18.667 0 -34 -6 -46 -18s-18 -27.667 -18 -47
c0 -18.667 6 -34.167 18 -46.5s27.333 -18.5 46 -18.5z" />
    <glyph glyph-name="uni01FB" unicode="&#x1fb;" horiz-adv-x="659" 
d="M474 0l-0.000976562 85c-16 -31.333 -39.833 -55.333 -71.5 -72s-66.167 -25 -103.5 -25c-72.667 0 -131 25 -175 75s-66 111.333 -66 184c0 73.333 22.333 134.833 67 184.5s102.667 74.5 174 74.5c68.667 0 121.334 -22.667 158.001 -68c9.33301 -13.333 15 -22 17 -26
v82h91v-494h-91zM475.999 247c0 50 -14.667 91.667 -44 125s-68 50 -116 50c-49.333 0 -89 -16.833 -119 -50.5s-45 -75.167 -45 -124.5c0 -52.667 15 -94 45 -124c30 -34 69.667 -51 119 -51c48 0 86.667 17 116 51s44 75.333 44 124zM263.999 860l97 150h98l-104 -150h-91
zM306.999 567c-36 0 -66.833 12.167 -92.5 36.5s-38.5 54.5 -38.5 90.5c0 36.667 12.833 67 38.5 91s56.5 36 92.5 36c36.667 0 67.667 -12.167 93 -36.5s38 -54.5 38 -90.5c0 -36.667 -12.833 -67 -38.5 -91s-56.5 -36 -92.5 -36zM306.999 629c18.667 0 34 6 46 18
s18 27.667 18 47c0 18 -5.66699 33.667 -17 47c-12 12 -27.667 18 -47 18c-18.667 0 -34 -6 -46 -18s-18 -27.667 -18 -47c0 -18.667 6 -34.167 18 -46.5s27.333 -18.5 46 -18.5z" />
    <glyph glyph-name="uni0218" unicode="&#x218;" horiz-adv-x="752" 
d="M346 633c-20 0 -38.8311 -1.33105 -56.498 -3.99805s-35.834 -7.5 -54.501 -14.5s-33.5 -17.833 -44.5 -32.5s-16.5 -32.667 -16.5 -54c0 -57.333 45.333 -91.333 136 -102l139 -16c70.667 -7.33301 127.167 -28 169.5 -62s63.5 -83.667 63.5 -149
c0 -38 -8.66699 -71.333 -26 -100s-40.5 -50.834 -69.5 -66.501s-59.667 -27.167 -92 -34.5s-66.166 -11 -101.499 -11c-84 0 -156.167 17.5 -216.5 52.5s-101.833 89.5 -124.5 163.5h104c38.667 -84.667 117.667 -127 237 -127c20.667 0 41.167 1.83301 61.5 5.5
s40.833 9.5 61.5 17.5s37.334 20.167 50.001 36.5s19 35.833 19 58.5s-3.66699 41.5 -11 56.5s-18.833 26.667 -34.5 35s-30.334 14.333 -44.001 18s-31.834 7.16699 -54.501 10.5l-140 15c-64.667 6 -118.167 25.667 -160.5 59s-63.5 80 -63.5 140
c0 45.333 14.5 83.166 43.5 113.499s62.833 51.333 101.5 63s80 17.5 124 17.5c78 0 146 -15.167 204 -45.5s96.333 -79.5 115 -147.5h-101c-34.667 69.333 -107.334 104 -218.001 104zM418.002 -324.998l-67 0.000976562c23.333 41.333 35 79.666 35 114.999h-52v115h112
v-98c0 -45.333 -9.33301 -89.333 -28 -132z" />
    <glyph glyph-name="uni0219" unicode="&#x219;" horiz-adv-x="565" 
d="M331 205l-106.003 11.999c-47.333 4.66699 -86.166 19.167 -116.499 43.5s-45.5 58.833 -45.5 103.5c0 34 11.167 62.333 33.5 85s48 38.167 77 46.5s59.833 12.5 92.5 12.5c35.333 0 68.166 -4 98.499 -12s58.5 -22.5 84.5 -43.5s44 -47.833 54 -80.5h-97
c-0.666992 0.666992 -5 5.66699 -13 15c-34 28.667 -76.333 43 -127 43c-27.333 0 -53 -4.66699 -77 -14s-36 -25.666 -36 -48.999c0 -36.667 28 -58 84 -64c18.667 -2.66699 36 -4.66699 52 -6c32 -2 59.5 -5.33301 82.5 -10s45.833 -12.5 68.5 -23.5s40 -27.167 52 -48.5
s18 -48 18 -80c0 -26.667 -6.66699 -50.167 -20 -70.5s-31.166 -36 -53.499 -47s-45.333 -19 -69 -24s-48.167 -7.5 -73.5 -7.5c-56 0 -107.667 13 -155 39s-77.666 63.667 -90.999 113h97c3.33301 -13.333 13.833 -26 31.5 -38s34.834 -20.333 51.501 -25
c18 -6 40 -9 66 -9c18 0 35.5 1.5 52.5 4.5s33.333 10 49 21s23.5 25.5 23.5 43.5c0 24 -7.83301 40.833 -23.5 50.5s-37.167 16.167 -64.5 19.5zM327.997 -325.001l-67 0.000976562c23.333 41.333 35 79.666 35 114.999h-52v115h112v-98
c0 -45.333 -9.33301 -89.333 -28 -132z" />
    <glyph glyph-name="uni0401" unicode="&#x401;" horiz-adv-x="749" 
d="M110 0v710h556v-90h-460v-198h275v-90h-275v-242h500v-90h-596zM251 778v139h92v-139h-92zM455 778v139h92v-139h-92z" />
    <glyph glyph-name="uni0403" unicode="&#x403;" horiz-adv-x="709" 
d="M110 0v710h569v-91h-472v-619h-97zM344 778l112 150h110l-120 -150h-102z" />
    <glyph glyph-name="uni040E" unicode="&#x40e;" horiz-adv-x="778" 
d="M306 0h-100l142 221l-323 489h112l266 -404l260 404h100zM406 843c21.333 0 38.168 7 50.501 21s18.5 32 18.5 54v13h76v-15c0 -44.667 -13.167 -80 -39.5 -106s-61.5 -39 -105.5 -39c-32 0 -60 7.33301 -84 22s-41 36.667 -51 66c-6.66699 16 -10 35 -10 57v15h76v-13
c0 -22 6.16699 -40 18.5 -54s29.166 -21 50.499 -21z" />
    <glyph glyph-name="uni0410" unicode="&#x410;" horiz-adv-x="800" 
d="M665 0l-79 171h-378l-79 -171h-96l328 714h77l329 -714h-102zM248 259h298l-149 324z" />
    <glyph glyph-name="uni0411" unicode="&#x411;" horiz-adv-x="781" 
d="M207 420l253 0.00195312c74.667 0 135.167 -17.833 181.5 -53.5s69.5 -88.834 69.5 -159.501c0 -72.667 -22.833 -125.334 -68.5 -158.001s-106.5 -49 -182.5 -49h-350v710h546v-91h-449v-199zM463 330.002h-256v-240h256c98.667 0 148 39.667 148 119
c0 42 -13.667 72.667 -41 92s-63 29 -107 29z" />
    <glyph glyph-name="uni0412" unicode="&#x412;" horiz-adv-x="784" 
d="M110 0v710.001h348c70.667 0 128 -15.333 172 -46s66 -79.334 66 -146.001c0 -33.333 -10.833 -63.5 -32.5 -90.5s-48.834 -45.167 -81.501 -54.5c18 -5.33301 34.667 -12.333 50 -21c16 -10.667 29.667 -22.667 41 -36c25.333 -35.333 38 -72.666 38 -111.999
c0 -70.667 -22.667 -122.334 -68 -155.001s-104.666 -49 -177.999 -49h-355zM456 621.001h-250v-210h250c93.333 0 140 35 140 105s-46.667 105 -140 105zM463 322.001h-257v-233h257c100 0 150 39 150 117c0 77.333 -50 116 -150 116z" />
    <glyph glyph-name="uni0413" unicode="&#x413;" horiz-adv-x="709" 
d="M110 0v710h569v-91h-472v-619h-97z" />
    <glyph glyph-name="uni0414" unicode="&#x414;" horiz-adv-x="837" 
d="M610 90l-0.000976562 530h-337l-33 -314c-11.333 -101.333 -27.666 -173.333 -48.999 -216h419zM189.999 710h516.999v-620h110v-251h-87v161h-633v-161h-87v251h79c28.667 44 48.334 118.333 59.001 223z" />
    <glyph glyph-name="uni0415" unicode="&#x415;" horiz-adv-x="749" 
d="M110 0v710h556v-90h-460v-198h275v-90h-275v-242h500v-90h-596z" />
    <glyph glyph-name="uni0416" unicode="&#x416;" horiz-adv-x="1152" 
d="M9 0l411 357l-394 353h133l367 -331v331h97v-331l367 331h133l-392 -352l412 -358h-136l-384 333v-333h-97v333l-384 -333h-133z" />
    <glyph glyph-name="uni0417" unicode="&#x417;" horiz-adv-x="774" 
d="M390 722c35.333 0 68.998 -2.99902 100.998 -8.99902s63.167 -15.833 93.5 -29.5s54.666 -33.834 72.999 -60.501s27.5 -58.667 27.5 -96s-10.167 -70.833 -30.5 -100.5s-47.833 -49.5 -82.5 -59.5c86 -26 129 -78 129 -156c0 -40.667 -9 -76.167 -27 -106.5
s-42.167 -53.5 -72.5 -69.5s-62.666 -27.833 -96.999 -35.5s-70.833 -11.5 -109.5 -11.5c-62.667 0 -121.667 11.5 -177 34.5s-97 58.5 -125 106.5c-15.333 24.667 -24.333 49.667 -27 75h100c14 -42 43 -73.333 87 -94s91 -31 141 -31c24.667 0 47.834 1.83301 69.501 5.5
s43.667 9.83398 66 18.501s40 22.167 53 40.5s19.5 40.5 19.5 66.5c0 71.333 -60.333 107 -181 107h-104v89h108c106.667 0 160 38.667 160 116c0 72.667 -65.333 109 -196 109c-107.333 0 -180.666 -38.667 -219.999 -116h-102c10.667 45.333 32.167 83.666 64.5 114.999
s71.833 55.333 118.5 72c40 13.333 86.667 20 140 20z" />
    <glyph glyph-name="uni0418" unicode="&#x418;" horiz-adv-x="859" 
d="M110 0v710h97v-580l445 580h97v-710h-97v582l-445 -582h-97z" />
    <glyph glyph-name="uni0419" unicode="&#x419;" horiz-adv-x="859" 
d="M110 0v710h97v-580l445 580h97v-710h-97v582l-445 -582h-97zM429 843c21.333 0 38.168 7 50.501 21s18.5 32 18.5 54v13h76v-15c0 -44.667 -13.167 -80 -39.5 -106s-61.5 -39 -105.5 -39c-32 0 -60 7.33301 -84 22s-41 36.667 -51 66c-6.66699 16 -10 35 -10 57v15h76
v-13c0 -22 6.16699 -40 18.5 -54s29.166 -21 50.499 -21z" />
    <glyph glyph-name="uni041A" unicode="&#x41a;" horiz-adv-x="780" 
d="M110 0v710h97v-328l409 328h137l-435 -348l453 -362h-139l-425 330v-330h-97z" />
    <glyph glyph-name="uni041B" unicode="&#x41b;" horiz-adv-x="847" 
d="M300 620l-31 -328.001c-10 -106 -28 -180.333 -54 -223c-30.667 -50 -81 -75 -151 -75h-24v95h17c34 0 58.5 9.83301 73.5 29.5s26.167 47.834 33.5 84.501c5.33301 30 10 63.333 14 100l38 407h521v-710h-97v620h-340z" />
    <glyph glyph-name="uni041C" unicode="&#x41c;" horiz-adv-x="1009" 
d="M260 710l247 -576l247 576h145v-710h-92v626l-271 -630h-67l-269 626v-622h-90v710h150z" />
    <glyph glyph-name="uni041D" unicode="&#x41d;" horiz-adv-x="850" 
d="M643 0v313h-436v-313h-97v710h97v-307h436v307h97v-710h-97z" />
    <glyph glyph-name="uni041E" unicode="&#x41e;" horiz-adv-x="872" 
d="M436 -12c-106 0 -193.667 35 -263 105s-104 157.333 -104 262c0 105.333 35.167 192.833 105.5 262.5s157.5 104.5 261.5 104.5c105.333 0 192.833 -35.167 262.5 -105.5s104.5 -157.5 104.5 -261.5c0 -104.667 -35.333 -192 -106 -262s-157.667 -105 -261 -105zM436 78
c78 0 142.003 26.833 192.003 80.5s75 119.167 75 196.5c0 78.667 -25.333 144.5 -76 197.5s-114.334 79.5 -191.001 79.5c-78.667 0 -142.834 -26.667 -192.501 -80s-74.5 -119 -74.5 -197c0 -79.333 25.167 -145.333 75.5 -198s114.166 -79 191.499 -79z" />
    <glyph glyph-name="uni041F" unicode="&#x41f;" horiz-adv-x="840" 
d="M110 0v710h620v-710h-97v620h-426v-620h-97z" />
    <glyph glyph-name="uni0420" unicode="&#x420;" horiz-adv-x="778" 
d="M110 0v710h369c73.333 0 131.5 -16.5 174.5 -49.5s64.5 -84.833 64.5 -155.5c0 -69.333 -22 -121.5 -66 -156.5s-101.667 -52.5 -173 -52.5h-272v-296h-97zM482 620l-275 0.000976562v-234h275c40.667 0 73.5 9.66699 98.5 29s37.5 48.666 37.5 87.999
c0 78 -45.333 117 -136 117z" />
    <glyph glyph-name="uni0421" unicode="&#x421;" horiz-adv-x="809" 
d="M420 -12c-101.333 0 -185.168 35.833 -251.501 107.5s-99.5 158.167 -99.5 259.5c0 103.333 33.333 190.333 100 261s150.334 106 251.001 106c75.333 0 143.666 -19.333 204.999 -58s102 -92.667 122 -162h-101c-18.667 40.667 -49.167 72.334 -91.5 95.001
s-87.166 34 -134.499 34c-75.333 0 -135.833 -27 -181.5 -81s-68.5 -119 -68.5 -195c0 -76.667 23 -141.834 69 -195.501s106.333 -80.5 181 -80.5c104.667 0 180.667 43.333 228 130h99c-11.333 -44.667 -34 -84.167 -68 -118.5s-73.667 -60.5 -119 -78.5
c-39.333 -16 -86 -24 -140 -24z" />
    <glyph glyph-name="uni0422" unicode="&#x422;" horiz-adv-x="767" 
d="M40 620v90h687v-90h-295v-620h-97v620h-295z" />
    <glyph glyph-name="uni0423" unicode="&#x423;" horiz-adv-x="778" 
d="M306 0h-100l142 221l-323 489h112l266 -404l260 404h100z" />
    <glyph glyph-name="uni0424" unicode="&#x424;" horiz-adv-x="1109" 
d="M506 125h-172c-83.333 0 -149.833 20.333 -199.5 61s-74.5 100.667 -74.5 180c0 81.333 24.667 141.166 74 179.499s116 57.5 200 57.5h172v117h97v-117h172c84 0 150.667 -19.167 200 -57.5s74 -98.166 74 -179.499c0 -82 -25.167 -142.667 -75.5 -182
s-116.5 -59 -198.5 -59h-172v-135h-97v135zM506 215l0.000976562 298h-175c-114 0 -171 -49.667 -171 -149c0 -50 15.667 -87.333 47 -112s72.666 -37 123.999 -37h175zM778.001 513h-174.999v-298h175c51.333 0 92.666 12.333 123.999 37s47 62 47 112
c0 99.333 -57 149 -171 149z" />
    <glyph glyph-name="uni0425" unicode="&#x425;" horiz-adv-x="813" 
d="M657 0l-254 292l-253 -292h-116l310 360l-304 350h128l239 -278l240 278h119l-300 -346l313 -364h-122z" />
    <glyph glyph-name="uni0426" unicode="&#x426;" horiz-adv-x="860" 
d="M633 90v620h97v-620h110v-251h-87v161h-643v710h97v-620h426z" />
    <glyph glyph-name="uni0427" unicode="&#x427;" horiz-adv-x="812" 
d="M605 0v297.999c-71.333 -16.667 -150.333 -25 -237 -25c-94 0 -163.833 20.5 -209.5 61.5s-68.5 107.833 -68.5 200.5v175h97v-172c0 -95.333 33.667 -151.666 101 -168.999c20.667 -6.66699 47 -10 79 -10c82 0 161.333 8.33301 238 25v326h97v-710h-97z" />
    <glyph glyph-name="uni0428" unicode="&#x428;" horiz-adv-x="1197" 
d="M110 710h97v-620h343v620h97v-620h343v620h97v-710h-977v710z" />
    <glyph glyph-name="uni0429" unicode="&#x429;" horiz-adv-x="1217" 
d="M110 710h97v-620h343v620h97v-620h343v620h97v-620h110v-251h-87v161h-1000v710z" />
    <glyph glyph-name="uni042A" unicode="&#x42a;" horiz-adv-x="941" 
d="M40 619v91.001h329v-268h261c76 0 136.833 -19 182.5 -57s68.5 -93.333 68.5 -166c0 -74.667 -22.667 -129.834 -68 -165.501s-106.333 -53.5 -183 -53.5h-358v619h-232zM633 352.001h-264v-262h264c98.667 0 148 43.667 148 131c0 44 -13.333 76.833 -40 98.5
s-62.667 32.5 -108 32.5z" />
    <glyph glyph-name="uni042B" unicode="&#x42b;" horiz-adv-x="1045" 
d="M207 442l261 0.000976562c76 0 136.833 -19 182.5 -57s68.5 -93.333 68.5 -166c0 -74.667 -22.667 -129.834 -68 -165.501s-106.333 -53.5 -183 -53.5h-358v710h97v-268zM471 352.001h-264v-262h264c98.667 0 148 43.667 148 131c0 44 -13.333 76.833 -40 98.5
s-62.667 32.5 -108 32.5zM838 0.000976562v710h97v-710h-97z" />
    <glyph glyph-name="uni042C" unicode="&#x42c;" horiz-adv-x="779" 
d="M207 442l261 0.000976562c76 0 136.833 -19 182.5 -57s68.5 -93.333 68.5 -166c0 -74.667 -22.667 -129.834 -68 -165.501s-106.333 -53.5 -183 -53.5h-358v710h97v-268zM471 352.001h-264v-262h264c98.667 0 148 43.667 148 131c0 44 -13.333 76.833 -40 98.5
s-62.667 32.5 -108 32.5z" />
    <glyph glyph-name="uni042D" unicode="&#x42d;" horiz-adv-x="809" 
d="M389 -12c-61.333 0 -119.497 12.999 -174.497 38.999s-95.833 64 -122.5 114c-14.667 24.667 -24.667 47.334 -30 68.001h99c47.333 -86.667 123.333 -130 228 -130c67.333 0 123.5 22.167 168.5 66.5s71.5 100.166 79.5 167.499h-340v90h340
c-8 68.667 -34 123.834 -78 165.501s-99.667 62.5 -167 62.5c-46.667 0 -91.834 -11.5 -135.501 -34.5s-74.834 -54.5 -93.501 -94.5h-101c20 70 61 124.167 123 162.5s131 57.5 207 57.5c104 0 188 -35.167 252 -105.5s96 -157.5 96 -261.5
c0 -103.333 -33.333 -190.333 -100 -261s-150.334 -106 -251.001 -106z" />
    <glyph glyph-name="uni042E" unicode="&#x42e;" horiz-adv-x="1132" 
d="M110 0l0.000976562 710h97v-307h145c10 92 48.5 168.167 115.5 228.5s146.5 90.5 238.5 90.5c103.333 0 188.666 -35.333 255.999 -106s101 -157.667 101 -261s-34 -190.333 -102 -261s-153 -106 -255 -106c-95.333 0 -175.833 30.667 -241.5 92s-103.5 139 -113.5 233
h-144v-313h-97zM706.001 78c76 0 137.833 27 185.5 81s71.5 119.333 71.5 196c0 77.333 -24 142.833 -72 196.5s-109.667 80.5 -185 80.5c-76.667 0 -138.667 -27 -186 -81s-71 -119.333 -71 -196c0 -78 23.833 -143.667 71.5 -197s109.5 -80 185.5 -80z" />
    <glyph glyph-name="uni042F" unicode="&#x42f;" horiz-adv-x="813" 
d="M172 0l-106.999 -0.000976562l186 299c-50.667 10.667 -89.834 32.834 -117.501 66.501s-41.5 76.5 -41.5 128.5c0 144 79 216 237 216h374v-710h-97v286h-257zM332.001 374.999l274 0.000976562v245h-274c-45.333 0 -80 -9.83301 -104 -29.5s-36 -51.834 -36 -96.501
c0 -79.333 46.667 -119 140 -119z" />
    <glyph glyph-name="uni0430" unicode="&#x430;" horiz-adv-x="659" 
d="M474 0l-0.000976562 85c-16 -31.333 -39.833 -55.333 -71.5 -72s-66.167 -25 -103.5 -25c-72.667 0 -131 25 -175 75s-66 111.333 -66 184c0 73.333 22.333 134.833 67 184.5s102.667 74.5 174 74.5c68.667 0 121.334 -22.667 158.001 -68c9.33301 -13.333 15 -22 17 -26
v82h91v-494h-91zM475.999 247c0 50 -14.667 91.667 -44 125s-68 50 -116 50c-49.333 0 -89 -16.833 -119 -50.5s-45 -75.167 -45 -124.5c0 -52.667 15 -94 45 -124c30 -34 69.667 -51 119 -51c48 0 86.667 17 116 51s44 75.333 44 124z" />
    <glyph glyph-name="uni0431" unicode="&#x431;" horiz-adv-x="642" 
d="M336 486c76 0 136.5 -22.8311 181.5 -68.498s67.5 -105.834 67.5 -180.501s-24.833 -134.834 -74.5 -180.501s-111.5 -68.5 -185.5 -68.5c-81.333 0 -145 24.833 -191 74.5s-69 114.834 -69 195.501c0 15.333 0.333008 26.666 1 33.999c0 14.667 0.333008 25.667 1 33
c0 6.66699 0.666992 18.667 2 36c1.33301 15.333 2.33301 30 3 44c6.66699 89.333 32 157.666 76 204.999s109.333 78.333 196 93l200 35v-84l-198 -35c-68.667 -13.333 -116 -35.666 -142 -66.999s-42 -81.333 -48 -150c34 56 94 84 180 84zM325 72.002
c50.667 0 91 15.166 121 45.499s45 70.166 45 119.499c0 50.667 -15.167 90.834 -45.5 120.501s-70.5 44.5 -120.5 44.5c-50.667 0 -91 -15.167 -121 -45.5s-45 -70.166 -45 -119.499c0 -50 15.333 -90 46 -120s70.667 -45 120 -45z" />
    <glyph glyph-name="uni0432" unicode="&#x432;" horiz-adv-x="605" 
d="M94 0v494h260c48.667 0 89.167 -10.333 121.5 -31s48.5 -53.667 48.5 -99c0 -25.333 -6.33301 -48 -19 -68s-31 -33.667 -55 -41c22.667 -6 43.667 -17.667 63 -35c18 -18 27 -42.667 27 -74c0 -48.667 -18.167 -85.167 -54.5 -109.5s-79.833 -36.5 -130.5 -36.5h-261z
M354 414h-169v-122h169c53.333 0 80 21.333 80 64c0 20.667 -7.83301 35.5 -23.5 44.5s-34.5 13.5 -56.5 13.5zM357 212h-172v-132h171c59.333 0 89 23.333 89 70c0 22 -8.66699 37.833 -26 47.5s-38 14.5 -62 14.5z" />
    <glyph glyph-name="uni0433" unicode="&#x433;" horiz-adv-x="490" 
d="M92 0v494h368v-82h-277v-412h-91z" />
    <glyph glyph-name="uni0434" unicode="&#x434;" horiz-adv-x="626" 
d="M430 82v330.001h-202l-13 -110c-6 -50 -13.333 -95.667 -22 -137c-6.66699 -32.667 -17 -60.334 -31 -83.001h268zM96 -148.999h-81v231h59c28 37.333 48 113 60 227l21 185h366v-412h90v-231h-81v149h-434v-149z" />
    <glyph glyph-name="uni0435" unicode="&#x435;" horiz-adv-x="612" 
d="M308 506c77.333 0 138.665 -25.833 183.998 -77.5s68 -115.834 68 -192.501h-411c1.33301 -32.667 11.333 -63.167 30 -91.5s42.667 -48.166 72 -59.499c19.333 -8.66699 41.333 -13 66 -13c29.333 0 58.333 5.83301 87 17.5s48.667 28.834 60 51.501h90
c-5.33301 -30 -20.666 -56.833 -45.999 -80.5s-53.666 -41.834 -84.999 -54.501c-28.667 -12 -64 -18 -106 -18c-74.667 0 -136.667 24.667 -186 74s-74 111 -74 185s23.667 135.667 71 185s107.333 74 180 74zM307.999 428c-38.667 0 -71.5 -10 -98.5 -30
s-45.167 -48.667 -54.5 -86h304c-11.333 36.667 -30 65.167 -56 85.5s-57.667 30.5 -95 30.5z" />
    <glyph glyph-name="uni0436" unicode="&#x436;" horiz-adv-x="847" 
d="M378 0v223l-244 -223h-126l278 253l-266 241h128l230 -211v211h88v-211l230 211h127l-264 -239l280 -255h-129l-244 223v-223h-88z" />
    <glyph glyph-name="uni0437" unicode="&#x437;" horiz-adv-x="585" 
d="M296 70c86 0 129 25.002 129 75.002c0 43.333 -34.667 65 -104 65h-82v80h83c63.333 0 95 22.667 95 68c0 21.333 -11 38 -33 50c-24 11.333 -55 17 -93 17c-68 0 -114.333 -23.333 -139 -70h-89c5.33301 32.667 21 61.167 47 85.5s56.333 42.166 91 53.499
c26 8.66699 56.667 13 92 13c26 0 50.667 -2.33301 74 -7s46 -12.167 68 -22.5s39.5 -25.5 52.5 -45.5s19.5 -43.667 19.5 -71c0 -26 -7 -48.833 -21 -68.5s-33.333 -32.834 -58 -39.501c61.333 -17.333 92 -53 92 -107c0 -37.333 -12.167 -68.5 -36.5 -93.5
s-52.5 -42 -84.5 -51s-66.333 -13.5 -103 -13.5c-58 0 -111.333 14 -160 42s-77 68.333 -85 121h93c4 -8.66699 10 -17.667 18 -27c12.667 -18 31.667 -31.5 57 -40.5s51 -13.5 77 -13.5z" />
    <glyph glyph-name="uni0438" unicode="&#x438;" horiz-adv-x="657" 
d="M94 0v494h91v-372l287 372h91v-494h-91v375l-287 -375h-91z" />
    <glyph glyph-name="uni0439" unicode="&#x439;" horiz-adv-x="657" 
d="M94 0v494h91v-372l287 372h91v-494h-91v375l-287 -375h-91zM330 645c20.667 0 36.333 6.66895 47 20.002s16 30.666 16 51.999v17h76v-19c0 -44 -12.333 -78.667 -37 -104s-58.667 -38 -102 -38s-77.333 12.833 -102 38.5s-37 60.167 -37 103.5v19h76v-17
c0 -20.667 5.5 -37.834 16.5 -51.501s26.5 -20.5 46.5 -20.5z" />
    <glyph glyph-name="uni043A" unicode="&#x43a;" horiz-adv-x="591" 
d="M92 0v494h88v-214l260 214h130l-292 -237l305 -257h-129l-274 226v-226h-88z" />
    <glyph glyph-name="uni043B" unicode="&#x43b;" horiz-adv-x="624" 
d="M135 220l27.0039 273.999h368v-494h-91v412h-204l-19 -198c-2.66699 -25.333 -5.33398 -46.666 -8.00098 -63.999s-7.66699 -36.833 -15 -58.5s-16.333 -39 -27 -52s-25.334 -24 -44.001 -33s-40.334 -13.5 -65.001 -13.5h-27v82h12c26 0 45.167 6 57.5 18
s21.166 31 26.499 57c3.33301 20 6.33301 43.333 9 70z" />
    <glyph glyph-name="uni043C" unicode="&#x43c;" horiz-adv-x="820" 
d="M94 0v494h121l197 -389l197 389h117v-494h-89v388l-198 -391h-63l-196 387v-384h-86z" />
    <glyph glyph-name="uni043D" unicode="&#x43d;" horiz-adv-x="647" 
d="M94 0v494h91v-202h277v202h91v-494h-91v210h-277v-210h-91z" />
    <glyph glyph-name="uni043E" unicode="&#x43e;" horiz-adv-x="634" 
d="M317 506c74 0 135.833 -24.833 185.5 -74.5s74.5 -111.167 74.5 -184.5s-25.167 -134.833 -75.5 -184.5s-111.833 -74.5 -184.5 -74.5c-74 0 -135.833 25 -185.5 75s-74.5 111.333 -74.5 184c0 74 25 135.667 75 185s111.667 74 185 74zM317 72
c49.333 0 89.333 17 120 51s46 75.333 46 124c0 50 -15.5 91.667 -46.5 125s-70.833 50 -119.5 50c-49.333 0 -89.333 -16.833 -120 -50.5s-46 -75.167 -46 -124.5s15.667 -90.833 47 -124.5s71 -50.5 119 -50.5z" />
    <glyph glyph-name="uni043F" unicode="&#x43f;" horiz-adv-x="637" 
d="M94 0v494h449v-494h-91v412h-267v-412h-91z" />
    <glyph glyph-name="uni0440" unicode="&#x440;" horiz-adv-x="665" 
d="M184 80v-304h-90v718h90v-85c15.333 30.667 40 54.5 74 71.5s69.333 25.5 106 25.5c74 0 133 -24.667 177 -74s66 -111 66 -185c0 -74.667 -22.333 -136.5 -67 -185.5s-103.334 -73.5 -176.001 -73.5c-30 0 -60.167 6 -90.5 18s-54.166 28.667 -71.499 50
c-9.33301 10 -15.333 18 -18 24zM182 247c0 -52 15.332 -93.334 45.999 -124.001c30 -34 70 -51 120 -51c49.333 0 89.333 16.833 120 50.5s46 75.167 46 124.5c0 48.667 -15 90.334 -45 125.001c-33.333 33.333 -73.666 50 -120.999 50c-50 0 -90.167 -16.667 -120.5 -50
s-45.5 -75 -45.5 -125z" />
    <glyph glyph-name="uni0441" unicode="&#x441;" horiz-adv-x="594" 
d="M543 340h-91.999c-27.333 54.667 -75.333 82 -144 82c-46.667 0 -84.334 -17.333 -113.001 -52s-43 -75.667 -43 -123s14.667 -88.333 44 -123s67 -52 113 -52c68.667 0 117 27.333 145 82h90c-3.33301 -29.333 -21 -61.333 -53 -96
c-44.667 -46.667 -105.334 -70 -182.001 -70c-71.333 0 -131 25.333 -179 76s-72 111.667 -72 183c0 72 24 133.167 72 183.5s107.333 75.5 178 75.5c56.667 0 107.334 -14.5 152.001 -43.5s72.667 -69.833 84 -122.5z" />
    <glyph glyph-name="uni0442" unicode="&#x442;" horiz-adv-x="551" 
d="M230 0v412h-200v82h491v-82h-200v-412h-91z" />
    <glyph glyph-name="uni0443" unicode="&#x443;" horiz-adv-x="581" 
d="M558 494l-324 -718h-93l106 235l-224 483h103l169 -376l169 376h94z" />
    <glyph glyph-name="uni0444" unicode="&#x444;" horiz-adv-x="779" 
d="M344 -214v202c-81.333 2 -149.5 26.333 -204.5 73s-82.5 108.667 -82.5 186c0 78.667 28 141.5 84 188.5s123.667 70.5 203 70.5v230h91v-230c81.333 -2 149.5 -26.167 204.5 -72.5s82.5 -108.5 82.5 -186.5c0 -78.667 -28 -141.5 -84 -188.5s-123.667 -70.5 -203 -70.5
v-202h-91zM151 247c0 -54.667 18.333 -97.501 55 -128.501s82.667 -46.5 138 -46.5v350c-56.667 -1.33301 -103 -17.166 -139 -47.499s-54 -72.833 -54 -127.5zM628 246.999c0 56 -18.167 99.168 -54.5 129.501s-82.5 45.5 -138.5 45.5v-350
c56.667 1.33301 103 17.166 139 47.499s54 72.833 54 127.5z" />
    <glyph glyph-name="uni0445" unicode="&#x445;" horiz-adv-x="602" 
d="M467 0l-166 185l-167 -185h-110l222 246l-223 248h118l162 -183l165 183h111l-221 -245l221 -249h-112z" />
    <glyph glyph-name="uni0446" unicode="&#x446;" horiz-adv-x="647" 
d="M451 82v412h91v-412h90v-231h-81v149h-457v494h91v-412h266z" />
    <glyph glyph-name="uni0447" unicode="&#x447;" horiz-adv-x="618" 
d="M433 0l-0.00292969 188.001c-9.33301 -2.66699 -22.666 -5 -39.999 -7c-2.66699 0 -9.16699 -0.5 -19.5 -1.5l-25.5 -2.5c-22.667 -1.33301 -42 -2 -58 -2c-69.333 0 -121.666 14.667 -156.999 44s-53 77.666 -53 144.999v130h91v-120c0 -18.667 2 -35.667 6 -51
c8.66699 -44.667 46.334 -67 113.001 -67c15.333 0 35 0.666992 59 2l25.5 2.5c10.333 1 16.833 1.5 19.5 1.5c14.667 2 27.667 4 39 6v226h91v-494h-91z" />
    <glyph glyph-name="uni0448" unicode="&#x448;" horiz-adv-x="923" 
d="M94 494h91v-412h231v412h91v-412h231v412h91v-494h-735v494z" />
    <glyph glyph-name="uni0449" unicode="&#x449;" horiz-adv-x="934" 
d="M94 494h91v-412h231v412h91v-412h231v412h91v-412h90v-231h-81v149h-744v494z" />
    <glyph glyph-name="uni044A" unicode="&#x44a;" horiz-adv-x="668" 
d="M291 335h150c97.333 0 159.333 -33.333 186 -100c7.33301 -22 11 -44 11 -66c0 -54.667 -18.833 -96.5 -56.5 -125.5s-84.167 -43.5 -139.5 -43.5h-242v412h-170v82h261v-159zM431 253h-140v-171h140c74 0 111 29 111 87c0 56 -37 84 -111 84z" />
    <glyph glyph-name="uni044B" unicode="&#x44b;" horiz-adv-x="800" 
d="M185 335h150c97.333 0 159.333 -33.333 186 -100c7.33301 -22 11 -44 11 -66c0 -54.667 -18.833 -96.5 -56.5 -125.5s-84.167 -43.5 -139.5 -43.5h-242v494h91v-159zM325 253h-140v-171h140c74 0 111 29 111 87c0 56 -37 84 -111 84zM615 0v494h91v-494h-91z" />
    <glyph glyph-name="uni044C" unicode="&#x44c;" horiz-adv-x="562" 
d="M185 335h150c97.333 0 159.333 -33.333 186 -100c7.33301 -22 11 -44 11 -66c0 -54.667 -18.833 -96.5 -56.5 -125.5s-84.167 -43.5 -139.5 -43.5h-242v494h91v-159zM325 253h-140v-171h140c74 0 111 29 111 87c0 56 -37 84 -111 84z" />
    <glyph glyph-name="uni044D" unicode="&#x44d;" horiz-adv-x="594" 
d="M51 154l90.002 -0.000976562c13.333 -26.667 33 -47 59 -61s54.667 -21 86 -21c40 0 73.833 12.833 101.5 38.5s45.167 58.834 52.5 99.501h-228v82h226c-8 39.333 -25.333 70.833 -52 94.5s-59.667 35.5 -99 35.5c-68.667 0 -116.667 -27.333 -144 -82h-92
c14 64.667 55.667 113.334 125 146.001c30 13.333 67 20 111 20c72 0 131.667 -25.167 179 -75.5s71 -111.5 71 -183.5c0 -72.667 -24 -134 -72 -184s-107.667 -75 -179 -75c-46.667 0 -90.834 11 -132.501 33s-71.167 53 -88.5 93
c-8.66699 19.333 -13.334 32.666 -14.001 39.999z" />
    <glyph glyph-name="uni044E" unicode="&#x44e;" horiz-adv-x="840" 
d="M92 0l0.00195312 494h91v-202h94c10.667 64 39.167 115.667 85.5 155s101.5 59 165.5 59c73.333 0 134.166 -25 182.499 -75s72.5 -111.333 72.5 -184c0 -73.333 -24.333 -134.833 -73 -184.5s-109.334 -74.5 -182.001 -74.5c-64.667 0 -121 21 -169 63s-76 95 -84 159
h-92v-210h-91zM528.002 72c48.667 0 87.667 17 117 51s44 75.333 44 124c0 50 -14.667 91.667 -44 125c-33.333 33.333 -72.333 50 -117 50c-48 0 -86.833 -17.167 -116.5 -51.5s-44.5 -75.5 -44.5 -123.5c0 -48.667 15 -90 45 -124s68.667 -51 116 -51z" />
    <glyph glyph-name="uni044F" unicode="&#x44f;" horiz-adv-x="607" 
d="M513 0h-91v179h-147l-120 -179h-105l131 191c-37.333 8.66699 -66 26 -86 52s-30 58.333 -30 97c0 49.333 16.833 87.333 50.5 114s75.5 40 125.5 40h272v-494zM252 261h170v151h-170c-60.667 0 -91 -24 -91 -72c0 -26.667 8.33301 -46.5 25 -59.5s38.667 -19.5 66 -19.5
z" />
    <glyph glyph-name="uni0451" unicode="&#x451;" horiz-adv-x="612" 
d="M308 506c77.333 0 138.665 -25.833 183.998 -77.5s68 -115.834 68 -192.501h-411c1.33301 -32.667 11.333 -63.167 30 -91.5s42.667 -48.166 72 -59.499c19.333 -8.66699 41.333 -13 66 -13c29.333 0 58.333 5.83301 87 17.5s48.667 28.834 60 51.501h90
c-5.33301 -30 -20.666 -56.833 -45.999 -80.5s-53.666 -41.834 -84.999 -54.501c-28.667 -12 -64 -18 -106 -18c-74.667 0 -136.667 24.667 -186 74s-74 111 -74 185s23.667 135.667 71 185s107.333 74 180 74zM307.999 428c-38.667 0 -71.5 -10 -98.5 -30
s-45.167 -48.667 -54.5 -86h304c-11.333 36.667 -30 65.167 -56 85.5s-57.667 30.5 -95 30.5zM167.999 589v139h92v-139h-92zM355.999 589v139h92v-139h-92z" />
    <glyph glyph-name="uni0453" unicode="&#x453;" horiz-adv-x="490" 
d="M92 0v494h368v-82h-277v-412h-91zM227 579l108 183h100l-115 -183h-93z" />
    <glyph glyph-name="uni045E" unicode="&#x45e;" horiz-adv-x="581" 
d="M558 494l-324 -718h-93l106 235l-224 483h103l169 -376l169 376h94zM295 645c20.667 0 36.333 6.66895 47 20.002s16 30.666 16 51.999v17h76v-19c0 -44 -12.333 -78.667 -37 -104s-58.667 -38 -102 -38s-77.333 12.833 -102 38.5s-37 60.167 -37 103.5v19h76v-17
c0 -20.667 5.5 -37.834 16.5 -51.501s26.5 -20.5 46.5 -20.5z" />
    <glyph glyph-name="uni0490" unicode="&#x490;" horiz-adv-x="709" 
d="M110 0v710h482v160h87v-251h-472v-619h-97z" />
    <glyph glyph-name="uni1E80" unicode="&#x1e80;" horiz-adv-x="1129" 
d="M765 -4l-199 562l-200 -562h-79l-244 714h105l184 -557l196 561h81l197 -566l186 562h94l-237 -714h-84zM617 778h-102l-120 150h110z" />
    <glyph glyph-name="uni1E81" unicode="&#x1e81;" horiz-adv-x="869" 
d="M582 -4l-146 373l-146 -373h-73l-189 498h98l134 -365l142 369h76l141 -365l132 361h90l-187 -498h-72zM484 579h-93l-115 183h100z" />
    <glyph glyph-name="uni1E82" unicode="&#x1e82;" horiz-adv-x="1129" 
d="M765 -4l-199 562l-200 -562h-79l-244 714h105l184 -557l196 561h81l197 -566l186 562h94l-237 -714h-84zM516 778l112 150h110l-120 -150h-102z" />
    <glyph glyph-name="uni1E83" unicode="&#x1e83;" horiz-adv-x="869" 
d="M582 -4l-146 373l-146 -373h-73l-189 498h98l134 -365l142 369h76l141 -365l132 361h90l-187 -498h-72zM392 579l108 183h100l-115 -183h-93z" />
    <glyph glyph-name="uni1E84" unicode="&#x1e84;" horiz-adv-x="1129" 
d="M765 -4l-199 562l-200 -562h-79l-244 714h105l184 -557l196 561h81l197 -566l186 562h94l-237 -714h-84zM418 778v139h92v-139h-92zM622 778v139h92v-139h-92z" />
    <glyph glyph-name="uni1E85" unicode="&#x1e85;" horiz-adv-x="869" 
d="M582 -4l-146 373l-146 -373h-73l-189 498h98l134 -365l142 369h76l141 -365l132 361h90l-187 -498h-72zM299 589v139h92v-139h-92zM487 589v139h92v-139h-92z" />
    <glyph glyph-name="uni1EF2" unicode="&#x1ef2;" horiz-adv-x="765" 
d="M434 302v-302h-97v300l-322 410h123l250 -321l249 321h113zM448 778h-102l-120 150h110z" />
    <glyph glyph-name="uni1EF3" unicode="&#x1ef3;" horiz-adv-x="581" 
d="M558 494l-324 -718h-93l106 235l-224 483h103l169 -376l169 376h94zM343 579h-93l-115 183h100z" />
    <glyph glyph-name="uni2013" unicode="&#x2013;" horiz-adv-x="704" 
d="M84 257v76h536v-76h-536z" />
    <glyph glyph-name=".null" horiz-adv-x="0" 
 />
    <glyph glyph-name="nonmarkingreturn" horiz-adv-x="333" 
 />
    <glyph glyph-name="_44" 
d="M404 579h-93l-115 183h100z" />
    <glyph glyph-name="_72" 
d="M160 589v139h92v-139h-92zM348 589v139h92v-139h-92z" />
    <glyph glyph-name="_73" horiz-adv-x="500" 
d="M403 621h-306v78h306v-78z" />
    <glyph glyph-name="_74" 
d="M196 579l108 183h100l-115 -183h-93z" />
    <glyph glyph-name="_75" 
d="M342 -156c0 22.667 -13.667 34 -41 34h-86v122h80v-55h14c80 0 120 -33.667 120 -101c0 -35.333 -10.5 -62.333 -31.5 -81s-49.5 -28 -85.5 -28h-137v74h126c27.333 0 41 11.667 41 35z" />
    <glyph glyph-name="_132" 
d="M334 576l-74 114l-74 -114h-90l126 193h76l123 -193h-87z" />
    <glyph glyph-name="_133" 
d="M424 772l-126 -193h-76l-123 193h88l74 -114l74 114h89z" />
    <glyph glyph-name="_134" 
d="M300 645c20.667 0 36.333 6.66895 47 20.002s16 30.666 16 51.999v17h76v-19c0 -44 -12.333 -78.667 -37 -104s-58.667 -38 -102 -38s-77.333 12.833 -102 38.5s-37 60.167 -37 103.5v19h76v-17c0 -20.667 5.5 -37.834 16.5 -51.501s26.5 -20.5 46.5 -20.5z" />
    <glyph glyph-name="_135" 
d="M253 589v143h94v-143h-94z" />
    <glyph glyph-name="_136" 
d="M300 567c-36 0 -66.833 12.167 -92.5 36.5s-38.5 54.5 -38.5 90.5c0 36.667 12.833 67 38.5 91s56.5 36 92.5 36c36.667 0 67.667 -12.167 93 -36.5s38 -54.5 38 -90.5c0 -36.667 -12.833 -67 -38.5 -91s-56.5 -36 -92.5 -36zM300 629c18.667 0 34 6 46 18
s18 27.667 18 47c0 18 -5.66699 33.667 -17 47c-12 12 -27.667 18 -47 18c-18.667 0 -34 -6 -46 -18s-18 -27.667 -18 -47c0 -18.667 6 -34.167 18 -46.5s27.333 -18.5 46 -18.5z" />
    <glyph glyph-name="_137" 
d="M437 -142l0.000976562 -82.001h-89c-36.667 0 -67.334 7.16699 -92.001 21.5s-37 38.5 -37 72.5c0 26 10.333 49.333 31 70c10 10.667 21 20.334 33 29.001l41 31h91c-35.333 -28.667 -60 -50 -74 -64c-18 -17.333 -27 -33.333 -27 -48c0 -20 12.333 -30 37 -30h86z" />
    <glyph glyph-name="_138" 
d="M211 575h-71.999v76c0 62.667 26.333 94 79 94c19.333 0 35.666 -3.66699 48.999 -11c12 -7.33301 26 -18 42 -32l29 -24c1.33301 -0.666992 4.16602 -2.66699 8.49902 -6s7.5 -5.66602 9.5 -6.99902c5.33301 -3.33301 10.666 -5 15.999 -5c11.333 0 17 7.66699 17 23v67
h72v-76c0 -62.667 -26.333 -94 -79 -94c-18.667 0 -34.667 4 -48 12c-12.667 6.66699 -27 17 -43 31l-29 24c-1.33301 0.666992 -4.16602 2.66699 -8.49902 6s-7.5 5.66602 -9.5 6.99902c-5.33301 3.33301 -10.666 5 -15.999 5c-11.333 0 -17 -7.66699 -17 -23v-67z" />
    <glyph glyph-name="_139" 
d="M301 579l84 183h88l-91 -183h-81zM126 579l84 183h88l-91 -183h-81z" />
    <glyph glyph-name="_221" horiz-adv-x="281" 
d="M93 589v143h95v-143h-95zM95 0v494h91v-494h-91z" />
    <glyph glyph-name="_256" horiz-adv-x="500" 
d="M279 -325l-67 0.000976562c23.333 41.333 35 79.666 35 114.999h-52v115h112v-98c0 -45.333 -9.33301 -89.333 -28 -132z" />
    <glyph glyph-name="_257" horiz-adv-x="500" 
d="M222 819h67c-8.66699 -15.333 -16.667 -34.5 -24 -57.5s-11 -42.167 -11 -57.5h52v-115h-112v98c0 44.667 9.33301 88.667 28 132z" />
    <glyph glyph-name="_258" 
d="M411 778h-102l-120 150h110z" />
    <glyph glyph-name="_259" 
d="M152 778v139h92v-139h-92zM356 778v139h92v-139h-92z" />
    <glyph glyph-name="_260" horiz-adv-x="500" 
d="M415 813h-330v78h330v-78z" />
    <glyph glyph-name="_261" 
d="M189 778l112 150h110l-120 -150h-102z" />
    <glyph glyph-name="_262" 
d="M341 775l-80 89l-81 -89h-98l139 156h78l136 -156h-94z" />
    <glyph glyph-name="_263" 
d="M435 931l-139 -156h-78l-136 156h94l81 -89l80 89h98z" />
    <glyph glyph-name="_264" 
d="M300 843c21.333 0 38.168 7 50.501 21s18.5 32 18.5 54v13h76v-15c0 -44.667 -13.167 -80 -39.5 -106s-61.5 -39 -105.5 -39c-32 0 -60 7.33301 -84 22s-41 36.667 -51 66c-6.66699 16 -10 35 -10 57v15h76v-13c0 -22 6.16699 -40 18.5 -54s29.166 -21 50.499 -21z" />
    <glyph glyph-name="_265" 
d="M253 778v143h94v-143h-94z" />
    <glyph glyph-name="_266" 
d="M300 768c-36 0 -66.833 12.167 -92.5 36.5s-38.5 54.5 -38.5 90.5c0 36.667 12.833 67 38.5 91s56.5 36 92.5 36c36.667 0 67.667 -12.167 93 -36.5s38 -54.5 38 -90.5c0 -36.667 -12.833 -67 -38.5 -91s-56.5 -36 -92.5 -36zM300 830c18.667 0 34 6 46 18
s18 27.667 18 47c0 18 -5.66699 33.667 -17 47c-12 12 -27.667 18 -47 18c-18.667 0 -34 -6 -46 -18s-18 -27.667 -18 -47c0 -18.667 6 -34.167 18 -46.5s27.333 -18.5 46 -18.5z" />
    <glyph glyph-name="_267" 
d="M296 816l-37.999 22c-9.33301 5.33301 -16 9 -20 11c-6 2.66699 -12 4 -18 4c-11.333 0 -17 -8 -17 -24v-56h-73v66c0 62.667 25.667 94 77 94c16.667 0 33 -3.66699 49 -11l48 -27l38 -22c16 -10 28.333 -15 37 -15c12 0 18 8 18 24v56h73v-66
c0 -28 -6.33301 -50.667 -19 -68s-32.334 -26 -59.001 -26c-18 0 -34 4 -48 12c-12 6 -28 14.667 -48 26z" />
    <glyph glyph-name="_268" 
d="M303 778l78 150h92l-85 -150h-85zM127 778l78 150h92l-85 -150h-85z" />
    <glyph glyph-name="_277" horiz-adv-x="814" 
d="M722 -161v161h-630v-161h-87v251h74l285 624h86l285 -624h74v-251h-87zM175 90h458l-229 500z" />
    <glyph glyph-name="_285" horiz-adv-x="787" 
d="M33 0l312 713h91l318 -713h-110l-256 587l-256 -587h-99z" />
    <glyph glyph-name="_308" horiz-adv-x="632" 
d="M57 237c0 47.333 11.999 90.167 35.999 128.5s57.333 66.5 100 84.5c-68 22 -102 62.333 -102 121c0 88.667 61.667 138 185 148l135 12c43.333 3.33301 85.333 7.33301 126 12v-84c-69.333 -8.66699 -156.333 -16.667 -261 -24c-60.667 -4 -91 -26.333 -91 -67
c0 -14 4.33301 -26.167 13 -36.5s20.834 -18.333 36.501 -24s29 -9.66699 40 -12s24.833 -4.5 41.5 -6.5c172.667 -24.667 259 -108.667 259 -252c0 -74.667 -24.667 -134.834 -74 -180.501s-111 -68.5 -185 -68.5c-74.667 0 -136.5 23.333 -185.5 70
s-73.5 106.334 -73.5 179.001zM315.999 72.001c50 0 89.998 15.166 119.998 45.499s45 70.166 45 119.499c0 50.667 -15.167 90.834 -45.5 120.501s-70.166 44.5 -119.499 44.5c-50 0 -90 -15.167 -120 -45.5s-45 -70.166 -45 -119.499c0 -50 15.333 -90 46 -120
s70.334 -45 119.001 -45z" />
    <glyph glyph-name="_310" horiz-adv-x="650" 
d="M88 222l0.000976562 299.001c0 70.667 22.333 125.834 67 165.501s102.334 59.5 173.001 59.5c69.333 0 126.166 -18 170.499 -54s66.5 -87 66.5 -153c0 -34.667 -8.5 -66.834 -25.5 -96.501s-40.833 -51.167 -71.5 -64.5c37.333 -14 66.166 -35.833 86.499 -65.5
s30.5 -64.834 30.5 -105.501c0 -69.333 -24.5 -123.333 -73.5 -162s-108.833 -58 -179.5 -58c-76.667 0 -136.5 20.667 -179.5 62s-64.5 99 -64.5 173zM328.001 662.001c-45.333 0 -81.5 -12.168 -108.5 -36.501s-40.5 -59.166 -40.5 -104.499v-109h147
c44.667 0 80 10.333 106 31s39 52.667 39 96c0 42 -13 73 -39 93s-60.667 30 -104 30zM179.001 330v-108.001c0 -49.333 13.333 -87 40 -113s64.667 -39 114 -39c47.333 0 85.5 11.333 114.5 34s43.5 57 43.5 103c0 46.667 -14.667 78.834 -44 96.501
s-69.333 26.5 -120 26.5h-148z" />
    <glyph glyph-name="_312" horiz-adv-x="543" 
d="M330 217l-106 -12c-27.333 -3.33301 -48.833 -9.83301 -64.5 -19.5s-23.5 -26.5 -23.5 -50.5c0 -18 7.83301 -32.5 23.5 -43.5s32 -18 49 -21s34.5 -4.5 52.5 -4.5c64.667 0 110.667 18 138 54c6.66699 8.66699 10.334 14.667 11.001 18h97
c-9.33301 -34 -27.333 -62.833 -54 -86.5s-56.334 -40.5 -89.001 -50.5s-67 -15 -103 -15c-68.667 0 -122 14.667 -160 44c-37.333 25.333 -56 60.333 -56 105c0 26 4.5 48.5 13.5 67.5s20.167 34.167 33.5 45.5s30.5 20.5 51.5 27.5s40.667 12 59 15
s39.833 5.16699 64.5 6.5c15.333 0.666992 32.333 2.66699 51 6c56 6 84 27.333 84 64c0 16.667 -7 30 -21 40s-28.667 16.333 -44 19s-31.333 4 -48 4c-55.333 0 -97.333 -14.333 -126 -43c-2.66699 -2.66699 -5.5 -5.66699 -8.5 -9s-4.83301 -5.33301 -5.5 -6h-97
c14.667 48 44 82.667 88 104s93.667 32 149 32c92.667 0 155.667 -28 189 -84c9.33301 -18.667 14 -38.667 14 -60c0 -45.333 -15 -80 -45 -104s-69 -38.333 -117 -43z" />
    <glyph glyph-name="_313" horiz-adv-x="490" 
d="M92 0v494h368v-82h-277v-412h-91z" />
    <glyph glyph-name="_315" horiz-adv-x="667" 
d="M482 0v84c-2 -4 -7.66699 -12.667 -17 -26c-38.667 -47.333 -93 -71 -163 -71c-73.333 0 -132.333 24.833 -177 74.5s-67 111.167 -67 184.5c0 74.667 22.5 136.667 67.5 186s103.833 74 176.5 74c70.667 0 124.667 -23 162 -69c9.33301 -12 15.333 -20.667 18 -26v83h91
v-494c0 -76.667 -24 -135.167 -72 -175.5s-110.333 -60.5 -187 -60.5c-81.333 0 -146.333 22 -195 66c-29.333 27.333 -48.333 57.333 -57 90h100c32 -48 82.667 -72 152 -72c52 0 93 12.667 123 38s45 63.333 45 114zM484 246c0 49.333 -15.001 91.333 -45.001 126
c-33.333 33.333 -73.333 50 -120 50c-50.667 0 -91.167 -16.667 -121.5 -50s-45.5 -75.333 -45.5 -126c0 -50 15.667 -91.667 47 -125s71.333 -50 120 -50s88.334 17 119.001 51s46 75.333 46 124z" />
    <glyph glyph-name="_316" horiz-adv-x="626" 
d="M430 82v330.001h-202l-13 -110c-6 -50 -13.333 -95.667 -22 -137c-6.66699 -32.667 -17 -60.334 -31 -83.001h268zM96 -148.999h-81v231h59c28 37.333 48 113 60 227l21 185h366v-412h90v-231h-81v149h-434v-149z" />
    <glyph glyph-name="_319" horiz-adv-x="847" 
d="M378 0v223l-244 -223h-126l278 253l-266 241h128l230 -211v453h88v-453l230 211h127l-264 -239l280 -255h-129l-244 223v-223h-88z" />
    <glyph glyph-name="_321" horiz-adv-x="543" 
d="M501 -6c0 -68 -22.833 -121.669 -68.5 -161.002s-102.5 -59 -170.5 -59c-63.333 0 -117 16.333 -161 49s-71 79.334 -81 140.001h96c8.66699 -34.667 26.167 -61 52.5 -79s57.5 -27 93.5 -27c44.667 0 80 11.833 106 35.5s39 57.5 39 101.5c0 82 -50 123 -150 123h-58v82
h58c40 0 71.667 9.33301 95 28s35 47.334 35 86.001c0 36 -11 63.333 -33 82s-51.333 28 -88 28c-66.667 0 -111 -25.333 -133 -76h-92c8 50.667 34 90 78 118s93 42 147 42c63.333 0 115 -17.167 155 -51.5s60 -81.833 60 -142.5c0 -33.333 -9.5 -63.333 -28.5 -90
s-43.833 -46 -74.5 -58c40 -12 70.5 -33 91.5 -63s31.5 -66 31.5 -108z" />
    <glyph glyph-name="_323" horiz-adv-x="645" 
d="M460 0v90.999c-20 -40 -54.333 -70.667 -103 -92c-18 -6.66699 -38.667 -10 -62 -10c-61.333 0 -111 21 -149 63c-38.667 38.667 -58 91.334 -58 158.001v284h92v-267c0 -45.333 11.833 -82.333 35.5 -111s57.5 -43 101.5 -43s78.833 14.5 104.5 43.5
s38.5 65.833 38.5 110.5v267h91v-494h-91z" />
    <glyph glyph-name="_325" horiz-adv-x="645" 
d="M460 0v90.999c-20 -40 -54.333 -70.667 -103 -92c-18 -6.66699 -38.667 -10 -62 -10c-61.333 0 -111 21 -149 63c-38.667 38.667 -58 91.334 -58 158.001v284h92v-267c0 -45.333 11.833 -82.333 35.5 -111s57.5 -43 101.5 -43s78.833 14.5 104.5 43.5
s38.5 65.833 38.5 110.5v267h91v-494h-91zM319 645.999c20.667 0 36.333 6.66895 47 20.002s16 30.666 16 51.999v17h76v-19c0 -44 -12.333 -78.667 -37 -104s-58.667 -38 -102 -38s-77.333 12.833 -102 38.5s-37 60.167 -37 103.5v19h76v-17
c0 -20.667 5.5 -37.834 16.5 -51.501s26.5 -20.5 46.5 -20.5z" />
    <glyph glyph-name="_327" horiz-adv-x="591" 
d="M454 0l-272 228v-228h-88v736h88v-451l258 209h130l-292 -233l305 -261h-129z" />
    <glyph glyph-name="_329" horiz-adv-x="581" 
d="M23 0l229 503h73l233 -503h-102l-170 381l-169 -381h-94z" />
    <glyph glyph-name="_332" horiz-adv-x="647" 
d="M94 0v494h91v-202h277v202h91v-494h-91v210h-277v-210h-91z" />
    <glyph glyph-name="_335" horiz-adv-x="652" 
d="M185 267l0.00195312 -266.999h-91v494h91v-91c16 31.333 39.167 56.166 69.5 74.499s63.166 27.5 98.499 27.5c60.667 0 111.667 -20.667 153 -62c38.667 -43.333 58 -96.333 58 -159v-284h-92v267c0 45.333 -12.333 82.333 -37 111s-59.334 43 -104.001 43
s-80.167 -14.667 -106.5 -44s-39.5 -66 -39.5 -110z" />
    <glyph glyph-name="_336" horiz-adv-x="637" 
d="M94 0v494h449v-494h-91v412h-267v-412h-91z" />
    <glyph glyph-name="_340" horiz-adv-x="1019" 
d="M185 267v-266.998h-91v494h91v-91c16 31.333 38.833 56.166 68.5 74.499s62.167 27.5 97.5 27.5c42.667 0 80.334 -10.333 113.001 -31s57.334 -50.334 74.001 -89.001c15.333 36 39.666 65 72.999 87s69.666 33 108.999 33c60.667 0 111.667 -20.667 153 -62
c38.667 -43.333 58 -96.333 58 -159v-284h-92v267c0 44.667 -11.833 81.5 -35.5 110.5s-57.5 43.5 -101.5 43.5s-79 -14.667 -105 -44s-39 -66 -39 -110v-267h-92v267c0 44.667 -11.833 81.5 -35.5 110.5s-57.5 43.5 -101.5 43.5s-79 -14.667 -105 -44s-39 -66 -39 -110z
" />
    <glyph glyph-name="_341" horiz-adv-x="551" 
d="M230 0v412h-200v82h491v-82h-200v-412h-91z" />
    <glyph glyph-name="_346" horiz-adv-x="656" 
d="M180 494v-267.001c0 -45.333 11.833 -82.333 35.5 -111s57.5 -43 101.5 -43s78.833 14.5 104.5 43.5s38.5 65.833 38.5 110.5v267h91v-412h90v-231h-81v149h-100v91c-20 -40 -54.333 -70.667 -103 -92c-18 -6.66699 -38.667 -10 -62 -10c-61.333 0 -111 21 -149 63
c-38.667 38.667 -58 91.334 -58 158.001v284h92z" />
    <glyph glyph-name="_348" horiz-adv-x="618" 
d="M433 0l-0.00292969 188.001c-9.33301 -2.66699 -22.666 -5 -39.999 -7c-2.66699 0 -9.16699 -0.5 -19.5 -1.5l-25.5 -2.5c-22.667 -1.33301 -42 -2 -58 -2c-69.333 0 -121.666 14.667 -156.999 44s-53 77.666 -53 144.999v130h91v-120c0 -18.667 2 -35.667 6 -51
c8.66699 -44.667 46.334 -67 113.001 -67c15.333 0 35 0.666992 59 2l25.5 2.5c10.333 1 16.833 1.5 19.5 1.5c14.667 2 27.667 4 39 6v226h91v-494h-91z" />
    <glyph glyph-name="_350" horiz-adv-x="1019" 
d="M834 227l-0.000976562 267.002h91v-494h-91v91c-15.333 -30.667 -38.166 -55.334 -68.499 -74.001s-62.833 -28 -97.5 -28c-42 0 -79.667 10.5 -113 31.5s-58 50.5 -74 88.5c-15.333 -36.667 -39.5 -65.834 -72.5 -87.501s-69.5 -32.5 -109.5 -32.5
c-63.333 0 -114 21 -152 63c-39.333 39.333 -59 92 -59 158v284h92v-267c0 -44.667 12 -81.5 36 -110.5s57.667 -43.5 101 -43.5c44 0 79 14.667 105 44s39 66 39 110v267h92v-267c0 -44.667 12 -81.5 36 -110.5s57.667 -43.5 101 -43.5c44 0 79 14.667 105 44s39 66 39 110
z" />
    <glyph glyph-name="_352" horiz-adv-x="1030" 
d="M925 494v-411.999h90v-231h-81v149h-100v91c-19.333 -39.333 -54 -70 -104 -92c-18 -6.66699 -38.667 -10 -62 -10c-42 0 -79.667 10.5 -113 31.5s-58 50.5 -74 88.5c-15.333 -36.667 -39.5 -65.834 -72.5 -87.501s-69.5 -32.5 -109.5 -32.5
c-63.333 0 -114.333 21 -153 63s-58 94.667 -58 158v284h92v-267c0 -44.667 12 -81.5 36 -110.5s57.667 -43.5 101 -43.5c44 0 79 14.667 105 44s39 66 39 110v267h92v-267c0 -44.667 12 -81.5 36 -110.5s57.667 -43.5 101 -43.5c44 0 79 14.667 105 44s39 66 39 110v267h91
z" />
    <glyph glyph-name="_356" horiz-adv-x="556" 
d="M526 169c0 -37.333 -11.667 -70.332 -35 -98.999s-53.333 -50.334 -90 -65.001c-25.333 -11.333 -57.333 -17 -96 -17c-59.333 0 -110.333 17.667 -153 53s-64 81.333 -64 138v315h91v-159h130c106.667 0 175 -33.667 205 -101c8 -21.333 12 -43 12 -65zM179 253.001
l0.000976562 -74.999c0 -36.667 11.667 -63.834 35 -81.501s53.666 -26.5 90.999 -26.5c36 0 65.833 8 89.5 24s35.5 41 35.5 75c0 56 -43.667 84 -131 84h-120z" />
    <glyph glyph-name="_359" horiz-adv-x="840" 
d="M92 0l0.00195312 736h91v-444h94c10.667 64 39.167 115.667 85.5 155s101.5 59 165.5 59c73.333 0 134.166 -25 182.499 -75s72.5 -111.333 72.5 -184c0 -73.333 -24.333 -134.833 -73 -184.5s-109.334 -74.5 -182.001 -74.5c-64.667 0 -121 21 -169 63s-76 95 -84 159
h-92v-210h-91zM528.002 72c48.667 0 87.667 17 117 51s44 75.333 44 124c0 50 -14.667 91.667 -44 125c-33.333 33.333 -72.333 50 -117 50c-48 0 -86.833 -17.167 -116.5 -51.5s-44.5 -75.5 -44.5 -123.5c0 -48.667 15 -90 45 -124s68.667 -51 116 -51z" />
    <glyph glyph-name="_365" horiz-adv-x="645" 
d="M460 0v90.999c-20 -40 -54.333 -70.667 -103 -92c-18 -6.66699 -38.667 -10 -62 -10c-61.333 0 -111 21 -149 63c-38.667 38.667 -58 91.334 -58 158.001v284h92v-267c0 -45.333 11.833 -82.333 35.5 -111s57.5 -43 101.5 -43s78.833 14.5 104.5 43.5
s38.5 65.833 38.5 110.5v267h91v-494h-91z" />
    <glyph glyph-name="_366" horiz-adv-x="489" 
d="M459 412h-192v-412h-91v412h-146v82h146v78c0 109.333 58.667 164 176 164h139v-82h-129c-63.333 0 -95 -31.667 -95 -95v-65h192v-82z" />
    <glyph glyph-name="_367" 
d="M257 860l97 150h98l-104 -150h-91zM300 567c-36 0 -66.833 12.167 -92.5 36.5s-38.5 54.5 -38.5 90.5c0 36.667 12.833 67 38.5 91s56.5 36 92.5 36c36.667 0 67.667 -12.167 93 -36.5s38 -54.5 38 -90.5c0 -36.667 -12.833 -67 -38.5 -91s-56.5 -36 -92.5 -36zM300 629
c18.667 0 34 6 46 18s18 27.667 18 47c0 18 -5.66699 33.667 -17 47c-12 12 -27.667 18 -47 18c-18.667 0 -34 -6 -46 -18s-18 -27.667 -18 -47c0 -18.667 6 -34.167 18 -46.5s27.333 -18.5 46 -18.5z" />
    <glyph glyph-name="_368" 
d="M253 1061l104 140h106l-112 -140h-98zM300 768c-36 0 -66.833 12.167 -92.5 36.5s-38.5 54.5 -38.5 90.5c0 36.667 12.833 67 38.5 91s56.5 36 92.5 36c36.667 0 67.667 -12.167 93 -36.5s38 -54.5 38 -90.5c0 -36.667 -12.833 -67 -38.5 -91s-56.5 -36 -92.5 -36z
M300 830c18.667 0 34 6 46 18s18 27.667 18 47c0 18 -5.66699 33.667 -17 47c-12 12 -27.667 18 -47 18c-18.667 0 -34 -6 -46 -18s-18 -27.667 -18 -47c0 -18.667 6 -34.167 18 -46.5s27.333 -18.5 46 -18.5z" />
    <glyph glyph-name="_369" horiz-adv-x="668" 
d="M638 169c0 -37.333 -11.667 -70.332 -35 -98.999s-53.333 -50.334 -90 -65.001c-25.333 -11.333 -57.333 -17 -96 -17c-59.333 0 -110.333 17.667 -153 53s-64 81.333 -64 138v233h-170v82h261v-159h130c106.667 0 175 -33.667 205 -101c8 -21.333 12 -43 12 -65z
M291 253.001l0.000976562 -74.999c0 -36.667 11.667 -63.834 35 -81.501s53.666 -26.5 90.999 -26.5c36 0 65.833 8 89.5 24s35.5 41 35.5 75c0 56 -43.667 84 -131 84h-120z" />
    <glyph glyph-name="_370" 
d="M300 645c20.667 0 36.333 6.66895 47 20.002s16 30.666 16 51.999v17h76v-19c0 -44 -12.333 -78.667 -37 -104s-58.667 -38 -102 -38s-77.333 12.833 -102 38.5s-37 60.167 -37 103.5v19h76v-17c0 -20.667 5.5 -37.834 16.5 -51.501s26.5 -20.5 46.5 -20.5z" />
    <glyph glyph-name="_371" 
d="M300 843c21.333 0 38.168 7 50.501 21s18.5 32 18.5 54v13h76v-15c0 -44.667 -13.167 -80 -39.5 -106s-61.5 -39 -105.5 -39c-32 0 -60 7.33301 -84 22s-41 36.667 -51 66c-6.66699 16 -10 35 -10 57v15h76v-13c0 -22 6.16699 -40 18.5 -54s29.166 -21 50.499 -21z" />
    </font>
</defs>
</svg>
